{
.appVersion = "3151";
.formatVersion = 3;
classes = (
{
automatic = 1;
code = "A Aacute Abreve Acircumflex Adieresis Agrave Amacron Aogonek Aring Aringacute Atilde AE AEacute B C Cacute Ccaron Ccedilla Ccircumflex Cdotaccent D Eth Dcaron Dcroat E Eacute Ebreve Ecaron Ecircumflex Edieresis Edotaccent Egrave Emacron Eogonek F G Gbreve Gcircumflex Gcommaaccent Gdotaccent H Hbar Hcircumflex I IJ Iacute Ibreve Icircumflex Idieresis Idotaccent Igrave Imacron Iogonek Itilde J Jcircumflex K Kcommaaccent L Lacute Lcaron Lcommaaccent Ldot Lslash M N Nacute Ncaron Ncommaaccent Ntilde Eng O Oacute Obreve Ocircumflex Odieresis Ograve Ohungarumlaut Omacron Oslash Oslashacute Otilde OE P Thorn Q R Racute Rcaron Rcommaaccent S Sacute Scaron Scedilla Scircumflex Scommaaccent T Tbar Tcaron Tcedilla Tcommaaccent U Uacute Ubreve Ucircumflex Udieresis Ugrave Uhungarumlaut Umacron Uogonek Uring Utilde V W Wacute Wcircumflex Wdieresis Wgrave X Y Yacute Ycircumflex Ydieresis Ygrave Z Zacute Zcaron Zdotaccent Delta Omega";
name = Uppercase;
}
);
customParameters = (
{
name = "Use Typo Metrics";
value = 1;
},
{
name = fsType;
value = (
);
}
);
date = "2023-02-10 14:20:03 +0000";
familyName = Orienta;
featurePrefixes = (
{
automatic = 1;
code = "languagesystem DFLT dflt;

languagesystem latn dflt;
languagesystem latn AZE;
languagesystem latn CRT;
languagesystem latn KAZ;
languagesystem latn TAT;
languagesystem latn TRK;
languagesystem latn ROM;
languagesystem latn MOL;
languagesystem latn CAT;
";
name = Languagesystems;
}
);
features = (
{
automatic = 1;
code = "feature locl;
feature subs;
feature sinf;
feature sups;
feature frac;
feature ordn;
feature case;
feature salt;
";
tag = aalt;
},
{
automatic = 1;
code = "lookup ccmp_Other_1 {
	@CombiningTopAccents = [acutecomb brevecomb caroncomb circumflexcomb commaturnedabovecomb dieresiscomb dotaccentcomb gravecomb hungarumlautcomb macroncomb ringcomb tildecomb];
	@CombiningNonTopAccents = [cedillacomb ogonekcomb];

glyphs = (
{
glyphname = A;
kernLeft = A;
kernRight = A;
lastChange = "2023-02-10 15:14:30 +0000";
layers = (
{
anchors = (
{
name = bottom;
pos = (291,0);
},
{
name = ogonek;
pos = (654,33);
},
{
name = top;
pos = (291,700);
}
);
background = {
shapes = (
{
closed = 1;
nodes = (
(215,700,l),
(15,0,l),
(109,0,l),
(163,191,l),
(418,191,l),
(473,0,l),
(567,0,l),
(367,700,l,{
name = hr00;
})
);
},
{
closed = 1;
nodes = (
(396,269,l),
(186,269,l),
(291,637,l)
);
}
);
};
layerId = master01;
shapes = (
{
closed = 1;
nodes = (
(109,0,l),
(163,191,l),
(418,191,l),
(473,0,l),
(567,0,l),
(367,700,l,{
name = hr00;
}),
(215,700,l),
(15,0,l)
);
},
{
closed = 1;
nodes = (
(291,637,l),
(396,269,l),
(186,269,l)
);
}
);
width = 582;
}
);
unicode = 65;
},
{
glyphname = Aacute;
kernLeft = A;
kernRight = A;
lastChange = "2023-02-10 15:14:30 +0000";
layers = (
{
background = {
shapes = (
{
closed = 1;
nodes = (
(215,700,l),
(15,0,l),
(109,0,l),
(163,191,l),
(418,191,l),
(473,0,l),
(567,0,l),
(367,700,l,{
name = hr00;
})
);
},
{
closed = 1;
nodes = (
(396,269,l),
(186,269,l),
(291,637,l)
);
},
{
closed = 1;
nodes = (
(200,757,l),
(415,867,l),
(374,940,l),
(168,815,l,{
name = hr00;
})
);
}
);
};
layerId = master01;
shapes = (
{
ref = A;
},
{
pos = (65,0);
ref = acutecomb.case;
}
);
width = 582;
}
);
unicode = 193;
},
{
glyphname = Abreve;
kernLeft = A;
kernRight = A;
lastChange = "2023-02-10 15:14:30 +0000";
layers = (
{
background = {
shapes = (
{
closed = 1;
nodes = (
(215,700,l),
(15,0,l),
(109,0,l),
(163,191,l),
(418,191,l),
(473,0,l),
(567,0,l),
(367,700,l,{
name = hr00;
})
);
},
{
closed = 1;
nodes = (
(396,269,l),
(186,269,l),
(291,637,l)
);
},
{
closed = 1;
nodes = (
(372,899,o),
(345,843,o),
(294,843,cs),
(241,843,o),
(215,894,o),
(189,930,c),
(132,903,l),
(167,828,o),
(217,759,o),
(290,759,cs),
(365,759,o),
(415,829,o),
(450,903,c),
(393,930,l,{
name = hr00;
})
);
}
);
};
layerId = master01;
shapes = (
{
ref = A;
},
{
pos = (73,0);
ref = brevecomb.case;
}
);
width = 582;
}
);
unicode = 258;
},
{
glyphname = Acircumflex;
kernLeft = A;
kernRight = A;
lastChange = "2023-02-10 15:14:30 +0000";
layers = (
{
background = {
shapes = (
{
closed = 1;
nodes = (
(215,700,l),
(15,0,l),
(109,0,l),
(163,191,l),
(418,191,l),
(473,0,l),
(567,0,l),
(367,700,l,{
name = hr00;
})
);
},
{
closed = 1;
nodes = (
(396,269,l),
(186,269,l),
(291,637,l)
);
},
{
closed = 1;
nodes = (
(278,940,l),
(127,808,l),
(164,757,l),
(291,846,l),
(418,757,l),
(455,808,l),
(304,940,l,{
name = hr00;
})
);
}
);
};
layerId = master01;
shapes = (
{
ref = A;
},
{
pos = (73,0);
ref = circumflexcomb.case;
}
);
width = 582;
}
);
unicode = 194;
},
{
glyphname = Adieresis;
kernLeft = A;
kernRight = A;
lastChange = "2023-02-10 15:14:30 +0000";
layers = (
{
background = {
shapes = (
{
closed = 1;
nodes = (
(215,700,l),
(15,0,l),
(109,0,l),
(163,191,l),
(418,191,l),
(473,0,l),
(567,0,l),
(367,700,l,{
name = hr00;
})
);
},
{
closed = 1;
nodes = (
(396,269,l),
(186,269,l),
(291,637,l)
);
},
{
closed = 1;
nodes = (
(139,807,o),
(164,788,o),
(196,788,cs),
(229,788,o),
(254,807,o),
(254,847,cs),
(254,887,o),
(229,906,o),
(196,906,cs),
(164,906,o),
(139,887,o),
(139,847,c,{
name = hr00;
})
);
},
{
closed = 1;
nodes = (
(328,807,o),
(353,788,o),
(385,788,cs),
(418,788,o),
(443,807,o),
(443,847,cs),
(443,887,o),
(418,906,o),
(385,906,cs),
(353,906,o),
(328,887,o),
(328,847,c)
);
}
);
};
layerId = master01;
shapes = (
{
ref = A;
},
{
pos = (143,0);
ref = dieresiscomb.case;
}
);
width = 582;
}
);
unicode = 196;
},
{
glyphname = Agrave;
kernLeft = A;
kernRight = A;
lastChange = "2023-02-10 15:14:30 +0000";
layers = (
{
background = {
shapes = (
{
closed = 1;
nodes = (
(215,700,l),
(15,0,l),
(109,0,l),
(163,191,l),
(418,191,l),
(473,0,l),
(567,0,l),
(367,700,l,{
name = hr00;
})
);
},
{
closed = 1;
nodes = (
(396,269,l),
(186,269,l),
(291,637,l)
);
},
{
closed = 1;
nodes = (
(167,867,l),
(382,757,l),
(414,815,l),
(208,940,l,{
name = hr00;
})
);
}
);
};
layerId = master01;
shapes = (
{
ref = A;
},
{
pos = (47,0);
ref = gravecomb.case;
}
);
width = 582;
}
);
unicode = 192;
},
{
glyphname = Amacron;
kernLeft = A;
kernRight = A;
lastChange = "2023-02-10 15:14:30 +0000";
layers = (
{
background = {
shapes = (
{
closed = 1;
nodes = (
(215,700,l),
(15,0,l),
(109,0,l),
(163,191,l),
(418,191,l),
(473,0,l),
(567,0,l),
(367,700,l,{
name = hr00;
})
);
},
{
closed = 1;
nodes = (
(396,269,l),
(186,269,l),
(291,637,l)
);
},
{
closed = 1;
nodes = (
(435,809,l),
(435,884,l),
(146,884,l),
(146,809,l,{
name = hr00;
})
);
}
);
};
layerId = master01;
shapes = (
{
ref = A;
},
{
pos = (13,0);
ref = macroncomb.case;
}
);
width = 582;
}
);
unicode = 256;
},
{
glyphname = Aogonek;
kernLeft = A;
kernRight = A;
lastChange = "2023-02-10 15:14:30 +0000";
layers = (
{
background = {
shapes = (
{
closed = 1;
nodes = (
(215,700,l),
(15,0,l),
(109,0,l),
(163,191,l),
(418,191,l),
(473,0,l),
(567,0,l),
(367,700,l,{
name = hr00;
})
);
},
{
closed = 1;
nodes = (
(396,269,l),
(186,269,l),
(291,637,l)
);
},
{
closed = 1;
nodes = (
(606,-124,o),
(580,-133,o),
(556,-133,cs),
(526,-133,o),
(500,-118,o),
(500,-79,cs),
(500,-52,o),
(517,-20,o),
(556,0,c),
(540,33,l),
(458,6,o),
(418,-42,o),
(418,-95,cs),
(418,-152,o),
(462,-204,o),
(539,-204,cs),
(587,-204,o),
(627,-182,o),
(654,-163,c),
(626,-110,l,{
name = hr00;
})
);
}
);
};
layerId = master01;
shapes = (
{
ref = A;
},
{
pos = (368,0);
ref = ogonekcomb;
}
);
width = 582;
}
);
unicode = 260;
},
{
glyphname = Aring;
kernLeft = A;
kernRight = A;
lastChange = "2023-02-10 15:14:30 +0000";
layers = (
{
background = {
shapes = (
{
closed = 1;
nodes = (
(215,700,l),
(15,0,l),
(109,0,l),
(163,191,l),
(418,191,l),
(473,0,l),
(567,0,l),
(367,700,l,{
name = hr00;
})
);
},
{
closed = 1;
nodes = (
(396,269,l),
(186,269,l),
(291,637,l)
);
},
{
closed = 1;
nodes = (
(181,770,o),
(228,734,o),
(291,734,cs),
(355,734,o),
(402,770,o),
(402,847,cs),
(402,924,o),
(355,960,o),
(291,960,cs),
(228,960,o),
(181,924,o),
(181,847,c,{
name = hr00;
})
);
},
{
closed = 1;
nodes = (
(239,884,o),
(261,901,o),
(291,901,cs),
(322,901,o),
(344,884,o),
(344,847,cs),
(344,810,o),
(322,793,o),
(291,793,cs),
(261,793,o),
(239,810,o),
(239,847,cs)
);
}
);
};
layerId = master01;
shapes = (
{
ref = A;
},
{
pos = (142,0);
ref = ringcomb.case;
}
);
width = 582;
}
);
unicode = 197;
},
{
glyphname = Aringacute;
kernLeft = A;
kernRight = A;
lastChange = "2023-02-10 15:14:30 +0000";
layers = (
{
background = {
shapes = (
{
closed = 1;
nodes = (
(215,700,l),
(15,0,l),
(109,0,l),
(163,191,l),
(418,191,l),
(473,0,l),
(567,0,l),
(367,700,l,{
name = hr00;
})
);
},
{
closed = 1;
nodes = (
(396,269,l),
(186,269,l),
(291,637,l)
);
},
{
closed = 1;
nodes = (
(184,770,o),
(231,734,o),
(294,734,cs),
(358,734,o),
(405,770,o),
(405,847,cs),
(405,881,o),
(395,908,o),
(379,926,c),
(465,957,l),
(434,1030,l),
(316,958,l),
(309,959,o),
(302,960,o),
(294,960,cs),
(231,960,o),
(184,924,o),
(184,847,cs,{
name = hr00;
})
);
},
{
closed = 1;
nodes = (
(242,884,o),
(264,901,o),
(294,901,cs),
(325,901,o),
(347,884,o),
(347,847,cs),
(347,810,o),
(325,793,o),
(294,793,cs),
(264,793,o),
(242,810,o),
(242,847,cs)
);
}
);
};
layerId = master01;
shapes = (
{
closed = 1;
nodes = (
(358,734,o),
(405,770,o),
(405,847,cs),
(405,881,o),
(395,908,o),
(379,926,c),
(465,957,l),
(434,1030,l),
(316,958,l),
(309,959,o),
(302,960,o),
(294,960,cs),
(231,960,o),
(184,924,o),
(184,847,cs,{
name = hr00;
}),
(184,770,o),
(231,734,o),
(294,734,cs)
);
},
{
ref = A;
},
{
closed = 1;
nodes = (
(264,793,o),
(242,810,o),
(242,847,cs),
(242,884,o),
(264,901,o),
(294,901,cs),
(325,901,o),
(347,884,o),
(347,847,cs),
(347,810,o),
(325,793,o),
(294,793,cs)
);
}
);
width = 582;
}
);
unicode = 506;
},
{
glyphname = Atilde;
kernLeft = A;
kernRight = A;
lastChange = "2023-02-10 15:14:30 +0000";
layers = (
{
background = {
shapes = (
{
closed = 1;
nodes = (
(215,700,l),
(15,0,l),
(109,0,l),
(163,191,l),
(418,191,l),
(473,0,l),
(567,0,l),
(367,700,l,{
name = hr00;
})
);
},
{
closed = 1;
nodes = (
(396,269,l),
(186,269,l),
(291,637,l)
);
},
{
closed = 1;
nodes = (
(393,876,o),
(377,870,o),
(358,870,cs),
(307,870,o),
(276,904,o),
(222,904,cs,{
name = hr01;
}),
(186,904,o),
(143,880,o),
(118,822,c),
(175,794,l),
(187,817,o),
(203,823,o),
(222,823,cs),
(273,823,o),
(305,789,o),
(358,789,cs,{
name = hr02;
}),
(395,789,o),
(438,813,o),
(463,871,c),
(406,899,l)
);
}
);
};
layerId = master01;
shapes = (
{
ref = A;
},
{
pos = (13,0);
ref = tildecomb.case;
}
);
width = 582;
}
);
unicode = 195;
},
{
glyphname = AE;
kernLeft = A;
lastChange = "2023-02-10 15:14:32 +0000";
layers = (
{
anchors = (
{
name = bottom;
pos = (430,0);
},
{
name = top;
pos = (570,700);
}
);
background = {
shapes = (
{
closed = 1;
nodes = (
(335,700,l),
(5,0,l),
(104,0,l),
(236,281,l),
(405,281,l),
(405,0,l),
(795,0,l),
(795,78,l),
(501,78,l),
(501,281,l),
(765,281,l),
(765,359,l),
(501,359,l),
(501,622,l),
(795,622,l),
(795,700,l,{
name = hr00;
})
);
},
{
closed = 1;
nodes = (
(405,622,l),
(405,359,l),
(273,359,l),
(397,622,l)
);
}
);
};
layerId = master01;
shapes = (
{
closed = 1;
nodes = (
(104,0,l),
(236,281,l),
(405,281,l),
(405,0,l),
(795,0,l),
(795,78,l),
(501,78,l),
(501,281,l),
(765,281,l),
(765,359,l),
(501,359,l),
(501,622,l),
(795,622,l),
(795,700,l,{
name = hr00;
}),
(335,700,l),
(5,0,l)
);
},
{
closed = 1;
nodes = (
(397,622,l),
(405,622,l),
(405,359,l),
(273,359,l)
);
}
);
width = 860;
}
);
unicode = 198;
},
{
glyphname = AEacute;
kernLeft = A;
lastChange = "2023-02-10 15:14:32 +0000";
layers = (
{
background = {
shapes = (
{
closed = 1;
nodes = (
(335,700,l),
(5,0,l),
(104,0,l),
(236,281,l),
(405,281,l),
(405,0,l),
(795,0,l),
(795,78,l),
(501,78,l),
(501,281,l),
(765,281,l),
(765,359,l),
(501,359,l),
(501,622,l),
(795,622,l),
(795,700,l,{
name = hr00;
})
);
},
{
closed = 1;
nodes = (
(405,622,l),
(405,359,l),
(273,359,l),
(397,622,l)
);
},
{
closed = 1;
nodes = (
(478,757,l),
(693,867,l),
(652,940,l),
(446,815,l,{
name = hr00;
})
);
}
);
};
layerId = master01;
shapes = (
{
ref = AE;
},
{
pos = (344,0);
ref = acutecomb.case;
}
);
width = 860;
}
);
unicode = 508;
},
{
glyphname = B;
lastChange = "2023-02-10 15:08:41 +0000";
layers = (
{
anchors = (
{
name = bottom;
pos = (301,0);
},
{
name = center;
pos = (301,350);
},
{
name = top;
pos = (301,700);
}
);
background = {
shapes = (
{
closed = 1;
nodes = (
(100,700,l),
(100,0,l),
(332,0,ls),
(475,0,o),
(546,78,o),
(546,195,cs),
(546,278,o),
(507,338,o),
(430,364,c),
(487,391,o),
(516,439,o),
(516,506,cs,{
name = hr01;
}),
(516,609,o),
(445,700,o),
(302,700,c)
);
},
{
closed = 1;
nodes = (
(426,321,o),
(453,261,o),
(453,201,cs,{
name = hr02;
}),
(453,142,o),
(426,78,o),
(332,78,cs),
(196,78,l),
(196,321,l),
(332,321,ls)
);
},
{
closed = 1;
nodes = (
(396,622,o),
(423,565,o),
(423,512,cs,{
name = hr03;
}),
(423,460,o),
(396,399,o),
(302,399,cs),
(196,399,l),
(196,622,l),
(302,622,ls)
);
}
);
};
layerId = master01;
shapes = (
{
closed = 1;
nodes = (
(332,0,ls),
(475,0,o),
(546,78,o),
(546,195,cs),
(546,278,o),
(507,338,o),
(430,364,c),
(487,391,o),
(516,439,o),
(516,506,cs,{
name = hr01;
}),
(516,609,o),
(445,700,o),
(302,700,c),
(100,700,l),
(100,0,l)
);
},
{
closed = 1;
nodes = (
(196,321,l),
(332,321,ls),
(426,321,o),
(453,261,o),
(453,201,cs,{
name = hr02;
}),
(453,142,o),
(426,78,o),
(332,78,cs),
(196,78,l)
);
},
{
closed = 1;
nodes = (
(196,622,l),
(302,622,ls),
(396,622,o),
(423,565,o),
(423,512,cs,{
name = hr03;
}),
(423,460,o),
(396,399,o),
(302,399,cs),
(196,399,l)
);
}
);
width = 601;
}
);
unicode = 66;
},
{
glyphname = C;
lastChange = "2023-02-10 15:08:41 +0000";
layers = (
{
anchors = (
{
name = bottom;
pos = (307,0);
},
{
name = top;
pos = (364,700);
}
);
background = {
shapes = (
{
closed = 1;
nodes = (
(545,675,o),
(468,715,o),
(359,715,cs),
(195,715,o),
(70,592,o),
(70,351,cs),
(70,110,o),
(192,-15,o),
(361,-15,cs),
(453,-15,o),
(531,26,o),
(581,75,c),
(535,134,l),
(499,96,o),
(436,63,o),
(365,63,cs),
(252,63,o),
(170,156,o),
(170,351,cs),
(170,546,o),
(251,637,o),
(362,637,cs),
(423,637,o),
(474,602,o),
(495,532,c),
(580,563,l,{
name = hr00;
})
);
}
);
};
layerId = master01;
shapes = (
{
closed = 1;
nodes = (
(453,-15,o),
(531,26,o),
(581,75,c),
(535,134,l),
(499,96,o),
(436,63,o),
(365,63,cs),
(252,63,o),
(170,156,o),
(170,351,cs),
(170,546,o),
(251,637,o),
(362,637,cs),
(423,637,o),
(474,602,o),
(495,532,c),
(580,563,l,{
name = hr00;
}),
(545,675,o),
(468,715,o),
(359,715,cs),
(195,715,o),
(70,592,o),
(70,351,cs),
(70,110,o),
(192,-15,o),
(361,-15,cs)
);
}
);
width = 600;
}
);
unicode = 67;
},
{
glyphname = Cacute;
lastChange = "2023-02-10 15:08:41 +0000";
layers = (
{
background = {
shapes = (
{
closed = 1;
nodes = (
(545,675,o),
(468,715,o),
(359,715,cs),
(195,715,o),
(70,592,o),
(70,351,cs),
(70,110,o),
(192,-15,o),
(361,-15,cs),
(453,-15,o),
(531,26,o),
(581,75,c),
(535,134,l),
(499,96,o),
(436,63,o),
(365,63,cs),
(252,63,o),
(170,156,o),
(170,351,cs),
(170,546,o),
(251,637,o),
(362,637,cs),
(423,637,o),
(474,602,o),
(495,532,c),
(580,563,l,{
name = hr00;
})
);
},
{
closed = 1;
nodes = (
(278,757,l),
(493,867,l),
(452,940,l),
(246,815,l,{
name = hr00;
})
);
}
);
};
layerId = master01;
shapes = (
{
ref = C;
},
{
pos = (138,0);
ref = acutecomb.case;
}
);
width = 600;
}
);
unicode = 262;
},
{
glyphname = Ccaron;
lastChange = "2023-02-10 15:08:41 +0000";
layers = (
{
background = {
shapes = (
{
closed = 1;
nodes = (
(545,675,o),
(468,715,o),
(359,715,cs),
(195,715,o),
(70,592,o),
(70,351,cs),
(70,110,o),
(192,-15,o),
(361,-15,cs),
(453,-15,o),
(531,26,o),
(581,75,c),
(535,134,l),
(499,96,o),
(436,63,o),
(365,63,cs),
(252,63,o),
(170,156,o),
(170,351,cs),
(170,546,o),
(251,637,o),
(362,637,cs),
(423,637,o),
(474,602,o),
(495,532,c),
(580,563,l,{
name = hr00;
})
);
},
{
closed = 1;
nodes = (
(378,754,l),
(529,886,l),
(492,937,l),
(365,848,l),
(238,937,l),
(201,886,l),
(352,754,l,{
name = hr00;
})
);
}
);
};
layerId = master01;
shapes = (
{
ref = C;
},
{
pos = (146,0);
ref = caroncomb.case;
}
);
width = 600;
}
);
unicode = 268;
},
{
glyphname = Ccedilla;
lastChange = "2023-02-10 15:08:41 +0000";
layers = (
{
background = {
shapes = (
{
closed = 1;
nodes = (
(545,675,o),
(468,715,o),
(359,715,cs),
(195,715,o),
(70,592,o),
(70,351,cs),
(70,110,o),
(192,-15,o),
(361,-15,cs),
(453,-15,o),
(531,26,o),
(581,75,c),
(535,134,l),
(499,96,o),
(436,63,o),
(365,63,cs),
(252,63,o),
(170,156,o),
(170,351,cs),
(170,546,o),
(251,637,o),
(362,637,cs),
(423,637,o),
(474,602,o),
(495,532,c),
(580,563,l,{
name = hr00;
})
);
},
{
closed = 1;
nodes = (
(216,-188,o),
(256,-210,o),
(304,-210,cs),
(381,-210,o),
(425,-158,o),
(425,-101,cs),
(425,-48,o),
(385,0,o),
(303,27,c),
(287,-6,l),
(326,-26,o),
(343,-58,o),
(343,-85,cs),
(343,-124,o),
(317,-139,o),
(287,-139,cs),
(263,-139,o),
(237,-130,o),
(217,-116,c),
(189,-169,l,{
name = hr00;
})
);
}
);
};
layerId = master01;
shapes = (
{
ref = C;
},
{
pos = (44,0);
ref = cedillacomb;
}
);
width = 600;
}
);
unicode = 199;
},
{
glyphname = Ccircumflex;
lastChange = "2023-02-10 14:55:52 +0000";
layers = (
{
background = {
shapes = (
{
closed = 1;
nodes = (
(545,675,o),
(468,715,o),
(359,715,cs),
(195,715,o),
(70,592,o),
(70,351,cs),
(70,110,o),
(192,-15,o),
(361,-15,cs),
(453,-15,o),
(531,26,o),
(581,75,c),
(535,134,l),
(499,96,o),
(436,63,o),
(365,63,cs),
(252,63,o),
(170,156,o),
(170,351,cs),
(170,546,o),
(251,637,o),
(362,637,cs),
(423,637,o),
(474,602,o),
(495,532,c),
(580,563,l,{
name = hr00;
})
);
},
{
closed = 1;
nodes = (
(343,940,l),
(192,808,l),
(229,757,l),
(356,846,l),
(483,757,l),
(520,808,l),
(369,940,l,{
name = hr00;
})
);
}
);
};
layerId = master01;
shapes = (
{
ref = C;
},
{
pos = (146,0);
ref = circumflexcomb.case;
}
);
width = 600;
}
);
unicode = 264;
},
{
glyphname = Cdotaccent;
lastChange = "2023-02-10 15:08:41 +0000";
layers = (
{
background = {
shapes = (
{
closed = 1;
nodes = (
(545,675,o),
(468,715,o),
(359,715,cs),
(195,715,o),
(70,592,o),
(70,351,cs),
(70,110,o),
(192,-15,o),
(361,-15,cs),
(453,-15,o),
(531,26,o),
(581,75,c),
(535,134,l),
(499,96,o),
(436,63,o),
(365,63,cs),
(252,63,o),
(170,156,o),
(170,351,cs),
(170,546,o),
(251,637,o),
(362,637,cs),
(423,637,o),
(474,602,o),
(495,532,c),
(580,563,l,{
name = hr00;
})
);
},
{
closed = 1;
nodes = (
(294,801,o),
(322,780,o),
(359,780,cs),
(397,780,o),
(425,801,o),
(425,847,cs),
(425,893,o),
(397,914,o),
(359,914,cs),
(322,914,o),
(294,893,o),
(294,847,c,{
name = hr00;
})
);
}
);
};
layerId = master01;
shapes = (
{
ref = C;
},
{
pos = (215,0);
ref = dotaccentcomb.case;
}
);
width = 600;
}
);
unicode = 266;
},
{
glyphname = D;
lastChange = "2023-02-10 15:08:41 +0000";
layers = (
{
anchors = (
{
name = bottom;
pos = (342,0);
},
{
name = center;
pos = (342,350);
},
{
name = top;
pos = (322,700);
}
);
background = {
shapes = (
{
closed = 1;
nodes = (
(433,622,o),
(514,536,o),
(514,351,cs),
(514,166,o),
(432,78,o),
(319,78,cs),
(196,78,l),
(196,622,l),
(322,622,ls,{
name = hr00;
})
);
},
{
closed = 1;
nodes = (
(100,0,l),
(323,0,ls),
(492,0,o),
(614,120,o),
(614,351,cs),
(614,582,o),
(489,700,o),
(325,700,cs),
(100,700,l)
);
}
);
};
layerId = master01;
shapes = (
{
closed = 1;
nodes = (
(323,0,ls),
(492,0,o),
(614,120,o),
(614,351,cs),
(614,582,o),
(489,700,o),
(325,700,cs),
(100,700,l),
(100,0,l)
);
},
{
closed = 1;
nodes = (
(196,622,l),
(322,622,ls,{
name = hr00;
}),
(433,622,o),
(514,536,o),
(514,351,cs),
(514,166,o),
(432,78,o),
(319,78,cs),
(196,78,l)
);
}
);
width = 684;
}
);
unicode = 68;
},
{
glyphname = Eth;
lastChange = "2023-02-10 15:08:41 +0000";
layers = (
{
background = {
shapes = (
{
closed = 1;
nodes = (
(433,622,o),
(514,536,o),
(514,351,cs),
(514,166,o),
(432,78,o),
(319,78,cs),
(196,78,l),
(196,622,l),
(322,622,ls,{
name = hr00;
})
);
},
{
closed = 1;
nodes = (
(100,0,l),
(323,0,ls),
(492,0,o),
(614,120,o),
(614,351,cs),
(614,582,o),
(489,700,o),
(325,700,cs),
(100,700,l)
);
},
{
closed = 1;
nodes = (
(366,317,l),
(366,387,l),
(26,387,l),
(26,317,l,{
name = hr00;
})
);
}
);
};
layerId = master01;
shapes = (
{
closed = 1;
nodes = (
(366,317,l),
(366,387,l),
(26,387,l),
(26,317,l,{
name = hr00;
})
);
},
{
alignment = -1;
ref = D;
}
);
width = 684;
}
);
unicode = 208;
},
{
glyphname = Dcaron;
lastChange = "2023-02-10 15:08:41 +0000";
layers = (
{
background = {
shapes = (
{
closed = 1;
nodes = (
(433,622,o),
(514,536,o),
(514,351,cs),
(514,166,o),
(432,78,o),
(319,78,cs),
(196,78,l),
(196,622,l),
(322,622,ls,{
name = hr00;
})
);
},
{
closed = 1;
nodes = (
(100,0,l),
(323,0,ls),
(492,0,o),
(614,120,o),
(614,351,cs),
(614,582,o),
(489,700,o),
(325,700,cs),
(100,700,l)
);
},
{
closed = 1;
nodes = (
(335,754,l),
(486,886,l),
(449,937,l),
(322,848,l),
(195,937,l),
(158,886,l),
(309,754,l,{
name = hr00;
})
);
}
);
};
layerId = master01;
shapes = (
{
ref = D;
},
{
pos = (104,0);
ref = caroncomb.case;
}
);
width = 684;
}
);
unicode = 270;
},
{
glyphname = Dcroat;
lastChange = "2023-02-10 15:08:41 +0000";
layers = (
{
background = {
shapes = (
{
closed = 1;
nodes = (
(433,622,o),
(514,536,o),
(514,351,cs),
(514,166,o),
(432,78,o),
(319,78,cs),
(196,78,l),
(196,622,l),
(322,622,ls,{
name = hr00;
})
);
},
{
closed = 1;
nodes = (
(100,0,l),
(323,0,ls),
(492,0,o),
(614,120,o),
(614,351,cs),
(614,582,o),
(489,700,o),
(325,700,cs),
(100,700,l)
);
},
{
closed = 1;
nodes = (
(366,317,l),
(366,387,l),
(26,387,l),
(26,317,l,{
name = hr00;
})
);
}
);
};
layerId = master01;
shapes = (
{
ref = Eth;
}
);
width = 684;
}
);
unicode = 272;
},
{
glyphname = E;
lastChange = "2023-02-10 15:08:41 +0000";
layers = (
{
anchors = (
{
name = bottom;
pos = (278,0);
},
{
name = ogonek;
pos = (588,33);
},
{
name = top;
pos = (299,700);
},
{
name = topleft;
pos = (20,700);
}
);
background = {
shapes = (
{
closed = 1;
nodes = (
(100,700,l),
(100,0,l),
(490,0,l),
(490,78,l),
(196,78,l),
(196,311,l),
(460,311,l),
(460,389,l),
(196,389,l),
(196,622,l),
(490,622,l),
(490,700,l,{
name = hr00;
})
);
}
);
};
layerId = master01;
shapes = (
{
closed = 1;
nodes = (
(490,0,l),
(490,78,l),
(196,78,l),
(196,311,l),
(460,311,l),
(460,389,l),
(196,389,l),
(196,622,l),
(490,622,l),
(490,700,l,{
name = hr00;
}),
(100,700,l),
(100,0,l)
);
}
);
width = 555;
}
);
unicode = 69;
},
{
glyphname = Eacute;
lastChange = "2023-02-10 15:08:41 +0000";
layers = (
{
background = {
shapes = (
{
closed = 1;
nodes = (
(100,700,l),
(100,0,l),
(490,0,l),
(490,78,l),
(196,78,l),
(196,311,l),
(460,311,l),
(460,389,l),
(196,389,l),
(196,622,l),
(490,622,l),
(490,700,l,{
name = hr00;
})
);
},
{
closed = 1;
nodes = (
(186,757,l),
(401,867,l),
(360,940,l),
(154,815,l,{
name = hr00;
})
);
}
);
};
layerId = master01;
shapes = (
{
ref = E;
},
{
pos = (73,0);
ref = acutecomb.case;
}
);
width = 555;
}
);
unicode = 201;
},
{
glyphname = Ebreve;
lastChange = "2023-02-10 14:57:03 +0000";
layers = (
{
background = {
shapes = (
{
closed = 1;
nodes = (
(100,700,l),
(100,0,l),
(490,0,l),
(490,78,l),
(196,78,l),
(196,311,l),
(460,311,l),
(460,389,l),
(196,389,l),
(196,622,l),
(490,622,l),
(490,700,l,{
name = hr00;
})
);
},
{
closed = 1;
nodes = (
(388,899,o),
(361,843,o),
(310,843,cs),
(257,843,o),
(231,894,o),
(205,930,c),
(148,903,l),
(183,828,o),
(233,759,o),
(306,759,cs),
(381,759,o),
(431,829,o),
(466,903,c),
(409,930,l,{
name = hr00;
})
);
}
);
};
layerId = master01;
shapes = (
{
ref = E;
},
{
pos = (81,0);
ref = brevecomb.case;
}
);
width = 555;
}
);
unicode = 276;
},
{
glyphname = Ecaron;
lastChange = "2023-02-10 15:08:41 +0000";
layers = (
{
background = {
shapes = (
{
closed = 1;
nodes = (
(100,700,l),
(100,0,l),
(490,0,l),
(490,78,l),
(196,78,l),
(196,311,l),
(460,311,l),
(460,389,l),
(196,389,l),
(196,622,l),
(490,622,l),
(490,700,l,{
name = hr00;
})
);
},
{
closed = 1;
nodes = (
(320,774,l),
(471,906,l),
(434,957,l),
(307,868,l),
(180,957,l),
(143,906,l),
(294,774,l,{
name = hr00;
})
);
}
);
};
layerId = master01;
shapes = (
{
ref = E;
},
{
pos = (81,0);
ref = caroncomb.case;
}
);
width = 555;
}
);
unicode = 282;
},
{
glyphname = Ecircumflex;
lastChange = "2023-02-10 15:08:41 +0000";
layers = (
{
background = {
shapes = (
{
closed = 1;
nodes = (
(100,700,l),
(100,0,l),
(490,0,l),
(490,78,l),
(196,78,l),
(196,311,l),
(460,311,l),
(460,389,l),
(196,389,l),
(196,622,l),
(490,622,l),
(490,700,l,{
name = hr00;
})
);
},
{
closed = 1;
nodes = (
(264,940,l),
(113,808,l),
(150,757,l),
(277,846,l),
(404,757,l),
(441,808,l),
(290,940,l,{
name = hr00;
})
);
}
);
};
layerId = master01;
shapes = (
{
ref = E;
},
{
pos = (81,0);
ref = circumflexcomb.case;
}
);
width = 555;
}
);
unicode = 202;
},
{
glyphname = Edieresis;
lastChange = "2023-02-10 15:08:41 +0000";
layers = (
{
background = {
shapes = (
{
closed = 1;
nodes = (
(100,700,l),
(100,0,l),
(490,0,l),
(490,78,l),
(196,78,l),
(196,311,l),
(460,311,l),
(460,389,l),
(196,389,l),
(196,622,l),
(490,622,l),
(490,700,l,{
name = hr00;
})
);
},
{
closed = 1;
nodes = (
(125,807,o),
(150,788,o),
(182,788,cs),
(215,788,o),
(240,807,o),
(240,847,cs),
(240,887,o),
(215,906,o),
(182,906,cs),
(150,906,o),
(125,887,o),
(125,847,c,{
name = hr00;
})
);
},
{
closed = 1;
nodes = (
(314,807,o),
(339,788,o),
(371,788,cs),
(404,788,o),
(429,807,o),
(429,847,cs),
(429,887,o),
(404,906,o),
(371,906,cs),
(339,906,o),
(314,887,o),
(314,847,c)
);
}
);
};
layerId = master01;
shapes = (
{
ref = E;
},
{
pos = (151,0);
ref = dieresiscomb.case;
}
);
width = 555;
}
);
unicode = 203;
},
{
glyphname = Edotaccent;
lastChange = "2023-02-10 15:08:41 +0000";
layers = (
{
background = {
shapes = (
{
closed = 1;
nodes = (
(100,700,l),
(100,0,l),
(490,0,l),
(490,78,l),
(196,78,l),
(196,311,l),
(460,311,l),
(460,389,l),
(196,389,l),
(196,622,l),
(490,622,l),
(490,700,l,{
name = hr00;
})
);
},
{
closed = 1;
nodes = (
(242,801,o),
(270,780,o),
(307,780,cs),
(345,780,o),
(373,801,o),
(373,847,cs),
(373,893,o),
(345,914,o),
(307,914,cs),
(270,914,o),
(242,893,o),
(242,847,c,{
name = hr00;
})
);
}
);
};
layerId = master01;
shapes = (
{
ref = E;
},
{
pos = (150,0);
ref = dotaccentcomb.case;
}
);
width = 555;
}
);
unicode = 278;
},
{
glyphname = Egrave;
lastChange = "2023-02-10 15:08:41 +0000";
layers = (
{
background = {
shapes = (
{
closed = 1;
nodes = (
(100,700,l),
(100,0,l),
(490,0,l),
(490,78,l),
(196,78,l),
(196,311,l),
(460,311,l),
(460,389,l),
(196,389,l),
(196,622,l),
(490,622,l),
(490,700,l,{
name = hr00;
})
);
},
{
closed = 1;
nodes = (
(154,867,l),
(369,757,l),
(401,815,l),
(195,940,l,{
name = hr00;
})
);
}
);
};
layerId = master01;
shapes = (
{
ref = E;
},
{
pos = (55,0);
ref = gravecomb.case;
}
);
width = 555;
}
);
unicode = 200;
},
{
glyphname = Emacron;
lastChange = "2023-02-10 15:08:41 +0000";
layers = (
{
background = {
shapes = (
{
closed = 1;
nodes = (
(100,700,l),
(100,0,l),
(490,0,l),
(490,78,l),
(196,78,l),
(196,311,l),
(460,311,l),
(460,389,l),
(196,389,l),
(196,622,l),
(490,622,l),
(490,700,l,{
name = hr00;
})
);
},
{
closed = 1;
nodes = (
(452,809,l),
(452,884,l),
(163,884,l),
(163,809,l,{
name = hr00;
})
);
}
);
};
layerId = master01;
shapes = (
{
ref = E;
},
{
pos = (21,0);
ref = macroncomb.case;
}
);
width = 555;
}
);
unicode = 274;
},
{
glyphname = Eogonek;
lastChange = "2023-02-10 15:08:41 +0000";
layers = (
{
background = {
shapes = (
{
closed = 1;
nodes = (
(100,700,l),
(100,0,l),
(490,0,l),
(490,78,l),
(196,78,l),
(196,311,l),
(460,311,l),
(460,389,l),
(196,389,l),
(196,622,l),
(490,622,l),
(490,700,l,{
name = hr00;
})
);
},
{
closed = 1;
nodes = (
(540,-124,o),
(514,-133,o),
(490,-133,cs),
(460,-133,o),
(434,-118,o),
(434,-79,cs),
(434,-52,o),
(451,-20,o),
(490,0,c),
(474,33,l),
(392,6,o),
(352,-42,o),
(352,-95,cs),
(352,-152,o),
(396,-204,o),
(473,-204,cs),
(521,-204,o),
(561,-182,o),
(588,-163,c),
(560,-110,l,{
name = hr00;
})
);
}
);
};
layerId = master01;
shapes = (
{
ref = E;
},
{
pos = (302,0);
ref = ogonekcomb;
}
);
width = 555;
}
);
unicode = 280;
},
{
glyphname = F;
lastChange = "2023-02-10 15:08:41 +0000";
layers = (
{
anchors = (
{
name = bottom;
pos = (245,0);
},
{
name = top;
pos = (245,700);
}
);
background = {
shapes = (
{
closed = 1;
nodes = (
(100,700,l),
(100,0,l),
(196,0,l),
(196,311,l),
(440,311,l),
(440,389,l),
(196,389,l),
(196,622,l),
(470,622,l),
(470,700,l,{
name = hr00;
})
);
}
);
};
layerId = master01;
shapes = (
{
closed = 1;
nodes = (
(196,0,l),
(196,311,l),
(440,311,l),
(440,389,l),
(196,389,l),
(196,622,l),
(470,622,l),
(470,700,l,{
name = hr00;
}),
(100,700,l),
(100,0,l)
);
}
);
width = 490;
}
);
unicode = 70;
},
{
glyphname = G;
lastChange = "2023-02-10 15:08:41 +0000";
layers = (
{
anchors = (
{
name = bottom;
pos = (367,0);
},
{
name = top;
pos = (364,700);
}
);
background = {
shapes = (
{
closed = 1;
nodes = (
(389,360,l),
(389,282,l),
(508,282,l),
(508,110,l),
(471,83,o),
(420,63,o),
(365,63,cs),
(252,63,o),
(170,156,o),
(170,351,cs),
(170,546,o),
(251,637,o),
(362,637,cs),
(423,637,o),
(474,602,o),
(495,532,c),
(580,563,l),
(545,675,o),
(468,715,o),
(359,715,cs),
(195,715,o),
(70,592,o),
(70,351,cs),
(70,110,o),
(192,-15,o),
(361,-15,cs),
(430,-15,o),
(485,8,o),
(530,40,c),
(548,0,l,{
name = hr01;
}),
(594,0,l),
(594,360,l),
(508,360,l)
);
}
);
};
layerId = master01;
shapes = (
{
closed = 1;
nodes = (
(430,-15,o),
(485,8,o),
(530,40,c),
(548,0,l,{
name = hr01;
}),
(594,0,l),
(594,360,l),
(508,360,l),
(389,360,l),
(389,282,l),
(508,282,l),
(508,110,l),
(471,83,o),
(420,63,o),
(365,63,cs),
(252,63,o),
(170,156,o),
(170,351,cs),
(170,546,o),
(251,637,o),
(362,637,cs),
(423,637,o),
(474,602,o),
(495,532,c),
(580,563,l),
(545,675,o),
(468,715,o),
(359,715,cs),
(195,715,o),
(70,592,o),
(70,351,cs),
(70,110,o),
(192,-15,o),
(361,-15,cs)
);
}
);
width = 674;
}
);
unicode = 71;
},
{
glyphname = Gbreve;
lastChange = "2023-02-10 15:08:41 +0000";
layers = (
{
background = {
shapes = (
{
closed = 1;
nodes = (
(389,360,l),
(389,282,l),
(508,282,l),
(508,110,l),
(471,83,o),
(420,63,o),
(365,63,cs),
(252,63,o),
(170,156,o),
(170,351,cs),
(170,546,o),
(251,637,o),
(362,637,cs),
(423,637,o),
(474,602,o),
(495,532,c),
(580,563,l),
(545,675,o),
(468,715,o),
(359,715,cs),
(195,715,o),
(70,592,o),
(70,351,cs),
(70,110,o),
(192,-15,o),
(361,-15,cs),
(430,-15,o),
(485,8,o),
(530,40,c),
(548,0,l,{
name = hr01;
}),
(594,0,l),
(594,360,l),
(508,360,l)
);
},
{
closed = 1;
nodes = (
(443,899,o),
(416,843,o),
(365,843,cs),
(312,843,o),
(286,894,o),
(260,930,c),
(203,903,l),
(238,828,o),
(288,759,o),
(361,759,cs),
(436,759,o),
(486,829,o),
(521,903,c),
(464,930,l,{
name = hr00;
})
);
}
);
};
layerId = master01;
shapes = (
{
ref = G;
},
{
pos = (146,0);
ref = brevecomb.case;
}
);
width = 674;
}
);
unicode = 286;
},
{
glyphname = Gcircumflex;
lastChange = "2023-02-10 14:56:40 +0000";
layers = (
{
background = {
shapes = (
{
closed = 1;
nodes = (
(389,360,l),
(389,282,l),
(508,282,l),
(508,110,l),
(471,83,o),
(420,63,o),
(365,63,cs),
(252,63,o),
(170,156,o),
(170,351,cs),
(170,546,o),
(251,637,o),
(362,637,cs),
(423,637,o),
(474,602,o),
(495,532,c),
(580,563,l),
(545,675,o),
(468,715,o),
(359,715,cs),
(195,715,o),
(70,592,o),
(70,351,cs),
(70,110,o),
(192,-15,o),
(361,-15,cs),
(430,-15,o),
(485,8,o),
(530,40,c),
(548,0,l,{
name = hr01;
}),
(594,0,l),
(594,360,l),
(508,360,l)
);
},
{
closed = 1;
nodes = (
(349,940,l),
(198,808,l),
(235,757,l),
(362,846,l),
(489,757,l),
(526,808,l),
(375,940,l,{
name = hr00;
})
);
}
);
};
layerId = master01;
shapes = (
{
ref = G;
},
{
pos = (146,0);
ref = circumflexcomb.case;
}
);
width = 674;
}
);
unicode = 284;
},
{
glyphname = Gcommaaccent;
lastChange = "2023-02-10 15:08:41 +0000";
layers = (
{
background = {
shapes = (
{
closed = 1;
nodes = (
(389,360,l),
(389,282,l),
(508,282,l),
(508,110,l),
(471,83,o),
(420,63,o),
(365,63,cs),
(252,63,o),
(170,156,o),
(170,351,cs),
(170,546,o),
(251,637,o),
(362,637,cs),
(423,637,o),
(474,602,o),
(495,532,c),
(580,563,l),
(545,675,o),
(468,715,o),
(359,715,cs),
(195,715,o),
(70,592,o),
(70,351,cs),
(70,110,o),
(192,-15,o),
(361,-15,cs),
(430,-15,o),
(485,8,o),
(530,40,c),
(548,0,l,{
name = hr01;
}),
(594,0,l),
(594,360,l),
(508,360,l)
);
},
{
closed = 1;
nodes = (
(337,-226,o),
(321,-253,o),
(304,-273,c),
(346,-301,l),
(388,-256,o),
(430,-172,o),
(430,-112,cs),
(430,-69,o),
(404,-50,o),
(368,-50,cs),
(333,-50,o),
(307,-69,o),
(307,-112,cs),
(307,-154,o),
(337,-160,o),
(337,-201,cs,{
name = hr00;
})
);
}
);
};
layerId = master01;
shapes = (
{
ref = G;
},
{
pos = (232,0);
ref = commaaccentcomb;
}
);
width = 674;
}
);
unicode = 290;
},
{
glyphname = Gdotaccent;
lastChange = "2023-02-10 15:08:41 +0000";
layers = (
{
background = {
shapes = (
{
closed = 1;
nodes = (
(389,360,l),
(389,282,l),
(508,282,l),
(508,110,l),
(471,83,o),
(420,63,o),
(365,63,cs),
(252,63,o),
(170,156,o),
(170,351,cs),
(170,546,o),
(251,637,o),
(362,637,cs),
(423,637,o),
(474,602,o),
(495,532,c),
(580,563,l),
(545,675,o),
(468,715,o),
(359,715,cs),
(195,715,o),
(70,592,o),
(70,351,cs),
(70,110,o),
(192,-15,o),
(361,-15,cs),
(430,-15,o),
(485,8,o),
(530,40,c),
(548,0,l,{
name = hr01;
}),
(594,0,l),
(594,360,l),
(508,360,l)
);
},
{
closed = 1;
nodes = (
(296,801,o),
(324,780,o),
(361,780,cs),
(399,780,o),
(427,801,o),
(427,847,cs),
(427,893,o),
(399,914,o),
(361,914,cs),
(324,914,o),
(296,893,o),
(296,847,c,{
name = hr00;
})
);
}
);
};
layerId = master01;
shapes = (
{
ref = G;
},
{
pos = (215,0);
ref = dotaccentcomb.case;
}
);
width = 674;
}
);
unicode = 288;
},
{
glyphname = H;
lastChange = "2023-02-10 15:08:41 +0000";
layers = (
{
anchors = (
{
name = bottom;
pos = (343,0);
},
{
name = center;
pos = (343,350);
},
{
name = top;
pos = (343,700);
},
{
name = topleft;
pos = (20,700);
}
);
background = {
shapes = (
{
closed = 1;
nodes = (
(490,700,l),
(490,389,l),
(196,389,l),
(196,700,l),
(100,700,l),
(100,0,l),
(196,0,l),
(196,311,l),
(490,311,l),
(490,0,l),
(586,0,l),
(586,700,l,{
name = hr00;
})
);
}
);
};
layerId = master01;
shapes = (
{
closed = 1;
nodes = (
(196,0,l),
(196,311,l),
(490,311,l),
(490,0,l),
(586,0,l),
(586,700,l,{
name = hr00;
}),
(490,700,l),
(490,389,l),
(196,389,l),
(196,700,l),
(100,700,l),
(100,0,l)
);
}
);
width = 686;
}
);
unicode = 72;
},
{
glyphname = Hbar;
lastChange = "2023-02-10 15:08:41 +0000";
layers = (
{
background = {
shapes = (
{
closed = 1;
nodes = (
(490,700,l),
(490,389,l),
(196,389,l),
(196,700,l),
(100,700,l),
(100,0,l),
(196,0,l),
(196,311,l),
(490,311,l),
(490,0,l),
(586,0,l),
(586,700,l,{
name = hr00;
})
);
},
{
closed = 1;
nodes = (
(633,495,l),
(633,565,l),
(55,565,l),
(55,495,l,{
name = hr00;
})
);
}
);
};
layerId = master01;
shapes = (
{
closed = 1;
nodes = (
(633,495,l),
(633,565,l),
(55,565,l),
(55,495,l,{
name = hr00;
})
);
},
{
alignment = -1;
ref = H;
}
);
width = 686;
}
);
unicode = 294;
},
{
glyphname = Hcircumflex;
lastChange = "2023-02-10 14:53:58 +0000";
layers = (
{
background = {
shapes = (
{
closed = 1;
nodes = (
(490,700,l),
(490,389,l),
(196,389,l),
(196,700,l),
(100,700,l),
(100,0,l),
(196,0,l),
(196,311,l),
(490,311,l),
(490,0,l),
(586,0,l),
(586,700,l,{
name = hr00;
})
);
},
{
closed = 1;
nodes = (
(330,940,l),
(179,808,l),
(216,757,l),
(343,846,l),
(470,757,l),
(507,808,l),
(356,940,l,{
name = hr00;
})
);
}
);
};
layerId = master01;
shapes = (
{
ref = H;
},
{
pos = (125,0);
ref = circumflexcomb.case;
}
);
width = 686;
}
);
unicode = 292;
},
{
glyphname = I;
lastChange = "2023-02-10 15:08:41 +0000";
layers = (
{
anchors = (
{
name = bottom;
pos = (148,0);
},
{
name = ogonek;
pos = (281,32);
},
{
name = top;
pos = (148,700);
},
{
name = topleft;
pos = (20,700);
}
);
background = {
shapes = (
{
closed = 1;
nodes = (
(100,700,l),
(100,0,l),
(196,0,l),
(196,700,l,{
name = hr00;
})
);
}
);
};
layerId = master01;
shapes = (
{
closed = 1;
nodes = (
(196,0,l),
(196,700,l,{
name = hr00;
}),
(100,700,l),
(100,0,l)
);
}
);
width = 296;
}
);
unicode = 73;
},
{
glyphname = IJ;
lastChange = "2023-02-10 15:08:41 +0000";
layers = (
{
background = {
shapes = (
{
closed = 1;
nodes = (
(100,700,l),
(100,0,l),
(196,0,l),
(196,700,l,{
name = hr00;
})
);
},
{
closed = 1;
nodes = (
(530,700,l),
(530,164,ls),
(530,91,o),
(498,63,o),
(452,63,cs),
(410,63,o),
(381,92,o),
(369,146,c),
(286,118,l),
(315,23,o),
(374,-15,o),
(452,-15,cs),
(569,-15,o),
(626,42,o),
(626,199,cs),
(626,700,l,{
name = hr00;
})
);
}
);
};
layerId = master01;
shapes = (
{
ref = I;
},
{
pos = (296,0);
ref = J;
}
);
width = 721;
}
);
unicode = 306;
},
{
glyphname = Iacute;
lastChange = "2023-02-10 15:08:41 +0000";
layers = (
{
background = {
shapes = (
{
closed = 1;
nodes = (
(100,700,l),
(100,0,l),
(196,0,l),
(196,700,l,{
name = hr00;
})
);
},
{
closed = 1;
nodes = (
(57,757,l),
(272,867,l),
(231,940,l),
(25,815,l,{
name = hr00;
})
);
}
);
};
layerId = master01;
shapes = (
{
ref = I;
},
{
pos = (-78,0);
ref = acutecomb.case;
}
);
width = 296;
}
);
unicode = 205;
},
{
glyphname = Ibreve;
lastChange = "2023-02-10 14:53:58 +0000";
layers = (
{
background = {
shapes = (
{
closed = 1;
nodes = (
(100,700,l),
(100,0,l),
(196,0,l),
(196,700,l,{
name = hr00;
})
);
},
{
closed = 1;
nodes = (
(229,899,o),
(202,843,o),
(151,843,cs),
(98,843,o),
(72,894,o),
(46,930,c),
(-11,903,l),
(24,828,o),
(74,759,o),
(147,759,cs),
(222,759,o),
(272,829,o),
(307,903,c),
(250,930,l,{
name = hr00;
})
);
}
);
};
layerId = master01;
shapes = (
{
ref = I;
},
{
pos = (-70,0);
ref = brevecomb.case;
}
);
width = 296;
}
);
unicode = 300;
},
{
glyphname = Icircumflex;
lastChange = "2023-02-10 15:08:41 +0000";
layers = (
{
background = {
shapes = (
{
closed = 1;
nodes = (
(100,700,l),
(100,0,l),
(196,0,l),
(196,700,l,{
name = hr00;
})
);
},
{
closed = 1;
nodes = (
(135,940,l),
(-16,808,l),
(21,757,l),
(148,846,l),
(275,757,l),
(312,808,l),
(161,940,l,{
name = hr00;
})
);
}
);
};
layerId = master01;
shapes = (
{
ref = I;
},
{
pos = (-70,0);
ref = circumflexcomb.case;
}
);
width = 296;
}
);
unicode = 206;
},
{
glyphname = Idieresis;
lastChange = "2023-02-10 15:08:41 +0000";
layers = (
{
background = {
shapes = (
{
closed = 1;
nodes = (
(100,700,l),
(100,0,l),
(196,0,l),
(196,700,l,{
name = hr00;
})
);
},
{
closed = 1;
nodes = (
(-4,807,o),
(21,788,o),
(53,788,cs),
(86,788,o),
(111,807,o),
(111,847,cs),
(111,887,o),
(86,906,o),
(53,906,cs),
(21,906,o),
(-4,887,o),
(-4,847,c,{
name = hr00;
})
);
},
{
closed = 1;
nodes = (
(185,807,o),
(210,788,o),
(242,788,cs),
(275,788,o),
(300,807,o),
(300,847,cs),
(300,887,o),
(275,906,o),
(242,906,cs),
(210,906,o),
(185,887,o),
(185,847,c)
);
}
);
};
layerId = master01;
shapes = (
{
ref = I;
},
{
ref = dieresiscomb.case;
}
);
width = 296;
}
);
unicode = 207;
},
{
glyphname = Idotaccent;
lastChange = "2023-02-10 15:08:41 +0000";
layers = (
{
background = {
shapes = (
{
closed = 1;
nodes = (
(100,700,l),
(100,0,l),
(196,0,l),
(196,700,l,{
name = hr00;
})
);
},
{
closed = 1;
nodes = (
(83,801,o),
(111,780,o),
(148,780,cs),
(186,780,o),
(214,801,o),
(214,847,cs),
(214,893,o),
(186,914,o),
(148,914,cs),
(111,914,o),
(83,893,o),
(83,847,c,{
name = hr00;
})
);
}
);
};
layerId = master01;
shapes = (
{
ref = I;
},
{
pos = (-1,0);
ref = dotaccentcomb.case;
}
);
width = 296;
}
);
unicode = 304;
},
{
glyphname = Igrave;
lastChange = "2023-02-10 15:08:41 +0000";
layers = (
{
background = {
shapes = (
{
closed = 1;
nodes = (
(100,700,l),
(100,0,l),
(196,0,l),
(196,700,l,{
name = hr00;
})
);
},
{
closed = 1;
nodes = (
(25,867,l),
(240,757,l),
(272,815,l),
(66,940,l,{
name = hr00;
})
);
}
);
};
layerId = master01;
shapes = (
{
ref = I;
},
{
pos = (-96,0);
ref = gravecomb.case;
}
);
width = 296;
}
);
unicode = 204;
},
{
glyphname = Imacron;
lastChange = "2023-02-10 15:08:41 +0000";
layers = (
{
background = {
shapes = (
{
closed = 1;
nodes = (
(100,700,l),
(100,0,l),
(196,0,l),
(196,700,l,{
name = hr00;
})
);
},
{
closed = 1;
nodes = (
(293,809,l),
(293,884,l),
(4,884,l),
(4,809,l,{
name = hr00;
})
);
}
);
};
layerId = master01;
shapes = (
{
ref = I;
},
{
pos = (-130,0);
ref = macroncomb.case;
}
);
width = 296;
}
);
unicode = 298;
},
{
glyphname = Iogonek;
lastChange = "2023-02-10 15:08:41 +0000";
layers = (
{
background = {
shapes = (
{
closed = 1;
nodes = (
(100,700,l),
(100,0,l),
(196,0,l),
(196,700,l,{
name = hr00;
})
);
},
{
closed = 1;
nodes = (
(233,-124,o),
(207,-133,o),
(183,-133,cs),
(153,-133,o),
(127,-118,o),
(127,-79,cs),
(127,-52,o),
(144,-20,o),
(183,0,c),
(167,33,l),
(85,6,o),
(45,-42,o),
(45,-95,cs),
(45,-152,o),
(89,-204,o),
(166,-204,cs),
(214,-204,o),
(254,-182,o),
(281,-163,c),
(253,-110,l,{
name = hr00;
})
);
}
);
};
layerId = master01;
shapes = (
{
ref = I;
},
{
pos = (-5,-1);
ref = ogonekcomb;
}
);
width = 296;
}
);
unicode = 302;
},
{
glyphname = Itilde;
lastChange = "2023-02-10 14:53:58 +0000";
layers = (
{
background = {
shapes = (
{
closed = 1;
nodes = (
(100,700,l),
(100,0,l),
(196,0,l),
(196,700,l,{
name = hr00;
})
);
},
{
closed = 1;
nodes = (
(251,876,o),
(235,870,o),
(216,870,cs),
(165,870,o),
(134,904,o),
(80,904,cs,{
name = hr01;
}),
(44,904,o),
(1,880,o),
(-24,822,c),
(33,794,l),
(45,817,o),
(61,823,o),
(80,823,cs),
(131,823,o),
(163,789,o),
(216,789,cs,{
name = hr02;
}),
(253,789,o),
(296,813,o),
(321,871,c),
(264,899,l)
);
}
);
};
layerId = master01;
shapes = (
{
ref = I;
},
{
pos = (-130,0);
ref = tildecomb.case;
}
);
width = 296;
}
);
unicode = 296;
},
{
glyphname = J;
lastChange = "2023-02-10 15:08:41 +0000";
layers = (
{
anchors = (
{
name = bottom;
pos = (213,0);
},
{
name = top;
pos = (284,700);
}
);
background = {
shapes = (
{
closed = 1;
nodes = (
(234,700,l),
(234,164,ls),
(234,91,o),
(202,63,o),
(156,63,cs),
(114,63,o),
(85,92,o),
(73,146,c),
(-10,118,l),
(19,23,o),
(78,-15,o),
(156,-15,cs),
(273,-15,o),
(330,42,o),
(330,199,cs),
(330,700,l,{
name = hr00;
})
);
}
);
};
layerId = master01;
shapes = (
{
closed = 1;
nodes = (
(273,-15,o),
(330,42,o),
(330,199,cs),
(330,700,l,{
name = hr00;
}),
(234,700,l),
(234,164,ls),
(234,91,o),
(202,63,o),
(156,63,cs),
(114,63,o),
(85,92,o),
(73,146,c),
(-10,118,l),
(19,23,o),
(78,-15,o),
(156,-15,cs)
);
}
);
width = 425;
}
);
unicode = 74;
},
{
glyphname = Jcircumflex;
lastChange = "2023-02-10 14:56:13 +0000";
layers = (
{
background = {
shapes = (
{
closed = 1;
nodes = (
(234,700,l),
(234,164,ls),
(234,91,o),
(202,63,o),
(156,63,cs),
(114,63,o),
(85,92,o),
(73,146,c),
(-10,118,l),
(19,23,o),
(78,-15,o),
(156,-15,cs),
(273,-15,o),
(330,42,o),
(330,199,cs),
(330,700,l,{
name = hr00;
})
);
},
{
closed = 1;
nodes = (
(271,940,l),
(120,808,l),
(157,757,l),
(284,846,l),
(411,757,l),
(448,808,l),
(297,940,l,{
name = hr00;
})
);
}
);
};
layerId = master01;
shapes = (
{
ref = J;
},
{
pos = (66,0);
ref = circumflexcomb.case;
}
);
width = 425;
}
);
unicode = 308;
},
{
glyphname = K;
lastChange = "2023-02-10 15:08:41 +0000";
layers = (
{
anchors = (
{
name = bottom;
pos = (311,0);
},
{
name = top;
pos = (281,700);
}
);
background = {
shapes = (
{
closed = 1;
nodes = (
(100,700,l),
(100,0,l),
(196,0,l),
(196,241,l),
(251,313,l),
(456,0,l),
(561,0,l),
(307,387,l),
(546,700,l),
(441,700,l),
(196,374,l),
(196,700,l,{
name = hr00;
})
);
}
);
};
layerId = master01;
shapes = (
{
closed = 1;
nodes = (
(196,0,l),
(196,241,l),
(251,313,l),
(456,0,l),
(561,0,l),
(307,387,l),
(546,700,l),
(441,700,l),
(196,374,l),
(196,700,l,{
name = hr00;
}),
(100,700,l),
(100,0,l)
);
}
);
width = 561;
}
);
unicode = 75;
},
{
glyphname = Kcommaaccent;
lastChange = "2023-02-10 15:08:41 +0000";
layers = (
{
background = {
shapes = (
{
closed = 1;
nodes = (
(100,700,l),
(100,0,l),
(196,0,l),
(196,241,l),
(251,313,l),
(456,0,l),
(561,0,l),
(307,387,l),
(546,700,l),
(441,700,l),
(196,374,l),
(196,700,l,{
name = hr00;
})
);
},
{
closed = 1;
nodes = (
(280,-226,o),
(264,-253,o),
(247,-273,c),
(289,-301,l),
(331,-256,o),
(373,-172,o),
(373,-112,cs),
(373,-69,o),
(347,-50,o),
(311,-50,cs),
(276,-50,o),
(250,-69,o),
(250,-112,cs),
(250,-154,o),
(280,-160,o),
(280,-201,cs,{
name = hr00;
})
);
}
);
};
layerId = master01;
shapes = (
{
ref = K;
},
{
pos = (176,0);
ref = commaaccentcomb;
}
);
width = 561;
}
);
unicode = 310;
},
{
glyphname = L;
kernRight = L;
lastChange = "2023-02-10 15:14:39 +0000";
layers = (
{
anchors = (
{
name = bottom;
pos = (265,0);
},
{
name = center;
pos = (225,350);
},
{
name = top;
pos = (155,700);
},
{
name = topright;
pos = (390,767);
}
);
background = {
shapes = (
{
closed = 1;
nodes = (
(440,78,l),
(196,78,l),
(196,700,l),
(100,700,l),
(100,0,l),
(440,0,l,{
name = hr00;
})
);
}
);
};
layerId = master01;
shapes = (
{
closed = 1;
nodes = (
(440,0,l,{
name = hr00;
}),
(440,78,l),
(196,78,l),
(196,700,l),
(100,700,l),
(100,0,l)
);
}
);
width = 450;
}
);
unicode = 76;
},
{
glyphname = Lacute;
kernRight = L;
lastChange = "2023-02-10 15:14:39 +0000";
layers = (
{
background = {
shapes = (
{
closed = 1;
nodes = (
(440,78,l),
(196,78,l),
(196,700,l),
(100,700,l),
(100,0,l),
(440,0,l,{
name = hr00;
})
);
},
{
closed = 1;
nodes = (
(64,757,l),
(279,867,l),
(238,940,l),
(32,815,l,{
name = hr00;
})
);
}
);
};
layerId = master01;
shapes = (
{
ref = L;
},
{
pos = (-71,0);
ref = acutecomb.case;
}
);
width = 450;
}
);
unicode = 313;
},
{
glyphname = Lcaron;
kernRight = L;
lastChange = "2023-02-10 15:14:39 +0000";
layers = (
{
background = {
shapes = (
{
closed = 1;
nodes = (
(440,78,l),
(196,78,l),
(196,700,l),
(100,700,l),
(100,0,l),
(440,0,l,{
name = hr00;
})
);
},
{
closed = 1;
nodes = (
(297,653,o),
(281,626,o),
(264,606,c),
(306,578,l),
(348,623,o),
(390,707,o),
(390,767,cs),
(390,810,o),
(364,829,o),
(328,829,cs),
(293,829,o),
(267,810,o),
(267,767,cs),
(267,725,o),
(297,719,o),
(297,678,cs,{
name = hr00;
})
);
}
);
};
layerId = master01;
shapes = (
{
ref = L;
},
{
ref = caroncomb.alt;
}
);
width = 450;
}
);
unicode = 317;
},
{
glyphname = Lcommaaccent;
kernRight = L;
lastChange = "2023-02-10 15:14:39 +0000";
layers = (
{
background = {
shapes = (
{
closed = 1;
nodes = (
(440,78,l),
(196,78,l),
(196,700,l),
(100,700,l),
(100,0,l),
(440,0,l,{
name = hr00;
})
);
},
{
closed = 1;
nodes = (
(235,-226,o),
(219,-253,o),
(202,-273,c),
(244,-301,l),
(286,-256,o),
(328,-172,o),
(328,-112,cs),
(328,-69,o),
(302,-50,o),
(266,-50,cs),
(231,-50,o),
(205,-69,o),
(205,-112,cs),
(205,-154,o),
(235,-160,o),
(235,-201,cs,{
name = hr00;
})
);
}
);
};
layerId = master01;
shapes = (
{
ref = L;
},
{
pos = (130,0);
ref = commaaccentcomb;
}
);
width = 450;
}
);
unicode = 315;
},
{
glyphname = Ldot;
kernRight = L;
lastChange = "2023-02-10 15:14:39 +0000";
layers = (
{
background = {
shapes = (
{
closed = 1;
nodes = (
(440,78,l),
(196,78,l),
(196,700,l),
(100,700,l),
(100,0,l),
(440,0,l,{
name = hr00;
})
);
},
{
closed = 1;
nodes = (
(261,334,o),
(289,313,o),
(327,313,cs),
(366,313,o),
(394,334,o),
(394,381,cs),
(394,428,o),
(366,449,o),
(327,449,cs),
(289,449,o),
(261,428,o),
(261,381,cs,{
name = hr00;
})
);
}
);
};
layerId = master01;
shapes = (
{
ref = L;
},
{
pos = (161,80);
ref = periodcentered;
}
);
width = 450;
}
);
unicode = 319;
},
{
glyphname = Lslash;
kernRight = L;
lastChange = "2023-02-10 15:14:39 +0000";
layers = (
{
background = {
shapes = (
{
closed = 1;
nodes = (
(440,78,l),
(196,78,l),
(196,700,l),
(100,700,l),
(100,0,l),
(440,0,l,{
name = hr00;
})
);
},
{
closed = 1;
nodes = (
(304,400,l),
(274,458,l),
(-8,314,l),
(22,256,l,{
name = hr00;
})
);
}
);
};
layerId = master01;
shapes = (
{
closed = 1;
nodes = (
(304,400,l),
(274,458,l),
(-8,314,l),
(22,256,l,{
name = hr00;
})
);
},
{
alignment = -1;
ref = L;
}
);
width = 450;
}
);
unicode = 321;
},
{
glyphname = M;
lastChange = "2023-02-10 15:08:41 +0000";
layers = (
{
anchors = (
{
name = bottom;
pos = (409,0);
},
{
name = top;
pos = (409,700);
}
);
background = {
shapes = (
{
closed = 1;
nodes = (
(718,0,l),
(718,700,l),
(582,700,l),
(409,227,l),
(236,700,l),
(100,700,l),
(100,0,l),
(196,0,l),
(196,580,l),
(372,100,l),
(446,100,l),
(622,580,l),
(622,0,l,{
name = hr00;
})
);
}
);
};
layerId = master01;
shapes = (
{
closed = 1;
nodes = (
(196,0,l),
(196,580,l),
(372,100,l),
(446,100,l),
(622,580,l),
(622,0,l,{
name = hr00;
}),
(718,0,l),
(718,700,l),
(582,700,l),
(409,227,l),
(236,700,l),
(100,700,l),
(100,0,l)
);
}
);
width = 818;
}
);
unicode = 77;
},
{
glyphname = N;
lastChange = "2023-02-10 15:08:41 +0000";
layers = (
{
anchors = (
{
name = bottom;
pos = (348,0);
},
{
name = top;
pos = (348,700);
}
);
background = {
shapes = (
{
closed = 1;
nodes = (
(500,700,l),
(500,122,l),
(236,700,l),
(100,700,l),
(100,0,l),
(196,0,l),
(196,577,l),
(460,0,l),
(596,0,l),
(596,700,l,{
name = hr00;
})
);
}
);
};
layerId = master01;
shapes = (
{
closed = 1;
nodes = (
(196,0,l),
(196,577,l),
(460,0,l),
(596,0,l),
(596,700,l,{
name = hr00;
}),
(500,700,l),
(500,122,l),
(236,700,l),
(100,700,l),
(100,0,l)
);
}
);
width = 696;
}
);
unicode = 78;
},
{
glyphname = Nacute;
lastChange = "2023-02-10 15:08:41 +0000";
layers = (
{
background = {
shapes = (
{
closed = 1;
nodes = (
(500,700,l),
(500,122,l),
(236,700,l),
(100,700,l),
(100,0,l),
(196,0,l),
(196,577,l),
(460,0,l),
(596,0,l),
(596,700,l,{
name = hr00;
})
);
},
{
closed = 1;
nodes = (
(286,757,l),
(501,867,l),
(460,940,l),
(254,815,l,{
name = hr00;
})
);
}
);
};
layerId = master01;
shapes = (
{
ref = N;
},
{
pos = (122,0);
ref = acutecomb.case;
}
);
width = 696;
}
);
unicode = 323;
},
{
glyphname = Ncaron;
lastChange = "2023-02-10 15:08:41 +0000";
layers = (
{
background = {
shapes = (
{
closed = 1;
nodes = (
(500,700,l),
(500,122,l),
(236,700,l),
(100,700,l),
(100,0,l),
(196,0,l),
(196,577,l),
(460,0,l),
(596,0,l),
(596,700,l,{
name = hr00;
})
);
},
{
closed = 1;
nodes = (
(361,774,l),
(512,906,l),
(475,957,l),
(348,868,l),
(221,957,l),
(184,906,l),
(335,774,l,{
name = hr00;
})
);
}
);
};
layerId = master01;
shapes = (
{
ref = N;
},
{
pos = (130,0);
ref = caroncomb.case;
}
);
width = 696;
}
);
unicode = 327;
},
{
glyphname = Ncommaaccent;
lastChange = "2023-02-10 15:08:41 +0000";
layers = (
{
background = {
shapes = (
{
closed = 1;
nodes = (
(500,700,l),
(500,122,l),
(236,700,l),
(100,700,l),
(100,0,l),
(196,0,l),
(196,577,l),
(460,0,l),
(596,0,l),
(596,700,l,{
name = hr00;
})
);
},
{
closed = 1;
nodes = (
(318,-226,o),
(302,-253,o),
(285,-273,c),
(327,-301,l),
(369,-256,o),
(411,-172,o),
(411,-112,cs),
(411,-69,o),
(385,-50,o),
(349,-50,cs),
(314,-50,o),
(288,-69,o),
(288,-112,cs),
(288,-154,o),
(318,-160,o),
(318,-201,cs,{
name = hr00;
})
);
}
);
};
layerId = master01;
shapes = (
{
ref = N;
},
{
pos = (213,0);
ref = commaaccentcomb;
}
);
width = 696;
}
);
unicode = 325;
},
{
glyphname = Ntilde;
lastChange = "2023-02-10 15:08:41 +0000";
layers = (
{
background = {
shapes = (
{
closed = 1;
nodes = (
(500,700,l),
(500,122,l),
(236,700,l),
(100,700,l),
(100,0,l),
(196,0,l),
(196,577,l),
(460,0,l),
(596,0,l),
(596,700,l,{
name = hr00;
})
);
},
{
closed = 1;
nodes = (
(450,876,o),
(434,870,o),
(415,870,cs),
(364,870,o),
(333,904,o),
(279,904,cs,{
name = hr01;
}),
(243,904,o),
(200,880,o),
(175,822,c),
(232,794,l),
(244,817,o),
(260,823,o),
(279,823,cs),
(330,823,o),
(362,789,o),
(415,789,cs,{
name = hr02;
}),
(452,789,o),
(495,813,o),
(520,871,c),
(463,899,l)
);
}
);
};
layerId = master01;
shapes = (
{
ref = N;
},
{
pos = (70,0);
ref = tildecomb.case;
}
);
width = 696;
}
);
unicode = 209;
},
{
glyphname = Eng;
lastChange = "2023-02-10 15:08:41 +0000";
layers = (
{
anchors = (
{
name = bottom;
pos = (348,0);
},
{
name = top;
pos = (348,700);
}
);
background = {
shapes = (
{
closed = 1;
nodes = (
(500,700,l),
(500,198,l),
(236,700,l),
(100,700,l),
(100,0,l),
(196,0,l),
(196,577,l),
(500,2,l),
(500,-55,ls),
(500,-128,o),
(468,-156,o),
(422,-156,cs),
(380,-156,o),
(351,-127,o),
(339,-73,c),
(256,-101,l),
(285,-196,o),
(344,-234,o),
(422,-234,cs),
(539,-234,o),
(596,-177,o),
(596,-20,cs),
(596,700,l,{
name = hr00;
})
);
}
);
};
layerId = master01;
shapes = (
{
closed = 1;
nodes = (
(539,-234,o),
(596,-177,o),
(596,-20,cs),
(596,700,l,{
name = hr00;
}),
(500,700,l),
(500,198,l),
(236,700,l),
(100,700,l),
(100,0,l),
(196,0,l),
(196,577,l),
(500,2,l),
(500,-55,ls),
(500,-128,o),
(468,-156,o),
(422,-156,cs),
(380,-156,o),
(351,-127,o),
(339,-73,c),
(256,-101,l),
(285,-196,o),
(344,-234,o),
(422,-234,cs)
);
}
);
width = 696;
}
);
unicode = 330;
},
{
glyphname = O;
lastChange = "2023-02-10 15:08:41 +0000";
layers = (
{
anchors = (
{
name = bottom;
pos = (362,0);
},
{
name = center;
pos = (362,350);
},
{
name = ogonek;
pos = (652,10);
},
{
name = top;
pos = (362,700);
},
{
name = topleft;
pos = (20,700);
},
{
name = topright;
pos = (704,700);
}
);
background = {
shapes = (
{
closed = 1;
nodes = (
(70,109,o),
(195,-15,o),
(361,-15,cs),
(526,-15,o),
(654,109,o),
(654,351,cs),
(654,591,o),
(526,715,o),
(361,715,cs),
(195,715,o),
(70,591,o),
(70,351,cs,{
name = hr00;
})
);
},
{
closed = 1;
nodes = (
(170,545,o),
(249,637,o),
(361,637,cs),
(475,637,o),
(554,545,o),
(554,351,cs),
(554,155,o),
(475,63,o),
(361,63,cs),
(249,63,o),
(170,155,o),
(170,351,cs)
);
}
);
};
layerId = master01;
shapes = (
{
closed = 1;
nodes = (
(526,-15,o),
(654,109,o),
(654,351,cs),
(654,591,o),
(526,715,o),
(361,715,cs),
(195,715,o),
(70,591,o),
(70,351,cs,{
name = hr00;
}),
(70,109,o),
(195,-15,o),
(361,-15,cs)
);
},
{
closed = 1;
nodes = (
(249,63,o),
(170,155,o),
(170,351,cs),
(170,545,o),
(249,637,o),
(361,637,cs),
(475,637,o),
(554,545,o),
(554,351,cs),
(554,155,o),
(475,63,o),
(361,63,cs)
);
}
);
width = 724;
}
);
unicode = 79;
},
{
glyphname = Oacute;
lastChange = "2023-02-10 15:08:41 +0000";
layers = (
{
background = {
shapes = (
{
closed = 1;
nodes = (
(70,109,o),
(195,-15,o),
(361,-15,cs),
(526,-15,o),
(654,109,o),
(654,351,cs),
(654,591,o),
(526,715,o),
(361,715,cs),
(195,715,o),
(70,591,o),
(70,351,cs,{
name = hr00;
})
);
},
{
closed = 1;
nodes = (
(170,545,o),
(249,637,o),
(361,637,cs),
(475,637,o),
(554,545,o),
(554,351,cs),
(554,155,o),
(475,63,o),
(361,63,cs),
(249,63,o),
(170,155,o),
(170,351,cs)
);
},
{
closed = 1;
nodes = (
(270,757,l),
(485,867,l),
(444,940,l),
(238,815,l,{
name = hr00;
})
);
}
);
};
layerId = master01;
shapes = (
{
ref = O;
},
{
pos = (136,0);
ref = acutecomb.case;
}
);
width = 724;
}
);
unicode = 211;
},
{
glyphname = Obreve;
lastChange = "2023-02-10 14:53:58 +0000";
layers = (
{
background = {
shapes = (
{
closed = 1;
nodes = (
(70,109,o),
(195,-15,o),
(361,-15,cs),
(526,-15,o),
(654,109,o),
(654,351,cs),
(654,591,o),
(526,715,o),
(361,715,cs),
(195,715,o),
(70,591,o),
(70,351,cs,{
name = hr00;
})
);
},
{
closed = 1;
nodes = (
(170,545,o),
(249,637,o),
(361,637,cs),
(475,637,o),
(554,545,o),
(554,351,cs),
(554,155,o),
(475,63,o),
(361,63,cs),
(249,63,o),
(170,155,o),
(170,351,cs)
);
},
{
closed = 1;
nodes = (
(443,899,o),
(416,843,o),
(365,843,cs),
(312,843,o),
(286,894,o),
(260,930,c),
(203,903,l),
(238,828,o),
(288,759,o),
(361,759,cs),
(436,759,o),
(486,829,o),
(521,903,c),
(464,930,l,{
name = hr00;
})
);
}
);
};
layerId = master01;
shapes = (
{
ref = O;
},
{
pos = (144,0);
ref = brevecomb.case;
}
);
width = 724;
}
);
unicode = 334;
},
{
glyphname = Ocircumflex;
lastChange = "2023-02-10 15:08:41 +0000";
layers = (
{
background = {
shapes = (
{
closed = 1;
nodes = (
(70,109,o),
(195,-15,o),
(361,-15,cs),
(526,-15,o),
(654,109,o),
(654,351,cs),
(654,591,o),
(526,715,o),
(361,715,cs),
(195,715,o),
(70,591,o),
(70,351,cs,{
name = hr00;
})
);
},
{
closed = 1;
nodes = (
(170,545,o),
(249,637,o),
(361,637,cs),
(475,637,o),
(554,545,o),
(554,351,cs),
(554,155,o),
(475,63,o),
(361,63,cs),
(249,63,o),
(170,155,o),
(170,351,cs)
);
},
{
closed = 1;
nodes = (
(349,940,l),
(198,808,l),
(235,757,l),
(362,846,l),
(489,757,l),
(526,808,l),
(375,940,l,{
name = hr00;
})
);
}
);
};
layerId = master01;
shapes = (
{
ref = O;
},
{
pos = (144,0);
ref = circumflexcomb.case;
}
);
width = 724;
}
);
unicode = 212;
},
{
glyphname = Odieresis;
lastChange = "2023-02-10 15:08:41 +0000";
layers = (
{
background = {
shapes = (
{
closed = 1;
nodes = (
(70,109,o),
(195,-15,o),
(361,-15,cs),
(526,-15,o),
(654,109,o),
(654,351,cs),
(654,591,o),
(526,715,o),
(361,715,cs),
(195,715,o),
(70,591,o),
(70,351,cs,{
name = hr00;
})
);
},
{
closed = 1;
nodes = (
(170,545,o),
(249,637,o),
(361,637,cs),
(475,637,o),
(554,545,o),
(554,351,cs),
(554,155,o),
(475,63,o),
(361,63,cs),
(249,63,o),
(170,155,o),
(170,351,cs)
);
},
{
closed = 1;
nodes = (
(210,807,o),
(235,788,o),
(267,788,cs),
(300,788,o),
(325,807,o),
(325,847,cs),
(325,887,o),
(300,906,o),
(267,906,cs),
(235,906,o),
(210,887,o),
(210,847,c,{
name = hr00;
})
);
},
{
closed = 1;
nodes = (
(399,807,o),
(424,788,o),
(456,788,cs),
(489,788,o),
(514,807,o),
(514,847,cs),
(514,887,o),
(489,906,o),
(456,906,cs),
(424,906,o),
(399,887,o),
(399,847,c)
);
}
);
};
layerId = master01;
shapes = (
{
ref = O;
},
{
pos = (214,0);
ref = dieresiscomb.case;
}
);
width = 724;
}
);
unicode = 214;
},
{
glyphname = Ograve;
lastChange = "2023-02-10 15:08:41 +0000";
layers = (
{
background = {
shapes = (
{
closed = 1;
nodes = (
(70,109,o),
(195,-15,o),
(361,-15,cs),
(526,-15,o),
(654,109,o),
(654,351,cs),
(654,591,o),
(526,715,o),
(361,715,cs),
(195,715,o),
(70,591,o),
(70,351,cs,{
name = hr00;
})
);
},
{
closed = 1;
nodes = (
(170,545,o),
(249,637,o),
(361,637,cs),
(475,637,o),
(554,545,o),
(554,351,cs),
(554,155,o),
(475,63,o),
(361,63,cs),
(249,63,o),
(170,155,o),
(170,351,cs)
);
},
{
closed = 1;
nodes = (
(238,867,l),
(453,757,l),
(485,815,l),
(279,940,l,{
name = hr00;
})
);
}
);
};
layerId = master01;
shapes = (
{
ref = O;
},
{
pos = (118,0);
ref = gravecomb.case;
}
);
width = 724;
}
);
unicode = 210;
},
{
glyphname = Ohungarumlaut;
lastChange = "2023-02-10 15:08:41 +0000";
layers = (
{
background = {
shapes = (
{
closed = 1;
nodes = (
(70,109,o),
(195,-15,o),
(361,-15,cs),
(526,-15,o),
(654,109,o),
(654,351,cs),
(654,591,o),
(526,715,o),
(361,715,cs),
(195,715,o),
(70,591,o),
(70,351,cs,{
name = hr00;
})
);
},
{
closed = 1;
nodes = (
(170,545,o),
(249,637,o),
(361,637,cs),
(475,637,o),
(554,545,o),
(554,351,cs),
(554,155,o),
(475,63,o),
(361,63,cs),
(249,63,o),
(170,155,o),
(170,351,cs)
);
},
{
closed = 1;
nodes = (
(223,777,l),
(398,887,l),
(348,960,l),
(186,828,l,{
name = hr00;
})
);
},
{
closed = 1;
nodes = (
(442,777,l),
(617,887,l),
(567,960,l),
(405,828,l)
);
}
);
};
layerId = master01;
shapes = (
{
ref = O;
},
{
pos = (175,0);
ref = hungarumlautcomb.case;
}
);
width = 724;
}
);
unicode = 336;
},
{
glyphname = Omacron;
lastChange = "2023-02-10 15:08:41 +0000";
layers = (
{
background = {
shapes = (
{
closed = 1;
nodes = (
(70,109,o),
(195,-15,o),
(361,-15,cs),
(526,-15,o),
(654,109,o),
(654,351,cs),
(654,591,o),
(526,715,o),
(361,715,cs),
(195,715,o),
(70,591,o),
(70,351,cs,{
name = hr00;
})
);
},
{
closed = 1;
nodes = (
(170,545,o),
(249,637,o),
(361,637,cs),
(475,637,o),
(554,545,o),
(554,351,cs),
(554,155,o),
(475,63,o),
(361,63,cs),
(249,63,o),
(170,155,o),
(170,351,cs)
);
},
{
closed = 1;
nodes = (
(506,809,l),
(506,884,l),
(217,884,l),
(217,809,l,{
name = hr00;
})
);
}
);
};
layerId = master01;
shapes = (
{
ref = O;
},
{
pos = (84,0);
ref = macroncomb.case;
}
);
width = 724;
}
);
unicode = 332;
},
{
glyphname = Oslash;
lastChange = "2023-02-10 15:08:41 +0000";
layers = (
{
background = {
shapes = (
{
closed = 1;
nodes = (
(70,109,o),
(195,-15,o),
(361,-15,cs),
(526,-15,o),
(654,109,o),
(654,351,cs),
(654,591,o),
(526,715,o),
(361,715,cs),
(195,715,o),
(70,591,o),
(70,351,cs,{
name = hr00;
})
);
},
{
closed = 1;
nodes = (
(170,545,o),
(249,637,o),
(361,637,cs),
(475,637,o),
(554,545,o),
(554,351,cs),
(554,155,o),
(475,63,o),
(361,63,cs),
(249,63,o),
(170,155,o),
(170,351,cs)
);
},
{
closed = 1;
nodes = (
(457,755,l),
(201,-55,l),
(266,-55,l),
(523,755,l,{
name = hr00;
})
);
}
);
};
layerId = master01;
shapes = (
{
alignment = -1;
ref = O;
},
{
alignment = -1;
pos = (171,0);
ref = "thin-slash";
}
);
width = 724;
}
);
unicode = 216;
},
{
glyphname = Oslashacute;
lastChange = "2023-02-10 14:53:58 +0000";
layers = (
{
background = {
shapes = (
{
closed = 1;
nodes = (
(300,757,l),
(515,867,l),
(474,940,l),
(268,815,l,{
name = hr00;
})
);
},
{
closed = 1;
nodes = (
(70,109,o),
(195,-15,o),
(361,-15,cs),
(526,-15,o),
(654,109,o),
(654,351,cs),
(654,591,o),
(526,715,o),
(361,715,cs),
(195,715,o),
(70,591,o),
(70,351,cs,{
name = hr00;
})
);
},
{
closed = 1;
nodes = (
(170,545,o),
(249,637,o),
(361,637,cs),
(475,637,o),
(554,545,o),
(554,351,cs),
(554,155,o),
(475,63,o),
(361,63,cs),
(249,63,o),
(170,155,o),
(170,351,cs)
);
},
{
closed = 1;
nodes = (
(457,755,l),
(201,-55,l),
(266,-55,l),
(523,755,l,{
name = hr00;
})
);
}
);
};
layerId = master01;
shapes = (
{
ref = Oslash;
},
{
pos = (136,0);
ref = acutecomb.case;
}
);
width = 724;
}
);
unicode = 510;
},
{
glyphname = Otilde;
lastChange = "2023-02-10 15:08:41 +0000";
layers = (
{
background = {
shapes = (
{
closed = 1;
nodes = (
(70,109,o),
(195,-15,o),
(361,-15,cs),
(526,-15,o),
(654,109,o),
(654,351,cs),
(654,591,o),
(526,715,o),
(361,715,cs),
(195,715,o),
(70,591,o),
(70,351,cs,{
name = hr00;
})
);
},
{
closed = 1;
nodes = (
(170,545,o),
(249,637,o),
(361,637,cs),
(475,637,o),
(554,545,o),
(554,351,cs),
(554,155,o),
(475,63,o),
(361,63,cs),
(249,63,o),
(170,155,o),
(170,351,cs)
);
},
{
closed = 1;
nodes = (
(464,876,o),
(448,870,o),
(429,870,cs),
(378,870,o),
(347,904,o),
(293,904,cs,{
name = hr01;
}),
(257,904,o),
(214,880,o),
(189,822,c),
(246,794,l),
(258,817,o),
(274,823,o),
(293,823,cs),
(344,823,o),
(376,789,o),
(429,789,cs,{
name = hr02;
}),
(466,789,o),
(509,813,o),
(534,871,c),
(477,899,l)
);
}
);
};
layerId = master01;
shapes = (
{
ref = O;
},
{
pos = (84,0);
ref = tildecomb.case;
}
);
width = 724;
}
);
unicode = 213;
},
{
glyphname = OE;
lastChange = "2023-02-10 15:08:41 +0000";
layers = (
{
background = {
shapes = (
{
closed = 1;
nodes = (
(365,78,ls),
(252,78,o),
(170,166,o),
(170,351,cs),
(170,536,o),
(251,622,o),
(362,622,cs),
(488,622,l),
(488,700,l),
(359,700,ls),
(195,700,o),
(70,582,o),
(70,351,cs),
(70,120,o),
(192,0,o),
(361,0,cs),
(488,0,l),
(488,78,l,{
name = hr00;
})
);
},
{
closed = 1;
nodes = (
(451,700,l),
(451,0,l),
(841,0,l),
(841,78,l),
(547,78,l),
(547,311,l),
(811,311,l),
(811,389,l),
(547,389,l),
(547,622,l),
(841,622,l),
(841,700,l,{
name = hr00;
})
);
}
);
};
layerId = master01;
shapes = (
{
closed = 1;
nodes = (
(488,0,l),
(488,78,l,{
name = hr00;
}),
(365,78,ls),
(252,78,o),
(170,166,o),
(170,351,cs),
(170,536,o),
(251,622,o),
(362,622,cs),
(488,622,l),
(488,700,l),
(359,700,ls),
(195,700,o),
(70,582,o),
(70,351,cs),
(70,120,o),
(192,0,o),
(361,0,cs)
);
},
{
pos = (351,0);
ref = E;
}
);
width = 906;
}
);
unicode = 338;
},
{
glyphname = P;
lastChange = "2023-02-10 15:08:41 +0000";
layers = (
{
anchors = (
{
name = bottom;
pos = (286,0);
},
{
name = top;
pos = (286,700);
}
);
background = {
shapes = (
{
closed = 1;
nodes = (
(100,700,l),
(100,0,l),
(196,0,l),
(196,261,l),
(302,261,ls),
(462,261,o),
(541,352,o),
(541,480,cs),
(541,606,o),
(462,700,o),
(302,700,c,{
name = hr00;
})
);
},
{
closed = 1;
nodes = (
(416,622,o),
(448,548,o),
(448,480,cs),
(448,412,o),
(416,339,o),
(302,339,cs),
(196,339,l),
(196,622,l),
(302,622,ls)
);
}
);
};
layerId = master01;
shapes = (
{
closed = 1;
nodes = (
(196,0,l),
(196,261,l),
(302,261,ls),
(462,261,o),
(541,352,o),
(541,480,cs),
(541,606,o),
(462,700,o),
(302,700,c,{
name = hr00;
}),
(100,700,l),
(100,0,l)
);
},
{
closed = 1;
nodes = (
(196,622,l),
(302,622,ls),
(416,622,o),
(448,548,o),
(448,480,cs),
(448,412,o),
(416,339,o),
(302,339,cs),
(196,339,l)
);
}
);
width = 571;
}
);
unicode = 80;
},
{
glyphname = Thorn;
lastChange = "2023-02-10 15:08:41 +0000";
layers = (
{
anchors = (
{
name = bottom;
pos = (286,0);
},
{
name = top;
pos = (286,700);
}
);
background = {
shapes = (
{
closed = 1;
nodes = (
(100,700,l),
(100,0,l),
(196,0,l),
(196,130,l),
(302,130,ls),
(462,130,o),
(541,221,o),
(541,349,cs),
(541,475,o),
(462,570,o),
(302,570,cs),
(196,570,l),
(196,700,l,{
name = hr00;
})
);
},
{
closed = 1;
nodes = (
(416,492,o),
(448,417,o),
(448,349,cs),
(448,281,o),
(416,208,o),
(302,208,cs),
(196,208,l),
(196,492,l),
(302,492,ls)
);
}
);
};
layerId = master01;
shapes = (
{
closed = 1;
nodes = (
(196,0,l),
(196,130,l),
(302,130,ls),
(462,130,o),
(541,221,o),
(541,349,cs),
(541,475,o),
(462,570,o),
(302,570,cs),
(196,570,l),
(196,700,l,{
name = hr00;
}),
(100,700,l),
(100,0,l)
);
},
{
closed = 1;
nodes = (
(196,492,l),
(302,492,ls),
(416,492,o),
(448,417,o),
(448,349,cs),
(448,281,o),
(416,208,o),
(302,208,cs),
(196,208,l)
);
}
);
width = 571;
}
);
unicode = 222;
},
{
glyphname = Q;
lastChange = "2023-02-10 15:08:41 +0000";
layers = (
{
background = {
shapes = (
{
closed = 1;
nodes = (
(546,-8,o),
(460,30,o),
(361,30,c),
(361,-15,l),
(402,-15,o),
(464,-69,o),
(464,-153,c),
(488,-153,l),
(546,-129,l,{
name = hr00;
})
);
},
{
closed = 1;
nodes = (
(70,109,o),
(195,-15,o),
(361,-15,cs),
(526,-15,o),
(654,109,o),
(654,351,cs),
(654,591,o),
(526,715,o),
(361,715,cs),
(195,715,o),
(70,591,o),
(70,351,cs,{
name = hr00;
})
);
},
{
closed = 1;
nodes = (
(170,545,o),
(249,637,o),
(361,637,cs),
(475,637,o),
(554,545,o),
(554,351,cs),
(554,155,o),
(475,63,o),
(361,63,cs),
(249,63,o),
(170,155,o),
(170,351,cs)
);
}
);
};
layerId = master01;
shapes = (
{
closed = 1;
nodes = (
(488,-153,l),
(546,-129,l,{
name = hr00;
}),
(546,-8,o),
(460,30,o),
(361,30,c),
(361,-15,l),
(402,-15,o),
(464,-69,o),
(464,-153,c)
);
},
{
ref = O;
}
);
width = 724;
}
);
unicode = 81;
},
{
glyphname = R;
lastChange = "2023-02-10 15:08:41 +0000";
layers = (
{
anchors = (
{
name = bottom;
pos = (326,0);
},
{
name = top;
pos = (312,700);
}
);
background = {
shapes = (
{
closed = 1;
nodes = (
(581,0,l),
(456,258,ls),
(448,274,o),
(438,292,o),
(419,305,c),
(500,337,o),
(541,404,o),
(541,490,cs),
(541,607,o),
(462,700,o),
(302,700,cs),
(100,700,l),
(100,0,l),
(196,0,l),
(196,286,l),
(302,286,l),
(303,286,l),
(330,286,o),
(349,277,o),
(365,242,cs),
(476,0,l,{
name = hr00;
})
);
},
{
closed = 1;
nodes = (
(416,622,o),
(448,555,o),
(448,493,cs),
(448,430,o),
(416,364,o),
(302,364,cs),
(196,364,l),
(196,622,l),
(302,622,ls)
);
}
);
};
layerId = master01;
shapes = (
{
closed = 1;
nodes = (
(196,0,l),
(196,286,l),
(302,286,l),
(303,286,l),
(330,286,o),
(349,277,o),
(365,242,cs),
(476,0,l,{
name = hr00;
}),
(581,0,l),
(456,258,ls),
(448,274,o),
(438,292,o),
(419,305,c),
(500,337,o),
(541,404,o),
(541,490,cs),
(541,607,o),
(462,700,o),
(302,700,cs),
(100,700,l),
(100,0,l)
);
},
{
closed = 1;
nodes = (
(196,622,l),
(302,622,ls),
(416,622,o),
(448,555,o),
(448,493,cs),
(448,430,o),
(416,364,o),
(302,364,cs),
(196,364,l)
);
}
);
width = 611;
}
);
unicode = 82;
},
{
glyphname = Racute;
lastChange = "2023-02-10 15:08:41 +0000";
layers = (
{
background = {
shapes = (
{
closed = 1;
nodes = (
(581,0,l),
(456,258,ls),
(448,274,o),
(438,292,o),
(419,305,c),
(500,337,o),
(541,404,o),
(541,490,cs),
(541,607,o),
(462,700,o),
(302,700,cs),
(100,700,l),
(100,0,l),
(196,0,l),
(196,286,l),
(302,286,l),
(303,286,l),
(330,286,o),
(349,277,o),
(365,242,cs),
(476,0,l,{
name = hr00;
})
);
},
{
closed = 1;
nodes = (
(416,622,o),
(448,555,o),
(448,493,cs),
(448,430,o),
(416,364,o),
(302,364,cs),
(196,364,l),
(196,622,l),
(302,622,ls)
);
},
{
closed = 1;
nodes = (
(234,757,l),
(449,867,l),
(408,940,l),
(202,815,l,{
name = hr00;
})
);
}
);
};
layerId = master01;
shapes = (
{
ref = R;
},
{
pos = (86,0);
ref = acutecomb.case;
}
);
width = 611;
}
);
unicode = 340;
},
{
glyphname = Rcaron;
lastChange = "2023-02-10 15:08:41 +0000";
layers = (
{
background = {
shapes = (
{
closed = 1;
nodes = (
(581,0,l),
(456,258,ls),
(448,274,o),
(438,292,o),
(419,305,c),
(500,337,o),
(541,404,o),
(541,490,cs),
(541,607,o),
(462,700,o),
(302,700,cs),
(100,700,l),
(100,0,l),
(196,0,l),
(196,286,l),
(302,286,l),
(303,286,l),
(330,286,o),
(349,277,o),
(365,242,cs),
(476,0,l,{
name = hr00;
})
);
},
{
closed = 1;
nodes = (
(416,622,o),
(448,555,o),
(448,493,cs),
(448,430,o),
(416,364,o),
(302,364,cs),
(196,364,l),
(196,622,l),
(302,622,ls)
);
},
{
closed = 1;
nodes = (
(318,774,l),
(469,906,l),
(432,957,l),
(305,868,l),
(178,957,l),
(141,906,l),
(292,774,l,{
name = hr00;
})
);
}
);
};
layerId = master01;
shapes = (
{
ref = R;
},
{
pos = (94,0);
ref = caroncomb.case;
}
);
width = 611;
}
);
unicode = 344;
},
{
glyphname = Rcommaaccent;
lastChange = "2023-02-10 15:08:41 +0000";
layers = (
{
background = {
shapes = (
{
closed = 1;
nodes = (
(581,0,l),
(456,258,ls),
(448,274,o),
(438,292,o),
(419,305,c),
(500,337,o),
(541,404,o),
(541,490,cs),
(541,607,o),
(462,700,o),
(302,700,cs),
(100,700,l),
(100,0,l),
(196,0,l),
(196,286,l),
(302,286,l),
(303,286,l),
(330,286,o),
(349,277,o),
(365,242,cs),
(476,0,l,{
name = hr00;
})
);
},
{
closed = 1;
nodes = (
(416,622,o),
(448,555,o),
(448,493,cs),
(448,430,o),
(416,364,o),
(302,364,cs),
(196,364,l),
(196,622,l),
(302,622,ls)
);
},
{
closed = 1;
nodes = (
(295,-226,o),
(279,-253,o),
(262,-273,c),
(304,-301,l),
(346,-256,o),
(388,-172,o),
(388,-112,cs),
(388,-69,o),
(362,-50,o),
(326,-50,cs),
(291,-50,o),
(265,-69,o),
(265,-112,cs),
(265,-154,o),
(295,-160,o),
(295,-201,cs,{
name = hr00;
})
);
}
);
};
layerId = master01;
shapes = (
{
ref = R;
},
{
pos = (191,0);
ref = commaaccentcomb;
}
);
width = 611;
}
);
unicode = 342;
},
{
glyphname = S;
lastChange = "2023-02-10 15:08:41 +0000";
layers = (
{
anchors = (
{
name = bottom;
pos = (273,0);
},
{
name = top;
pos = (293,700);
}
);
background = {
shapes = (
{
closed = 1;
nodes = (
(418,106,o),
(364,63,o),
(290,63,cs),
(211,63,o),
(158,108,o),
(134,202,c),
(48,171,l),
(81,39,o),
(163,-15,o),
(281,-15,cs),
(456,-15,o),
(514,99,o),
(514,182,cs),
(514,406,o),
(165,371,o),
(165,535,cs),
(165,599,o),
(212,637,o),
(279,637,cs),
(352,637,o),
(401,597,o),
(423,532,c),
(510,563,l),
(478,671,o),
(402,715,o),
(292,715,cs),
(125,715,o),
(69,607,o),
(69,527,cs),
(69,282,o),
(418,325,o),
(418,163,cs,{
name = hr00;
})
);
}
);
};
layerId = master01;
shapes = (
{
closed = 1;
nodes = (
(456,-15,o),
(514,99,o),
(514,182,cs),
(514,406,o),
(165,371,o),
(165,535,cs),
(165,599,o),
(212,637,o),
(279,637,cs),
(352,637,o),
(401,597,o),
(423,532,c),
(510,563,l),
(478,671,o),
(402,715,o),
(292,715,cs),
(125,715,o),
(69,607,o),
(69,527,cs),
(69,282,o),
(418,325,o),
(418,163,cs,{
name = hr00;
}),
(418,106,o),
(364,63,o),
(290,63,cs),
(211,63,o),
(158,108,o),
(134,202,c),
(48,171,l),
(81,39,o),
(163,-15,o),
(281,-15,cs)
);
}
);
width = 566;
}
);
unicode = 83;
},
{
glyphname = Sacute;
lastChange = "2023-02-10 15:08:41 +0000";
layers = (
{
background = {
shapes = (
{
closed = 1;
nodes = (
(418,106,o),
(364,63,o),
(290,63,cs),
(211,63,o),
(158,108,o),
(134,202,c),
(48,171,l),
(81,39,o),
(163,-15,o),
(281,-15,cs),
(456,-15,o),
(514,99,o),
(514,182,cs),
(514,406,o),
(165,371,o),
(165,535,cs),
(165,599,o),
(212,637,o),
(279,637,cs),
(352,637,o),
(401,597,o),
(423,532,c),
(510,563,l),
(478,671,o),
(402,715,o),
(292,715,cs),
(125,715,o),
(69,607,o),
(69,527,cs),
(69,282,o),
(418,325,o),
(418,163,cs,{
name = hr00;
})
);
},
{
closed = 1;
nodes = (
(201,757,l),
(416,867,l),
(375,940,l),
(169,815,l,{
name = hr00;
})
);
}
);
};
layerId = master01;
shapes = (
{
ref = S;
},
{
pos = (67,0);
ref = acutecomb.case;
}
);
width = 566;
}
);
unicode = 346;
},
{
glyphname = Scaron;
lastChange = "2023-02-10 15:08:41 +0000";
layers = (
{
background = {
shapes = (
{
closed = 1;
nodes = (
(418,106,o),
(364,63,o),
(290,63,cs),
(211,63,o),
(158,108,o),
(134,202,c),
(48,171,l),
(81,39,o),
(163,-15,o),
(281,-15,cs),
(456,-15,o),
(514,99,o),
(514,182,cs),
(514,406,o),
(165,371,o),
(165,535,cs),
(165,599,o),
(212,637,o),
(279,637,cs),
(352,637,o),
(401,597,o),
(423,532,c),
(510,563,l),
(478,671,o),
(402,715,o),
(292,715,cs),
(125,715,o),
(69,607,o),
(69,527,cs),
(69,282,o),
(418,325,o),
(418,163,cs,{
name = hr00;
})
);
},
{
closed = 1;
nodes = (
(311,754,l),
(462,886,l),
(425,937,l),
(298,848,l),
(171,937,l),
(134,886,l),
(285,754,l,{
name = hr00;
})
);
}
);
};
layerId = master01;
shapes = (
{
ref = S;
},
{
pos = (75,0);
ref = caroncomb.case;
}
);
width = 566;
}
);
unicode = 352;
},
{
glyphname = Scedilla;
lastChange = "2023-02-10 15:08:41 +0000";
layers = (
{
background = {
shapes = (
{
closed = 1;
nodes = (
(418,106,o),
(364,63,o),
(290,63,cs),
(211,63,o),
(158,108,o),
(134,202,c),
(48,171,l),
(81,39,o),
(163,-15,o),
(281,-15,cs),
(456,-15,o),
(514,99,o),
(514,182,cs),
(514,406,o),
(165,371,o),
(165,535,cs),
(165,599,o),
(212,637,o),
(279,637,cs),
(352,637,o),
(401,597,o),
(423,532,c),
(510,563,l),
(478,671,o),
(402,715,o),
(292,715,cs),
(125,715,o),
(69,607,o),
(69,527,cs),
(69,282,o),
(418,325,o),
(418,163,cs,{
name = hr00;
})
);
},
{
closed = 1;
nodes = (
(172,-188,o),
(212,-210,o),
(260,-210,cs),
(337,-210,o),
(381,-158,o),
(381,-101,cs),
(381,-48,o),
(341,0,o),
(259,27,c),
(243,-6,l),
(282,-26,o),
(299,-58,o),
(299,-85,cs),
(299,-124,o),
(273,-139,o),
(243,-139,cs),
(219,-139,o),
(193,-130,o),
(173,-116,c),
(145,-169,l,{
name = hr00;
})
);
}
);
};
layerId = master01;
shapes = (
{
ref = S;
},
{
pos = (10,0);
ref = cedillacomb;
}
);
width = 566;
}
);
unicode = 350;
},
{
glyphname = Scircumflex;
lastChange = "2023-02-10 14:59:55 +0000";
layers = (
{
background = {
shapes = (
{
closed = 1;
nodes = (
(418,106,o),
(364,63,o),
(290,63,cs),
(211,63,o),
(158,108,o),
(134,202,c),
(48,171,l),
(81,39,o),
(163,-15,o),
(281,-15,cs),
(456,-15,o),
(514,99,o),
(514,182,cs),
(514,406,o),
(165,371,o),
(165,535,cs),
(165,599,o),
(212,637,o),
(279,637,cs),
(352,637,o),
(401,597,o),
(423,532,c),
(510,563,l),
(478,671,o),
(402,715,o),
(292,715,cs),
(125,715,o),
(69,607,o),
(69,527,cs),
(69,282,o),
(418,325,o),
(418,163,cs,{
name = hr00;
})
);
},
{
closed = 1;
nodes = (
(280,940,l),
(129,808,l),
(166,757,l),
(293,846,l),
(420,757,l),
(457,808,l),
(306,940,l,{
name = hr00;
})
);
}
);
};
layerId = master01;
shapes = (
{
ref = S;
},
{
pos = (75,0);
ref = circumflexcomb.case;
}
);
width = 566;
}
);
unicode = 348;
},
{
glyphname = Scommaaccent;
lastChange = "2023-02-10 15:08:41 +0000";
layers = (
{
background = {
shapes = (
{
closed = 1;
nodes = (
(418,106,o),
(364,63,o),
(290,63,cs),
(211,63,o),
(158,108,o),
(134,202,c),
(48,171,l),
(81,39,o),
(163,-15,o),
(281,-15,cs),
(456,-15,o),
(514,99,o),
(514,182,cs),
(514,406,o),
(165,371,o),
(165,535,cs),
(165,599,o),
(212,637,o),
(279,637,cs),
(352,637,o),
(401,597,o),
(423,532,c),
(510,563,l),
(478,671,o),
(402,715,o),
(292,715,cs),
(125,715,o),
(69,607,o),
(69,527,cs),
(69,282,o),
(418,325,o),
(418,163,cs,{
name = hr00;
})
);
},
{
closed = 1;
nodes = (
(253,-226,o),
(237,-253,o),
(220,-273,c),
(262,-301,l),
(304,-256,o),
(346,-172,o),
(346,-112,cs),
(346,-69,o),
(320,-50,o),
(284,-50,cs),
(249,-50,o),
(223,-69,o),
(223,-112,cs),
(223,-154,o),
(253,-160,o),
(253,-201,cs,{
name = hr00;
})
);
}
);
};
layerId = master01;
shapes = (
{
ref = S;
},
{
pos = (138,0);
ref = commaaccentcomb;
}
);
width = 566;
}
);
unicode = 536;
},
{
glyphname = T;
lastChange = "2023-02-10 15:08:41 +0000";
layers = (
{
anchors = (
{
name = bottom;
pos = (217,10);
},
{
name = center;
pos = (237,350);
},
{
name = top;
pos = (237,700);
}
);
background = {
shapes = (
{
closed = 1;
nodes = (
(5,622,l),
(189,622,l),
(189,0,l),
(285,0,l),
(285,622,l),
(469,622,l),
(469,700,l),
(5,700,l,{
name = hr00;
})
);
}
);
};
layerId = master01;
shapes = (
{
closed = 1;
nodes = (
(285,0,l),
(285,622,l),
(469,622,l),
(469,700,l),
(5,700,l,{
name = hr00;
}),
(5,622,l),
(189,622,l),
(189,0,l)
);
}
);
width = 474;
}
);
unicode = 84;
},
{
glyphname = Tbar;
lastChange = "2023-02-10 14:59:47 +0000";
layers = (
{
background = {
shapes = (
{
closed = 1;
nodes = (
(5,622,l),
(189,622,l),
(189,0,l),
(285,0,l),
(285,622,l),
(469,622,l),
(469,700,l),
(5,700,l,{
name = hr00;
})
);
},
{
closed = 1;
nodes = (
(407,266,l),
(407,336,l),
(67,336,l),
(67,266,l,{
name = hr00;
})
);
}
);
};
layerId = master01;
shapes = (
{
closed = 1;
nodes = (
(407,266,l),
(407,336,l),
(67,336,l),
(67,266,l,{
name = hr00;
})
);
},
{
alignment = -1;
ref = T;
}
);
width = 474;
}
);
unicode = 358;
},
{
glyphname = Tcaron;
lastChange = "2023-02-10 15:08:41 +0000";
layers = (
{
background = {
shapes = (
{
closed = 1;
nodes = (
(5,622,l),
(189,622,l),
(189,0,l),
(285,0,l),
(285,622,l),
(469,622,l),
(469,700,l),
(5,700,l,{
name = hr00;
})
);
},
{
closed = 1;
nodes = (
(250,754,l),
(401,886,l),
(364,937,l),
(237,848,l),
(110,937,l),
(73,886,l),
(224,754,l,{
name = hr00;
})
);
}
);
};
layerId = master01;
shapes = (
{
ref = T;
},
{
pos = (19,0);
ref = caroncomb.case;
}
);
width = 474;
}
);
unicode = 356;
},
{
glyphname = Tcedilla;
lastChange = "2023-02-10 15:00:26 +0000";
layers = (
{
background = {
shapes = (
{
closed = 1;
nodes = (
(5,622,l),
(189,622,l),
(189,0,l),
(285,0,l),
(285,622,l),
(469,622,l),
(469,700,l),
(5,700,l,{
name = hr00;
})
);
},
{
closed = 1;
nodes = (
(126,-178,o),
(166,-200,o),
(214,-200,cs),
(291,-200,o),
(335,-148,o),
(335,-91,cs),
(335,-38,o),
(295,10,o),
(213,37,c),
(197,4,l),
(236,-16,o),
(253,-48,o),
(253,-75,cs),
(253,-114,o),
(227,-129,o),
(197,-129,cs),
(173,-129,o),
(147,-120,o),
(127,-106,c),
(99,-159,l,{
name = hr00;
})
);
}
);
};
layerId = master01;
shapes = (
{
ref = T;
},
{
pos = (-46,10);
ref = cedillacomb;
}
);
width = 474;
}
);
unicode = 354;
},
{
glyphname = Tcommaaccent;
lastChange = "2023-02-10 15:08:41 +0000";
layers = (
{
background = {
shapes = (
{
closed = 1;
nodes = (
(5,622,l),
(189,622,l),
(189,0,l),
(285,0,l),
(285,622,l),
(469,622,l),
(469,700,l),
(5,700,l,{
name = hr00;
})
);
},
{
closed = 1;
nodes = (
(207,-226,o),
(191,-253,o),
(174,-273,c),
(216,-301,l),
(258,-256,o),
(300,-172,o),
(300,-112,cs),
(300,-69,o),
(274,-50,o),
(238,-50,cs),
(203,-50,o),
(177,-69,o),
(177,-112,cs),
(177,-154,o),
(207,-160,o),
(207,-201,cs,{
name = hr00;
})
);
}
);
};
layerId = master01;
shapes = (
{
ref = T;
},
{
pos = (82,10);
ref = commaaccentcomb;
}
);
width = 474;
}
);
unicode = 538;
},
{
glyphname = U;
lastChange = "2023-02-10 15:08:41 +0000";
layers = (
{
anchors = (
{
name = bottom;
pos = (336,0);
},
{
name = ogonek;
pos = (503,33);
},
{
name = top;
pos = (336,700);
},
{
name = topright;
pos = (651,700);
}
);
background = {
shapes = (
{
closed = 1;
nodes = (
(485,700,l),
(485,236,ls),
(485,108,o),
(425,60,o),
(335,60,cs),
(246,60,o),
(186,108,o),
(186,236,cs),
(186,700,l),
(90,700,l),
(90,236,ls),
(90,64,o),
(195,-15,o),
(335,-15,cs),
(473,-15,o),
(581,64,o),
(581,236,cs),
(581,700,l,{
name = hr00;
})
);
}
);
};
layerId = master01;
shapes = (
{
closed = 1;
nodes = (
(473,-15,o),
(581,64,o),
(581,236,cs),
(581,700,l,{
name = hr00;
}),
(485,700,l),
(485,236,ls),
(485,108,o),
(425,60,o),
(335,60,cs),
(246,60,o),
(186,108,o),
(186,236,cs),
(186,700,l),
(90,700,l),
(90,236,ls),
(90,64,o),
(195,-15,o),
(335,-15,cs)
);
}
);
width = 671;
}
);
unicode = 85;
},
{
glyphname = Uacute;
lastChange = "2023-02-10 15:08:41 +0000";
layers = (
{
background = {
shapes = (
{
closed = 1;
nodes = (
(485,700,l),
(485,236,ls),
(485,108,o),
(425,60,o),
(335,60,cs),
(246,60,o),
(186,108,o),
(186,236,cs),
(186,700,l),
(90,700,l),
(90,236,ls),
(90,64,o),
(195,-15,o),
(335,-15,cs),
(473,-15,o),
(581,64,o),
(581,236,cs),
(581,700,l,{
name = hr00;
})
);
},
{
closed = 1;
nodes = (
(264,757,l),
(479,867,l),
(438,940,l),
(232,815,l,{
name = hr00;
})
);
}
);
};
layerId = master01;
shapes = (
{
ref = U;
},
{
pos = (110,0);
ref = acutecomb.case;
}
);
width = 671;
}
);
unicode = 218;
},
{
glyphname = Ubreve;
lastChange = "2023-02-10 15:08:41 +0000";
layers = (
{
background = {
shapes = (
{
closed = 1;
nodes = (
(485,700,l),
(485,236,ls),
(485,108,o),
(425,60,o),
(335,60,cs),
(246,60,o),
(186,108,o),
(186,236,cs),
(186,700,l),
(90,700,l),
(90,236,ls),
(90,64,o),
(195,-15,o),
(335,-15,cs),
(473,-15,o),
(581,64,o),
(581,236,cs),
(581,700,l,{
name = hr00;
})
);
},
{
closed = 1;
nodes = (
(416,899,o),
(389,843,o),
(338,843,cs),
(285,843,o),
(259,894,o),
(233,930,c),
(176,903,l),
(211,828,o),
(261,759,o),
(334,759,cs),
(409,759,o),
(459,829,o),
(494,903,c),
(437,930,l,{
name = hr00;
})
);
}
);
};
layerId = master01;
shapes = (
{
ref = U;
},
{
pos = (118,0);
ref = brevecomb.case;
}
);
width = 671;
}
);
unicode = 364;
},
{
glyphname = Ucircumflex;
lastChange = "2023-02-10 15:08:41 +0000";
layers = (
{
background = {
shapes = (
{
closed = 1;
nodes = (
(485,700,l),
(485,236,ls),
(485,108,o),
(425,60,o),
(335,60,cs),
(246,60,o),
(186,108,o),
(186,236,cs),
(186,700,l),
(90,700,l),
(90,236,ls),
(90,64,o),
(195,-15,o),
(335,-15,cs),
(473,-15,o),
(581,64,o),
(581,236,cs),
(581,700,l,{
name = hr00;
})
);
},
{
closed = 1;
nodes = (
(322,940,l),
(171,808,l),
(208,757,l),
(335,846,l),
(462,757,l),
(499,808,l),
(348,940,l,{
name = hr00;
})
);
}
);
};
layerId = master01;
shapes = (
{
ref = U;
},
{
pos = (118,0);
ref = circumflexcomb.case;
}
);
width = 671;
}
);
unicode = 219;
},
{
glyphname = Udieresis;
lastChange = "2023-02-10 15:08:41 +0000";
layers = (
{
background = {
shapes = (
{
closed = 1;
nodes = (
(485,700,l),
(485,236,ls),
(485,108,o),
(425,60,o),
(335,60,cs),
(246,60,o),
(186,108,o),
(186,236,cs),
(186,700,l),
(90,700,l),
(90,236,ls),
(90,64,o),
(195,-15,o),
(335,-15,cs),
(473,-15,o),
(581,64,o),
(581,236,cs),
(581,700,l,{
name = hr00;
})
);
},
{
closed = 1;
nodes = (
(183,807,o),
(208,788,o),
(240,788,cs),
(273,788,o),
(298,807,o),
(298,847,cs),
(298,887,o),
(273,906,o),
(240,906,cs),
(208,906,o),
(183,887,o),
(183,847,c,{
name = hr00;
})
);
},
{
closed = 1;
nodes = (
(372,807,o),
(397,788,o),
(429,788,cs),
(462,788,o),
(487,807,o),
(487,847,cs),
(487,887,o),
(462,906,o),
(429,906,cs),
(397,906,o),
(372,887,o),
(372,847,c)
);
}
);
};
layerId = master01;
shapes = (
{
ref = U;
},
{
pos = (188,0);
ref = dieresiscomb.case;
}
);
width = 671;
}
);
unicode = 220;
},
{
glyphname = Ugrave;
lastChange = "2023-02-10 15:08:41 +0000";
layers = (
{
background = {
shapes = (
{
closed = 1;
nodes = (
(485,700,l),
(485,236,ls),
(485,108,o),
(425,60,o),
(335,60,cs),
(246,60,o),
(186,108,o),
(186,236,cs),
(186,700,l),
(90,700,l),
(90,236,ls),
(90,64,o),
(195,-15,o),
(335,-15,cs),
(473,-15,o),
(581,64,o),
(581,236,cs),
(581,700,l,{
name = hr00;
})
);
},
{
closed = 1;
nodes = (
(212,867,l),
(427,757,l),
(459,815,l),
(253,940,l,{
name = hr00;
})
);
}
);
};
layerId = master01;
shapes = (
{
ref = U;
},
{
pos = (92,0);
ref = gravecomb.case;
}
);
width = 671;
}
);
unicode = 217;
},
{
glyphname = Uhungarumlaut;
lastChange = "2023-02-10 15:08:41 +0000";
layers = (
{
background = {
shapes = (
{
closed = 1;
nodes = (
(485,700,l),
(485,236,ls),
(485,108,o),
(425,60,o),
(335,60,cs),
(246,60,o),
(186,108,o),
(186,236,cs),
(186,700,l),
(90,700,l),
(90,236,ls),
(90,64,o),
(195,-15,o),
(335,-15,cs),
(473,-15,o),
(581,64,o),
(581,236,cs),
(581,700,l,{
name = hr00;
})
);
},
{
closed = 1;
nodes = (
(197,777,l),
(372,887,l),
(322,960,l),
(160,828,l,{
name = hr00;
})
);
},
{
closed = 1;
nodes = (
(416,777,l),
(591,887,l),
(541,960,l),
(379,828,l)
);
}
);
};
layerId = master01;
shapes = (
{
ref = U;
},
{
pos = (149,0);
ref = hungarumlautcomb.case;
}
);
width = 671;
}
);
unicode = 368;
},
{
glyphname = Umacron;
lastChange = "2023-02-10 15:08:41 +0000";
layers = (
{
background = {
shapes = (
{
closed = 1;
nodes = (
(485,700,l),
(485,236,ls),
(485,108,o),
(425,60,o),
(335,60,cs),
(246,60,o),
(186,108,o),
(186,236,cs),
(186,700,l),
(90,700,l),
(90,236,ls),
(90,64,o),
(195,-15,o),
(335,-15,cs),
(473,-15,o),
(581,64,o),
(581,236,cs),
(581,700,l,{
name = hr00;
})
);
},
{
closed = 1;
nodes = (
(480,809,l),
(480,884,l),
(191,884,l),
(191,809,l,{
name = hr00;
})
);
}
);
};
layerId = master01;
shapes = (
{
ref = U;
},
{
pos = (58,0);
ref = macroncomb.case;
}
);
width = 671;
}
);
unicode = 362;
},
{
glyphname = Uogonek;
lastChange = "2023-02-10 15:08:41 +0000";
layers = (
{
background = {
shapes = (
{
closed = 1;
nodes = (
(485,700,l),
(485,236,ls),
(485,108,o),
(425,60,o),
(335,60,cs),
(246,60,o),
(186,108,o),
(186,236,cs),
(186,700,l),
(90,700,l),
(90,236,ls),
(90,64,o),
(195,-15,o),
(335,-15,cs),
(473,-15,o),
(581,64,o),
(581,236,cs),
(581,700,l,{
name = hr00;
})
);
},
{
closed = 1;
nodes = (
(455,-124,o),
(429,-133,o),
(405,-133,cs),
(375,-133,o),
(349,-118,o),
(349,-79,cs),
(349,-52,o),
(366,-20,o),
(405,0,c),
(389,33,l),
(307,6,o),
(267,-42,o),
(267,-95,cs),
(267,-152,o),
(311,-204,o),
(388,-204,cs),
(436,-204,o),
(476,-182,o),
(503,-163,c),
(475,-110,l,{
name = hr00;
})
);
}
);
};
layerId = master01;
shapes = (
{
ref = U;
},
{
pos = (217,0);
ref = ogonekcomb;
}
);
width = 671;
}
);
unicode = 370;
},
{
glyphname = Uring;
lastChange = "2023-02-10 15:08:41 +0000";
layers = (
{
background = {
shapes = (
{
closed = 1;
nodes = (
(485,700,l),
(485,236,ls),
(485,108,o),
(425,60,o),
(335,60,cs),
(246,60,o),
(186,108,o),
(186,236,cs),
(186,700,l),
(90,700,l),
(90,236,ls),
(90,64,o),
(195,-15,o),
(335,-15,cs),
(473,-15,o),
(581,64,o),
(581,236,cs),
(581,700,l,{
name = hr00;
})
);
},
{
closed = 1;
nodes = (
(225,790,o),
(272,754,o),
(335,754,cs),
(399,754,o),
(446,790,o),
(446,867,cs),
(446,944,o),
(399,980,o),
(335,980,cs),
(272,980,o),
(225,944,o),
(225,867,c,{
name = hr00;
})
);
},
{
closed = 1;
nodes = (
(283,904,o),
(305,921,o),
(335,921,cs),
(366,921,o),
(388,904,o),
(388,867,cs),
(388,830,o),
(366,813,o),
(335,813,cs),
(305,813,o),
(283,830,o),
(283,867,cs)
);
}
);
};
layerId = master01;
shapes = (
{
ref = U;
},
{
pos = (187,0);
ref = ringcomb.case;
}
);
width = 671;
}
);
unicode = 366;
},
{
glyphname = Utilde;
lastChange = "2023-02-10 14:53:58 +0000";
layers = (
{
background = {
shapes = (
{
closed = 1;
nodes = (
(485,700,l),
(485,236,ls),
(485,108,o),
(425,60,o),
(335,60,cs),
(246,60,o),
(186,108,o),
(186,236,cs),
(186,700,l),
(90,700,l),
(90,236,ls),
(90,64,o),
(195,-15,o),
(335,-15,cs),
(473,-15,o),
(581,64,o),
(581,236,cs),
(581,700,l,{
name = hr00;
})
);
},
{
closed = 1;
nodes = (
(438,876,o),
(422,870,o),
(403,870,cs),
(352,870,o),
(321,904,o),
(267,904,cs,{
name = hr01;
}),
(231,904,o),
(188,880,o),
(163,822,c),
(220,794,l),
(232,817,o),
(248,823,o),
(267,823,cs),
(318,823,o),
(350,789,o),
(403,789,cs,{
name = hr02;
}),
(440,789,o),
(483,813,o),
(508,871,c),
(451,899,l)
);
}
);
};
layerId = master01;
shapes = (
{
ref = U;
},
{
pos = (58,0);
ref = tildecomb.case;
}
);
width = 671;
}
);
unicode = 360;
},
{
glyphname = V;
lastChange = "2023-02-10 15:08:41 +0000";
layers = (
{
anchors = (
{
name = bottom;
pos = (281,0);
},
{
name = top;
pos = (281,700);
}
);
background = {
shapes = (
{
closed = 1;
nodes = (
(448,700,l),
(281,68,l),
(114,700,l),
(20,700,l),
(205,0,l),
(357,0,l),
(542,700,l,{
name = hr00;
})
);
}
);
};
layerId = master01;
shapes = (
{
closed = 1;
nodes = (
(357,0,l),
(542,700,l,{
name = hr00;
}),
(448,700,l),
(281,68,l),
(114,700,l),
(20,700,l),
(205,0,l)
);
}
);
width = 562;
}
);
unicode = 86;
},
{
glyphname = W;
lastChange = "2023-02-10 15:08:41 +0000";
layers = (
{
anchors = (
{
name = bottom;
pos = (460,0);
},
{
name = top;
pos = (460,700);
}
);
background = {
shapes = (
{
closed = 1;
nodes = (
(735,0,l),
(890,700,l),
(796,700,l),
(658,79,l),
(512,700,l),
(408,700,l),
(261,78,l),
(124,700,l),
(30,700,l),
(185,0,l),
(327,0,l),
(460,564,l),
(593,0,l,{
name = hr00;
})
);
}
);
};
layerId = master01;
shapes = (
{
closed = 1;
nodes = (
(327,0,l),
(460,564,l),
(593,0,l,{
name = hr00;
}),
(735,0,l),
(890,700,l),
(796,700,l),
(658,79,l),
(512,700,l),
(408,700,l),
(261,78,l),
(124,700,l),
(30,700,l),
(185,0,l)
);
}
);
width = 920;
}
);
unicode = 87;
},
{
glyphname = Wacute;
lastChange = "2023-02-10 15:08:41 +0000";
layers = (
{
background = {
shapes = (
{
closed = 1;
nodes = (
(735,0,l),
(890,700,l),
(796,700,l),
(658,79,l),
(512,700,l),
(408,700,l),
(261,78,l),
(124,700,l),
(30,700,l),
(185,0,l),
(327,0,l),
(460,564,l),
(593,0,l,{
name = hr00;
})
);
},
{
closed = 1;
nodes = (
(378,757,l),
(593,867,l),
(552,940,l),
(346,815,l,{
name = hr00;
})
);
}
);
};
layerId = master01;
shapes = (
{
ref = W;
},
{
pos = (234,0);
ref = acutecomb.case;
}
);
width = 920;
}
);
unicode = 7810;
},
{
glyphname = Wcircumflex;
lastChange = "2023-02-10 15:08:41 +0000";
layers = (
{
background = {
shapes = (
{
closed = 1;
nodes = (
(735,0,l),
(890,700,l),
(796,700,l),
(658,79,l),
(512,700,l),
(408,700,l),
(261,78,l),
(124,700,l),
(30,700,l),
(185,0,l),
(327,0,l),
(460,564,l),
(593,0,l,{
name = hr00;
})
);
},
{
closed = 1;
nodes = (
(447,940,l),
(296,808,l),
(333,757,l),
(460,846,l),
(587,757,l),
(624,808,l),
(473,940,l,{
name = hr00;
})
);
}
);
};
layerId = master01;
shapes = (
{
ref = W;
},
{
pos = (242,0);
ref = circumflexcomb.case;
}
);
width = 920;
}
);
unicode = 372;
},
{
glyphname = Wdieresis;
lastChange = "2023-02-10 15:08:41 +0000";
layers = (
{
background = {
shapes = (
{
closed = 1;
nodes = (
(735,0,l),
(890,700,l),
(796,700,l),
(658,79,l),
(512,700,l),
(408,700,l),
(261,78,l),
(124,700,l),
(30,700,l),
(185,0,l),
(327,0,l),
(460,564,l),
(593,0,l,{
name = hr00;
})
);
},
{
closed = 1;
nodes = (
(308,807,o),
(333,788,o),
(365,788,cs),
(398,788,o),
(423,807,o),
(423,847,cs),
(423,887,o),
(398,906,o),
(365,906,cs),
(333,906,o),
(308,887,o),
(308,847,c,{
name = hr00;
})
);
},
{
closed = 1;
nodes = (
(497,807,o),
(522,788,o),
(554,788,cs),
(587,788,o),
(612,807,o),
(612,847,cs),
(612,887,o),
(587,906,o),
(554,906,cs),
(522,906,o),
(497,887,o),
(497,847,c)
);
}
);
};
layerId = master01;
shapes = (
{
ref = W;
},
{
pos = (312,0);
ref = dieresiscomb.case;
}
);
width = 920;
}
);
unicode = 7812;
},
{
glyphname = Wgrave;
lastChange = "2023-02-10 15:08:41 +0000";
layers = (
{
background = {
shapes = (
{
closed = 1;
nodes = (
(735,0,l),
(890,700,l),
(796,700,l),
(658,79,l),
(512,700,l),
(408,700,l),
(261,78,l),
(124,700,l),
(30,700,l),
(185,0,l),
(327,0,l),
(460,564,l),
(593,0,l,{
name = hr00;
})
);
},
{
closed = 1;
nodes = (
(336,867,l),
(551,757,l),
(583,815,l),
(377,940,l,{
name = hr00;
})
);
}
);
};
layerId = master01;
shapes = (
{
ref = W;
},
{
pos = (216,0);
ref = gravecomb.case;
}
);
width = 920;
}
);
unicode = 7808;
},
{
glyphname = X;
lastChange = "2023-02-10 15:08:41 +0000";
layers = (
{
anchors = (
{
name = bottom;
pos = (298,0);
},
{
name = top;
pos = (298,700);
}
);
background = {
shapes = (
{
closed = 1;
nodes = (
(36,700,l),
(243,356,l),
(30,0,l),
(135,0,l),
(295,269,l),
(458,0,l),
(566,0,l),
(353,352,l),
(560,700,l),
(455,700,l),
(300,440,l),
(144,700,l,{
name = hr00;
})
);
}
);
};
layerId = master01;
shapes = (
{
closed = 1;
nodes = (
(135,0,l),
(295,269,l),
(458,0,l),
(566,0,l),
(353,352,l),
(560,700,l),
(455,700,l),
(300,440,l),
(144,700,l,{
name = hr00;
}),
(36,700,l),
(243,356,l),
(30,0,l)
);
}
);
width = 596;
}
);
unicode = 88;
},
{
glyphname = Y;
kernLeft = Y;
kernRight = Y;
lastChange = "2023-02-10 15:14:49 +0000";
layers = (
{
anchors = (
{
name = bottom;
pos = (258,0);
},
{
name = top;
pos = (258,700);
},
{
name = topleft;
pos = (20,700);
}
);
background = {
shapes = (
{
closed = 1;
nodes = (
(15,700,l),
(210,260,l),
(210,0,l),
(306,0,l),
(306,260,l),
(501,700,l),
(402,700,l),
(258,361,l),
(114,700,l,{
name = hr00;
})
);
}
);
};
layerId = master01;
shapes = (
{
closed = 1;
nodes = (
(306,0,l),
(306,260,l),
(501,700,l),
(402,700,l),
(258,361,l),
(114,700,l,{
name = hr00;
}),
(15,700,l),
(210,260,l),
(210,0,l)
);
}
);
width = 516;
}
);
unicode = 89;
},
{
glyphname = Yacute;
kernLeft = Y;
kernRight = Y;
lastChange = "2023-02-10 15:14:49 +0000";
layers = (
{
background = {
shapes = (
{
closed = 1;
nodes = (
(15,700,l),
(210,260,l),
(210,0,l),
(306,0,l),
(306,260,l),
(501,700,l),
(402,700,l),
(258,361,l),
(114,700,l,{
name = hr00;
})
);
},
{
closed = 1;
nodes = (
(186,757,l),
(401,867,l),
(360,940,l),
(154,815,l,{
name = hr00;
})
);
}
);
};
layerId = master01;
shapes = (
{
ref = Y;
},
{
pos = (32,0);
ref = acutecomb.case;
}
);
width = 516;
}
);
unicode = 221;
},
{
glyphname = Ycircumflex;
kernLeft = Y;
kernRight = Y;
lastChange = "2023-02-10 15:14:49 +0000";
layers = (
{
background = {
shapes = (
{
closed = 1;
nodes = (
(15,700,l),
(210,260,l),
(210,0,l),
(306,0,l),
(306,260,l),
(501,700,l),
(402,700,l),
(258,361,l),
(114,700,l,{
name = hr00;
})
);
},
{
closed = 1;
nodes = (
(245,940,l),
(94,808,l),
(131,757,l),
(258,846,l),
(385,757,l),
(422,808,l),
(271,940,l,{
name = hr00;
})
);
}
);
};
layerId = master01;
shapes = (
{
ref = Y;
},
{
pos = (40,0);
ref = circumflexcomb.case;
}
);
width = 516;
}
);
unicode = 374;
},
{
glyphname = Ydieresis;
kernLeft = Y;
kernRight = Y;
lastChange = "2023-02-10 15:14:49 +0000";
layers = (
{
background = {
shapes = (
{
closed = 1;
nodes = (
(15,700,l),
(210,260,l),
(210,0,l),
(306,0,l),
(306,260,l),
(501,700,l),
(402,700,l),
(258,361,l),
(114,700,l,{
name = hr00;
})
);
},
{
closed = 1;
nodes = (
(106,807,o),
(131,788,o),
(163,788,cs),
(196,788,o),
(221,807,o),
(221,847,cs),
(221,887,o),
(196,906,o),
(163,906,cs),
(131,906,o),
(106,887,o),
(106,847,c,{
name = hr00;
})
);
},
{
closed = 1;
nodes = (
(295,807,o),
(320,788,o),
(352,788,cs),
(385,788,o),
(410,807,o),
(410,847,cs),
(410,887,o),
(385,906,o),
(352,906,cs),
(320,906,o),
(295,887,o),
(295,847,c)
);
}
);
};
layerId = master01;
shapes = (
{
ref = Y;
},
{
pos = (110,0);
ref = dieresiscomb.case;
}
);
width = 516;
}
);
unicode = 376;
},
{
glyphname = Ygrave;
kernLeft = Y;
kernRight = Y;
lastChange = "2023-02-10 15:14:49 +0000";
layers = (
{
background = {
shapes = (
{
closed = 1;
nodes = (
(15,700,l),
(210,260,l),
(210,0,l),
(306,0,l),
(306,260,l),
(501,700,l),
(402,700,l),
(258,361,l),
(114,700,l,{
name = hr00;
})
);
},
{
closed = 1;
nodes = (
(134,867,l),
(349,757,l),
(381,815,l),
(175,940,l,{
name = hr00;
})
);
}
);
};
layerId = master01;
shapes = (
{
ref = Y;
},
{
pos = (14,0);
ref = gravecomb.case;
}
);
width = 516;
}
);
unicode = 7922;
},
{
glyphname = Z;
lastChange = "2023-02-10 15:08:41 +0000";
layers = (
{
anchors = (
{
name = bottom;
pos = (264,0);
},
{
name = center;
pos = (264,350);
},
{
name = top;
pos = (284,700);
}
);
background = {
shapes = (
{
closed = 1;
nodes = (
(485,0,l),
(485,78,l),
(159,78,l),
(492,656,l),
(492,700,l),
(60,700,l),
(60,622,l),
(368,622,l),
(35,44,l),
(35,0,l,{
name = hr00;
})
);
}
);
};
layerId = master01;
shapes = (
{
closed = 1;
nodes = (
(485,0,l),
(485,78,l),
(159,78,l),
(492,656,l),
(492,700,l),
(60,700,l),
(60,622,l),
(368,622,l),
(35,44,l),
(35,0,l,{
name = hr00;
})
);
}
);
width = 527;
}
);
unicode = 90;
},
{
glyphname = Zacute;
lastChange = "2023-02-10 15:08:41 +0000";
layers = (
{
background = {
shapes = (
{
closed = 1;
nodes = (
(485,0,l),
(485,78,l),
(159,78,l),
(492,656,l),
(492,700,l),
(60,700,l),
(60,622,l),
(368,622,l),
(35,44,l),
(35,0,l,{
name = hr00;
})
);
},
{
closed = 1;
nodes = (
(202,757,l),
(417,867,l),
(376,940,l),
(170,815,l,{
name = hr00;
})
);
}
);
};
layerId = master01;
shapes = (
{
ref = Z;
},
{
pos = (58,0);
ref = acutecomb.case;
}
);
width = 527;
}
);
unicode = 377;
},
{
glyphname = Zcaron;
lastChange = "2023-02-10 15:08:41 +0000";
layers = (
{
background = {
shapes = (
{
closed = 1;
nodes = (
(485,0,l),
(485,78,l),
(159,78,l),
(492,656,l),
(492,700,l),
(60,700,l),
(60,622,l),
(368,622,l),
(35,44,l),
(35,0,l,{
name = hr00;
})
);
},
{
closed = 1;
nodes = (
(301,754,l),
(452,886,l),
(415,937,l),
(288,848,l),
(161,937,l),
(124,886,l),
(275,754,l,{
name = hr00;
})
);
}
);
};
layerId = master01;
shapes = (
{
ref = Z;
},
{
pos = (66,0);
ref = caroncomb.case;
}
);
width = 527;
}
);
unicode = 381;
},
{
glyphname = Zdotaccent;
lastChange = "2023-02-10 15:08:41 +0000";
layers = (
{
background = {
shapes = (
{
closed = 1;
nodes = (
(485,0,l),
(485,78,l),
(159,78,l),
(492,656,l),
(492,700,l),
(60,700,l),
(60,622,l),
(368,622,l),
(35,44,l),
(35,0,l,{
name = hr00;
})
);
},
{
closed = 1;
nodes = (
(228,801,o),
(256,780,o),
(293,780,cs),
(331,780,o),
(359,801,o),
(359,847,cs),
(359,893,o),
(331,914,o),
(293,914,cs),
(256,914,o),
(228,893,o),
(228,847,c,{
name = hr00;
})
);
}
);
};
layerId = master01;
shapes = (
{
ref = Z;
},
{
pos = (135,0);
ref = dotaccentcomb.case;
}
);
width = 527;
}
);
unicode = 379;
},
{
glyphname = a;
lastChange = "2023-02-10 15:08:41 +0000";
layers = (
{
anchors = (
{
name = bottom;
pos = (284,0);
},
{
name = ogonek;
pos = (629,33);
},
{
name = top;
pos = (284,530);
}
);
background = {
shapes = (
{
closed = 1;
nodes = (
(332,467,o),
(370,425,o),
(370,356,cs),
(370,293,l),
(337,303,o),
(300,309,o),
(264,309,cs),
(134,309,o),
(55,244,o),
(55,135,cs),
(55,50,o),
(117,-15,o),
(198,-15,cs),
(274,-15,o),
(334,27,o),
(375,70,c),
(381,4,o),
(417,-15,o),
(465,-15,cs),
(495,-15,o),
(521,-5,o),
(542,5,c),
(526,67,l),
(516,62,o),
(503,58,o),
(492,58,cs),
(477,58,o),
(466,64,o),
(466,85,cs),
(466,321,ls),
(466,479,o),
(407,545,o),
(268,545,cs),
(167,545,o),
(103,501,o),
(76,412,c),
(159,384,l),
(175,438,o),
(213,467,o),
(268,467,cs,{
name = hr00;
})
);
},
{
closed = 1;
nodes = (
(182,63,o),
(151,99,o),
(151,143,cs),
(151,219,o),
(212,244,o),
(278,244,cs),
(309,244,o),
(342,238,o),
(370,229,c),
(370,132,l),
(328,90,o),
(278,63,o),
(227,63,cs)
);
}
);
};
layerId = master01;
shapes = (
{
closed = 1;
nodes = (
(274,-15,o),
(334,27,o),
(375,70,c),
(381,4,o),
(417,-15,o),
(465,-15,cs),
(495,-15,o),
(521,-5,o),
(542,5,c),
(526,67,l),
(516,62,o),
(503,58,o),
(492,58,cs),
(477,58,o),
(466,64,o),
(466,85,cs),
(466,321,ls),
(466,479,o),
(407,545,o),
(268,545,cs),
(167,545,o),
(103,501,o),
(76,412,c),
(159,384,l),
(175,438,o),
(213,467,o),
(268,467,cs,{
name = hr00;
}),
(332,467,o),
(370,425,o),
(370,356,cs),
(370,293,l),
(337,303,o),
(300,309,o),
(264,309,cs),
(134,309,o),
(55,244,o),
(55,135,cs),
(55,50,o),
(117,-15,o),
(198,-15,cs)
);
},
{
closed = 1;
nodes = (
(182,63,o),
(151,99,o),
(151,143,cs),
(151,219,o),
(212,244,o),
(278,244,cs),
(309,244,o),
(342,238,o),
(370,229,c),
(370,132,l),
(328,90,o),
(278,63,o),
(227,63,cs)
);
}
);
width = 567;
}
);
unicode = 97;
},
{
glyphname = aacute;
lastChange = "2023-02-10 15:08:41 +0000";
layers = (
{
background = {
shapes = (
{
closed = 1;
nodes = (
(332,467,o),
(370,425,o),
(370,356,cs),
(370,293,l),
(337,303,o),
(300,309,o),
(264,309,cs),
(134,309,o),
(55,244,o),
(55,135,cs),
(55,50,o),
(117,-15,o),
(198,-15,cs),
(274,-15,o),
(334,27,o),
(375,70,c),
(381,4,o),
(417,-15,o),
(465,-15,cs),
(495,-15,o),
(521,-5,o),
(542,5,c),
(526,67,l),
(516,62,o),
(503,58,o),
(492,58,cs),
(477,58,o),
(466,64,o),
(466,85,cs),
(466,321,ls),
(466,479,o),
(407,545,o),
(268,545,cs),
(167,545,o),
(103,501,o),
(76,412,c),
(159,384,l),
(175,438,o),
(213,467,o),
(268,467,cs,{
name = hr00;
})
);
},
{
closed = 1;
nodes = (
(182,63,o),
(151,99,o),
(151,143,cs),
(151,219,o),
(212,244,o),
(278,244,cs),
(309,244,o),
(342,238,o),
(370,229,c),
(370,132,l),
(328,90,o),
(278,63,o),
(227,63,cs)
);
},
{
closed = 1;
nodes = (
(208,607,l),
(423,717,l),
(382,790,l),
(176,665,l,{
name = hr00;
})
);
}
);
};
layerId = master01;
shapes = (
{
ref = a;
},
{
pos = (58,0);
ref = acutecomb;
}
);
width = 567;
}
);
unicode = 225;
},
{
glyphname = abreve;
lastChange = "2023-02-10 15:08:41 +0000";
layers = (
{
background = {
shapes = (
{
closed = 1;
nodes = (
(332,467,o),
(370,425,o),
(370,356,cs),
(370,293,l),
(337,303,o),
(300,309,o),
(264,309,cs),
(134,309,o),
(55,244,o),
(55,135,cs),
(55,50,o),
(117,-15,o),
(198,-15,cs),
(274,-15,o),
(334,27,o),
(375,70,c),
(381,4,o),
(417,-15,o),
(465,-15,cs),
(495,-15,o),
(521,-5,o),
(542,5,c),
(526,67,l),
(516,62,o),
(503,58,o),
(492,58,cs),
(477,58,o),
(466,64,o),
(466,85,cs),
(466,321,ls),
(466,479,o),
(407,545,o),
(268,545,cs),
(167,545,o),
(103,501,o),
(76,412,c),
(159,384,l),
(175,438,o),
(213,467,o),
(268,467,cs,{
name = hr00;
})
);
},
{
closed = 1;
nodes = (
(182,63,o),
(151,99,o),
(151,143,cs),
(151,219,o),
(212,244,o),
(278,244,cs),
(309,244,o),
(342,238,o),
(370,229,c),
(370,132,l),
(328,90,o),
(278,63,o),
(227,63,cs)
);
},
{
closed = 1;
nodes = (
(364,749,o),
(337,693,o),
(286,693,cs),
(233,693,o),
(207,744,o),
(181,780,c),
(124,753,l),
(159,678,o),
(209,609,o),
(282,609,cs),
(357,609,o),
(407,679,o),
(442,753,c),
(385,780,l,{
name = hr00;
})
);
}
);
};
layerId = master01;
shapes = (
{
ref = a;
},
{
pos = (66,0);
ref = brevecomb;
}
);
width = 567;
}
);
unicode = 259;
},
{
glyphname = acircumflex;
lastChange = "2023-02-10 15:08:41 +0000";
layers = (
{
background = {
shapes = (
{
closed = 1;
nodes = (
(332,467,o),
(370,425,o),
(370,356,cs),
(370,293,l),
(337,303,o),
(300,309,o),
(264,309,cs),
(134,309,o),
(55,244,o),
(55,135,cs),
(55,50,o),
(117,-15,o),
(198,-15,cs),
(274,-15,o),
(334,27,o),
(375,70,c),
(381,4,o),
(417,-15,o),
(465,-15,cs),
(495,-15,o),
(521,-5,o),
(542,5,c),
(526,67,l),
(516,62,o),
(503,58,o),
(492,58,cs),
(477,58,o),
(466,64,o),
(466,85,cs),
(466,321,ls),
(466,479,o),
(407,545,o),
(268,545,cs),
(167,545,o),
(103,501,o),
(76,412,c),
(159,384,l),
(175,438,o),
(213,467,o),
(268,467,cs,{
name = hr00;
})
);
},
{
closed = 1;
nodes = (
(182,63,o),
(151,99,o),
(151,143,cs),
(151,219,o),
(212,244,o),
(278,244,cs),
(309,244,o),
(342,238,o),
(370,229,c),
(370,132,l),
(328,90,o),
(278,63,o),
(227,63,cs)
);
},
{
closed = 1;
nodes = (
(270,790,l),
(119,658,l),
(156,607,l),
(283,696,l),
(410,607,l),
(447,658,l),
(296,790,l,{
name = hr00;
})
);
}
);
};
layerId = master01;
shapes = (
{
ref = a;
},
{
pos = (66,0);
ref = circumflexcomb;
}
);
width = 567;
}
);
unicode = 226;
},
{
glyphname = adieresis;
lastChange = "2023-02-10 15:08:41 +0000";
layers = (
{
background = {
shapes = (
{
closed = 1;
nodes = (
(332,467,o),
(370,425,o),
(370,356,cs),
(370,293,l),
(337,303,o),
(300,309,o),
(264,309,cs),
(134,309,o),
(55,244,o),
(55,135,cs),
(55,50,o),
(117,-15,o),
(198,-15,cs),
(274,-15,o),
(334,27,o),
(375,70,c),
(381,4,o),
(417,-15,o),
(465,-15,cs),
(495,-15,o),
(521,-5,o),
(542,5,c),
(526,67,l),
(516,62,o),
(503,58,o),
(492,58,cs),
(477,58,o),
(466,64,o),
(466,85,cs),
(466,321,ls),
(466,479,o),
(407,545,o),
(268,545,cs),
(167,545,o),
(103,501,o),
(76,412,c),
(159,384,l),
(175,438,o),
(213,467,o),
(268,467,cs,{
name = hr00;
})
);
},
{
closed = 1;
nodes = (
(182,63,o),
(151,99,o),
(151,143,cs),
(151,219,o),
(212,244,o),
(278,244,cs),
(309,244,o),
(342,238,o),
(370,229,c),
(370,132,l),
(328,90,o),
(278,63,o),
(227,63,cs)
);
},
{
closed = 1;
nodes = (
(131,657,o),
(156,638,o),
(188,638,cs),
(221,638,o),
(246,657,o),
(246,697,cs),
(246,737,o),
(221,756,o),
(188,756,cs),
(156,756,o),
(131,737,o),
(131,697,c,{
name = hr00;
})
);
},
{
closed = 1;
nodes = (
(320,657,o),
(345,638,o),
(377,638,cs),
(410,638,o),
(435,657,o),
(435,697,cs),
(435,737,o),
(410,756,o),
(377,756,cs),
(345,756,o),
(320,737,o),
(320,697,c)
);
}
);
};
layerId = master01;
shapes = (
{
ref = a;
},
{
pos = (136,0);
ref = dieresiscomb;
}
);
width = 567;
}
);
unicode = 228;
},
{
glyphname = agrave;
lastChange = "2023-02-10 15:08:41 +0000";
layers = (
{
background = {
shapes = (
{
closed = 1;
nodes = (
(332,467,o),
(370,425,o),
(370,356,cs),
(370,293,l),
(337,303,o),
(300,309,o),
(264,309,cs),
(134,309,o),
(55,244,o),
(55,135,cs),
(55,50,o),
(117,-15,o),
(198,-15,cs),
(274,-15,o),
(334,27,o),
(375,70,c),
(381,4,o),
(417,-15,o),
(465,-15,cs),
(495,-15,o),
(521,-5,o),
(542,5,c),
(526,67,l),
(516,62,o),
(503,58,o),
(492,58,cs),
(477,58,o),
(466,64,o),
(466,85,cs),
(466,321,ls),
(466,479,o),
(407,545,o),
(268,545,cs),
(167,545,o),
(103,501,o),
(76,412,c),
(159,384,l),
(175,438,o),
(213,467,o),
(268,467,cs,{
name = hr00;
})
);
},
{
closed = 1;
nodes = (
(182,63,o),
(151,99,o),
(151,143,cs),
(151,219,o),
(212,244,o),
(278,244,cs),
(309,244,o),
(342,238,o),
(370,229,c),
(370,132,l),
(328,90,o),
(278,63,o),
(227,63,cs)
);
},
{
closed = 1;
nodes = (
(159,717,l),
(374,607,l),
(406,665,l),
(200,790,l,{
name = hr00;
})
);
}
);
};
layerId = master01;
shapes = (
{
ref = a;
},
{
pos = (40,0);
ref = gravecomb;
}
);
width = 567;
}
);
unicode = 224;
},
{
glyphname = amacron;
lastChange = "2023-02-10 15:08:41 +0000";
layers = (
{
background = {
shapes = (
{
closed = 1;
nodes = (
(332,467,o),
(370,425,o),
(370,356,cs),
(370,293,l),
(337,303,o),
(300,309,o),
(264,309,cs),
(134,309,o),
(55,244,o),
(55,135,cs),
(55,50,o),
(117,-15,o),
(198,-15,cs),
(274,-15,o),
(334,27,o),
(375,70,c),
(381,4,o),
(417,-15,o),
(465,-15,cs),
(495,-15,o),
(521,-5,o),
(542,5,c),
(526,67,l),
(516,62,o),
(503,58,o),
(492,58,cs),
(477,58,o),
(466,64,o),
(466,85,cs),
(466,321,ls),
(466,479,o),
(407,545,o),
(268,545,cs),
(167,545,o),
(103,501,o),
(76,412,c),
(159,384,l),
(175,438,o),
(213,467,o),
(268,467,cs,{
name = hr00;
})
);
},
{
closed = 1;
nodes = (
(182,63,o),
(151,99,o),
(151,143,cs),
(151,219,o),
(212,244,o),
(278,244,cs),
(309,244,o),
(342,238,o),
(370,229,c),
(370,132,l),
(328,90,o),
(278,63,o),
(227,63,cs)
);
},
{
closed = 1;
nodes = (
(428,659,l),
(428,734,l),
(139,734,l),
(139,659,l,{
name = hr00;
})
);
}
);
};
layerId = master01;
shapes = (
{
ref = a;
},
{
pos = (6,0);
ref = macroncomb;
}
);
width = 567;
}
);
unicode = 257;
},
{
glyphname = aogonek;
lastChange = "2023-02-10 15:08:41 +0000";
layers = (
{
background = {
shapes = (
{
closed = 1;
nodes = (
(332,467,o),
(370,425,o),
(370,356,cs),
(370,293,l),
(337,303,o),
(300,309,o),
(264,309,cs),
(134,309,o),
(55,244,o),
(55,135,cs),
(55,50,o),
(117,-15,o),
(198,-15,cs),
(274,-15,o),
(334,27,o),
(375,70,c),
(381,4,o),
(417,-15,o),
(465,-15,cs),
(495,-15,o),
(521,-5,o),
(542,5,c),
(526,67,l),
(516,62,o),
(503,58,o),
(492,58,cs),
(477,58,o),
(466,64,o),
(466,85,cs),
(466,321,ls),
(466,479,o),
(407,545,o),
(268,545,cs),
(167,545,o),
(103,501,o),
(76,412,c),
(159,384,l),
(175,438,o),
(213,467,o),
(268,467,cs,{
name = hr00;
})
);
},
{
closed = 1;
nodes = (
(182,63,o),
(151,99,o),
(151,143,cs),
(151,219,o),
(212,244,o),
(278,244,cs),
(309,244,o),
(342,238,o),
(370,229,c),
(370,132,l),
(328,90,o),
(278,63,o),
(227,63,cs)
);
},
{
closed = 1;
nodes = (
(581,-124,o),
(555,-133,o),
(531,-133,cs),
(501,-133,o),
(475,-118,o),
(475,-79,cs),
(475,-52,o),
(492,-20,o),
(531,0,c),
(515,33,l),
(433,6,o),
(393,-42,o),
(393,-95,cs),
(393,-152,o),
(437,-204,o),
(514,-204,cs),
(562,-204,o),
(602,-182,o),
(629,-163,c),
(601,-110,l,{
name = hr00;
})
);
}
);
};
layerId = master01;
shapes = (
{
ref = a;
},
{
pos = (343,0);
ref = ogonekcomb;
}
);
width = 567;
}
);
unicode = 261;
},
{
glyphname = aring;
lastChange = "2023-02-10 15:08:41 +0000";
layers = (
{
background = {
shapes = (
{
closed = 1;
nodes = (
(332,467,o),
(370,425,o),
(370,356,cs),
(370,293,l),
(337,303,o),
(300,309,o),
(264,309,cs),
(134,309,o),
(55,244,o),
(55,135,cs),
(55,50,o),
(117,-15,o),
(198,-15,cs),
(274,-15,o),
(334,27,o),
(375,70,c),
(381,4,o),
(417,-15,o),
(465,-15,cs),
(495,-15,o),
(521,-5,o),
(542,5,c),
(526,67,l),
(516,62,o),
(503,58,o),
(492,58,cs),
(477,58,o),
(466,64,o),
(466,85,cs),
(466,321,ls),
(466,479,o),
(407,545,o),
(268,545,cs),
(167,545,o),
(103,501,o),
(76,412,c),
(159,384,l),
(175,438,o),
(213,467,o),
(268,467,cs,{
name = hr00;
})
);
},
{
closed = 1;
nodes = (
(182,63,o),
(151,99,o),
(151,143,cs),
(151,219,o),
(212,244,o),
(278,244,cs),
(309,244,o),
(342,238,o),
(370,229,c),
(370,132,l),
(328,90,o),
(278,63,o),
(227,63,cs)
);
},
{
closed = 1;
nodes = (
(173,620,o),
(220,584,o),
(283,584,cs),
(347,584,o),
(394,620,o),
(394,697,cs),
(394,774,o),
(347,810,o),
(283,810,cs),
(220,810,o),
(173,774,o),
(173,697,c,{
name = hr00;
})
);
},
{
closed = 1;
nodes = (
(231,734,o),
(253,751,o),
(283,751,cs),
(314,751,o),
(336,734,o),
(336,697,cs),
(336,660,o),
(314,643,o),
(283,643,cs),
(253,643,o),
(231,660,o),
(231,697,cs)
);
}
);
};
layerId = master01;
shapes = (
{
ref = a;
},
{
pos = (135,0);
ref = ringcomb;
}
);
width = 567;
}
);
unicode = 229;
},
{
glyphname = aringacute;
lastChange = "2023-02-10 15:01:25 +0000";
layers = (
{
background = {
shapes = (
{
closed = 1;
nodes = (
(332,467,o),
(370,425,o),
(370,356,cs),
(370,293,l),
(337,303,o),
(300,309,o),
(264,309,cs),
(134,309,o),
(55,244,o),
(55,135,cs),
(55,50,o),
(117,-15,o),
(198,-15,cs),
(274,-15,o),
(334,27,o),
(375,70,c),
(381,4,o),
(417,-15,o),
(465,-15,cs),
(495,-15,o),
(521,-5,o),
(542,5,c),
(526,67,l),
(516,62,o),
(503,58,o),
(492,58,cs),
(477,58,o),
(466,64,o),
(466,85,cs),
(466,321,ls),
(466,479,o),
(407,545,o),
(268,545,cs),
(167,545,o),
(103,501,o),
(76,412,c),
(159,384,l),
(175,438,o),
(213,467,o),
(268,467,cs,{
name = hr00;
})
);
},
{
closed = 1;
nodes = (
(182,63,o),
(151,99,o),
(151,143,cs),
(151,219,o),
(212,244,o),
(278,244,cs),
(309,244,o),
(342,238,o),
(370,229,c),
(370,132,l),
(328,90,o),
(278,63,o),
(227,63,cs)
);
},
{
closed = 1;
nodes = (
(159,620,o),
(206,584,o),
(269,584,cs),
(333,584,o),
(380,620,o),
(380,697,cs),
(380,731,o),
(370,758,o),
(354,776,c),
(440,807,l),
(409,880,l),
(291,808,l),
(284,809,o),
(277,810,o),
(269,810,cs),
(206,810,o),
(159,774,o),
(159,697,cs,{
name = hr00;
})
);
},
{
closed = 1;
nodes = (
(217,734,o),
(239,751,o),
(269,751,cs),
(300,751,o),
(322,734,o),
(322,697,cs),
(322,660,o),
(300,643,o),
(269,643,cs),
(239,643,o),
(217,660,o),
(217,697,cs)
);
}
);
};
layerId = master01;
shapes = (
{
closed = 1;
nodes = (
(333,584,o),
(380,620,o),
(380,697,cs),
(380,731,o),
(370,758,o),
(354,776,c),
(440,807,l),
(409,880,l),
(291,808,l),
(284,809,o),
(277,810,o),
(269,810,cs),
(206,810,o),
(159,774,o),
(159,697,cs,{
name = hr00;
}),
(159,620,o),
(206,584,o),
(269,584,cs)
);
},
{
ref = a;
},
{
closed = 1;
nodes = (
(239,643,o),
(217,660,o),
(217,697,cs),
(217,734,o),
(239,751,o),
(269,751,cs),
(300,751,o),
(322,734,o),
(322,697,cs),
(322,660,o),
(300,643,o),
(269,643,cs)
);
}
);
width = 567;
}
);
unicode = 507;
},
{
glyphname = atilde;
lastChange = "2023-02-10 15:08:41 +0000";
layers = (
{
background = {
shapes = (
{
closed = 1;
nodes = (
(332,467,o),
(370,425,o),
(370,356,cs),
(370,293,l),
(337,303,o),
(300,309,o),
(264,309,cs),
(134,309,o),
(55,244,o),
(55,135,cs),
(55,50,o),
(117,-15,o),
(198,-15,cs),
(274,-15,o),
(334,27,o),
(375,70,c),
(381,4,o),
(417,-15,o),
(465,-15,cs),
(495,-15,o),
(521,-5,o),
(542,5,c),
(526,67,l),
(516,62,o),
(503,58,o),
(492,58,cs),
(477,58,o),
(466,64,o),
(466,85,cs),
(466,321,ls),
(466,479,o),
(407,545,o),
(268,545,cs),
(167,545,o),
(103,501,o),
(76,412,c),
(159,384,l),
(175,438,o),
(213,467,o),
(268,467,cs,{
name = hr00;
})
);
},
{
closed = 1;
nodes = (
(182,63,o),
(151,99,o),
(151,143,cs),
(151,219,o),
(212,244,o),
(278,244,cs),
(309,244,o),
(342,238,o),
(370,229,c),
(370,132,l),
(328,90,o),
(278,63,o),
(227,63,cs)
);
},
{
closed = 1;
nodes = (
(386,726,o),
(370,720,o),
(351,720,cs),
(300,720,o),
(269,754,o),
(215,754,cs,{
name = hr01;
}),
(179,754,o),
(136,730,o),
(111,672,c),
(168,644,l),
(180,667,o),
(196,673,o),
(215,673,cs),
(266,673,o),
(298,639,o),
(351,639,cs,{
name = hr02;
}),
(388,639,o),
(431,663,o),
(456,721,c),
(399,749,l)
);
}
);
};
layerId = master01;
shapes = (
{
ref = a;
},
{
pos = (6,0);
ref = tildecomb;
}
);
width = 567;
}
);
unicode = 227;
},
{
glyphname = ae;
lastChange = "2023-02-10 15:08:41 +0000";
layers = (
{
anchors = (
{
name = bottom;
pos = (446,0);
},
{
name = top;
pos = (496,530);
}
);
background = {
shapes = (
{
closed = 1;
nodes = (
(538,63,o),
(475,119,o),
(467,237,c),
(821,237,l),
(821,307,ls),
(821,467,o),
(734,545,o),
(608,545,cs),
(538,545,o),
(477,519,o),
(434,469,c),
(403,522,o),
(350,545,o),
(268,545,cs),
(174,545,o),
(105,507,o),
(76,412,c),
(159,384,l),
(175,438,o),
(213,467,o),
(268,467,cs),
(328,467,o),
(370,429,o),
(370,356,cs),
(370,307,l),
(258,307,ls),
(128,307,o),
(55,244,o),
(55,135,cs),
(55,27,o),
(126,-15,o),
(208,-15,cs),
(287,-15,o),
(369,26,o),
(418,82,c),
(462,18,o),
(531,-15,o),
(615,-15,cs),
(700,-15,o),
(769,25,o),
(810,72,c),
(767,124,l),
(737,95,o),
(686,63,o),
(618,63,cs,{
name = hr00;
})
);
},
{
closed = 1;
nodes = (
(480,415,o),
(537,467,o),
(609,467,cs),
(683,467,o),
(726,409,o),
(726,307,c),
(468,307,l)
);
},
{
closed = 1;
nodes = (
(182,63,o),
(151,99,o),
(151,143,cs),
(151,219,o),
(212,237,o),
(278,237,cs),
(371,237,l),
(373,203,o),
(378,172,o),
(387,145,c),
(342,96,o),
(283,63,o),
(227,63,cs)
);
}
);
};
layerId = master01;
shapes = (
{
closed = 1;
nodes = (
(287,-15,o),
(369,26,o),
(418,82,c),
(462,18,o),
(531,-15,o),
(615,-15,cs),
(700,-15,o),
(769,25,o),
(810,72,c),
(767,124,l),
(737,95,o),
(686,63,o),
(618,63,cs,{
name = hr00;
}),
(538,63,o),
(475,119,o),
(467,237,c),
(821,237,l),
(821,307,ls),
(821,467,o),
(734,545,o),
(608,545,cs),
(538,545,o),
(477,519,o),
(434,469,c),
(403,522,o),
(350,545,o),
(268,545,cs),
(174,545,o),
(105,507,o),
(76,412,c),
(159,384,l),
(175,438,o),
(213,467,o),
(268,467,cs),
(328,467,o),
(370,429,o),
(370,356,cs),
(370,307,l),
(258,307,ls),
(128,307,o),
(55,244,o),
(55,135,cs),
(55,27,o),
(126,-15,o),
(208,-15,cs)
);
},
{
closed = 1;
nodes = (
(182,63,o),
(151,99,o),
(151,143,cs),
(151,219,o),
(212,237,o),
(278,237,cs),
(371,237,l),
(373,203,o),
(378,172,o),
(387,145,c),
(342,96,o),
(283,63,o),
(227,63,cs)
);
},
{
closed = 1;
nodes = (
(480,415,o),
(537,467,o),
(609,467,cs),
(683,467,o),
(726,409,o),
(726,307,c),
(468,307,l)
);
}
);
width = 891;
}
);
unicode = 230;
},
{
glyphname = aeacute;
lastChange = "2023-02-10 15:01:30 +0000";
layers = (
{
background = {
shapes = (
{
closed = 1;
nodes = (
(538,63,o),
(475,119,o),
(467,237,c),
(821,237,l),
(821,307,ls),
(821,467,o),
(734,545,o),
(608,545,cs),
(538,545,o),
(477,519,o),
(434,469,c),
(403,522,o),
(350,545,o),
(268,545,cs),
(174,545,o),
(105,507,o),
(76,412,c),
(159,384,l),
(175,438,o),
(213,467,o),
(268,467,cs),
(328,467,o),
(370,429,o),
(370,356,cs),
(370,307,l),
(258,307,ls),
(128,307,o),
(55,244,o),
(55,135,cs),
(55,27,o),
(126,-15,o),
(208,-15,cs),
(287,-15,o),
(369,26,o),
(418,82,c),
(462,18,o),
(531,-15,o),
(615,-15,cs),
(700,-15,o),
(769,25,o),
(810,72,c),
(767,124,l),
(737,95,o),
(686,63,o),
(618,63,cs,{
name = hr00;
})
);
},
{
closed = 1;
nodes = (
(480,415,o),
(537,467,o),
(609,467,cs),
(683,467,o),
(726,409,o),
(726,307,c),
(468,307,l)
);
},
{
closed = 1;
nodes = (
(182,63,o),
(151,99,o),
(151,143,cs),
(151,219,o),
(212,237,o),
(278,237,cs),
(371,237,l),
(373,203,o),
(378,172,o),
(387,145,c),
(342,96,o),
(283,63,o),
(227,63,cs)
);
},
{
closed = 1;
nodes = (
(404,607,l),
(619,717,l),
(578,790,l),
(372,665,l,{
name = hr00;
})
);
}
);
};
layerId = master01;
shapes = (
{
ref = ae;
},
{
pos = (270,0);
ref = acutecomb;
}
);
width = 891;
}
);
unicode = 509;
},
{
glyphname = b;
lastChange = "2023-02-10 15:08:41 +0000";
layers = (
{
anchors = (
{
name = bottom;
pos = (313,0);
},
{
name = center;
pos = (313,265);
},
{
name = top;
pos = (313,530);
}
);
background = {
shapes = (
{
closed = 1;
nodes = (
(284,545,o),
(233,514,o),
(196,478,c),
(196,750,l),
(100,750,l),
(100,0,l),
(146,0,l),
(171,45,l),
(211,10,o),
(264,-15,o),
(325,-15,cs,{
name = hr01;
}),
(454,-15,o),
(555,80,o),
(555,265,cs),
(555,450,o),
(474,545,o),
(352,545,cs)
);
},
{
closed = 1;
nodes = (
(404,467,o),
(455,402,o),
(455,265,cs),
(455,128,o),
(399,63,o),
(321,63,cs),
(271,63,o),
(226,81,o),
(196,105,c),
(196,408,l),
(233,444,o),
(278,467,o),
(331,467,cs)
);
}
);
};
layerId = master01;
shapes = (
{
closed = 1;
nodes = (
(454,-15,o),
(555,80,o),
(555,265,cs),
(555,450,o),
(474,545,o),
(352,545,cs),
(284,545,o),
(233,514,o),
(196,478,c),
(196,750,l),
(100,750,l),
(100,0,l),
(146,0,l),
(171,45,l),
(211,10,o),
(264,-15,o),
(325,-15,cs,{
name = hr01;
})
);
},
{
closed = 1;
nodes = (
(271,63,o),
(226,81,o),
(196,105,c),
(196,408,l),
(233,444,o),
(278,467,o),
(331,467,cs),
(404,467,o),
(455,402,o),
(455,265,cs),
(455,128,o),
(399,63,o),
(321,63,cs)
);
}
);
width = 625;
}
);
unicode = 98;
},
{
glyphname = c;
kernLeft = e;
lastChange = "2023-02-10 15:15:22 +0000";
layers = (
{
anchors = (
{
name = bottom;
pos = (264,0);
},
{
name = top;
pos = (308,530);
}
);
background = {
shapes = (
{
closed = 1;
nodes = (
(468,507,o),
(400,545,o),
(310,545,cs),
(174,545,o),
(70,450,o),
(70,265,cs),
(70,80,o),
(171,-15,o),
(311,-15,cs),
(388,-15,o),
(457,25,o),
(498,72,c),
(455,124,l),
(425,95,o),
(374,63,o),
(315,63,cs),
(231,63,o),
(170,128,o),
(170,265,cs),
(170,402,o),
(230,467,o),
(312,467,cs),
(363,467,o),
(399,438,o),
(414,384,c),
(497,412,l,{
name = hr00;
})
);
}
);
};
layerId = master01;
shapes = (
{
closed = 1;
nodes = (
(388,-15,o),
(457,25,o),
(498,72,c),
(455,124,l),
(425,95,o),
(374,63,o),
(315,63,cs),
(231,63,o),
(170,128,o),
(170,265,cs),
(170,402,o),
(230,467,o),
(312,467,cs),
(363,467,o),
(399,438,o),
(414,384,c),
(497,412,l,{
name = hr00;
}),
(468,507,o),
(400,545,o),
(310,545,cs),
(174,545,o),
(70,450,o),
(70,265,cs),
(70,80,o),
(171,-15,o),
(311,-15,cs)
);
}
);
width = 528;
}
);
unicode = 99;
},
{
glyphname = cacute;
kernLeft = e;
lastChange = "2023-02-10 15:15:22 +0000";
layers = (
{
background = {
shapes = (
{
closed = 1;
nodes = (
(468,507,o),
(400,545,o),
(310,545,cs),
(174,545,o),
(70,450,o),
(70,265,cs),
(70,80,o),
(171,-15,o),
(311,-15,cs),
(388,-15,o),
(457,25,o),
(498,72,c),
(455,124,l),
(425,95,o),
(374,63,o),
(315,63,cs),
(231,63,o),
(170,128,o),
(170,265,cs),
(170,402,o),
(230,467,o),
(312,467,cs),
(363,467,o),
(399,438,o),
(414,384,c),
(497,412,l,{
name = hr00;
})
);
},
{
closed = 1;
nodes = (
(222,607,l),
(437,717,l),
(396,790,l),
(190,665,l,{
name = hr00;
})
);
}
);
};
layerId = master01;
shapes = (
{
ref = c;
},
{
pos = (82,0);
ref = acutecomb;
}
);
width = 528;
}
);
unicode = 263;
},
{
glyphname = ccaron;
kernLeft = e;
lastChange = "2023-02-10 15:15:22 +0000";
layers = (
{
background = {
shapes = (
{
closed = 1;
nodes = (
(468,507,o),
(400,545,o),
(310,545,cs),
(174,545,o),
(70,450,o),
(70,265,cs),
(70,80,o),
(171,-15,o),
(311,-15,cs),
(388,-15,o),
(457,25,o),
(498,72,c),
(455,124,l),
(425,95,o),
(374,63,o),
(315,63,cs),
(231,63,o),
(170,128,o),
(170,265,cs),
(170,402,o),
(230,467,o),
(312,467,cs),
(363,467,o),
(399,438,o),
(414,384,c),
(497,412,l,{
name = hr00;
})
);
},
{
closed = 1;
nodes = (
(327,604,l),
(478,736,l),
(441,787,l),
(314,698,l),
(187,787,l),
(150,736,l),
(301,604,l,{
name = hr00;
})
);
}
);
};
layerId = master01;
shapes = (
{
ref = c;
},
{
pos = (90,0);
ref = caroncomb;
}
);
width = 528;
}
);
unicode = 269;
},
{
glyphname = ccedilla;
kernLeft = e;
lastChange = "2023-02-10 15:15:22 +0000";
layers = (
{
background = {
shapes = (
{
closed = 1;
nodes = (
(468,507,o),
(400,545,o),
(310,545,cs),
(174,545,o),
(70,450,o),
(70,265,cs),
(70,80,o),
(171,-15,o),
(311,-15,cs),
(388,-15,o),
(457,25,o),
(498,72,c),
(455,124,l),
(425,95,o),
(374,63,o),
(315,63,cs),
(231,63,o),
(170,128,o),
(170,265,cs),
(170,402,o),
(230,467,o),
(312,467,cs),
(363,467,o),
(399,438,o),
(414,384,c),
(497,412,l,{
name = hr00;
})
);
},
{
closed = 1;
nodes = (
(173,-188,o),
(213,-210,o),
(261,-210,cs),
(338,-210,o),
(382,-158,o),
(382,-101,cs),
(382,-48,o),
(342,0,o),
(260,27,c),
(244,-6,l),
(283,-26,o),
(300,-58,o),
(300,-85,cs),
(300,-124,o),
(274,-139,o),
(244,-139,cs),
(220,-139,o),
(194,-130,o),
(174,-116,c),
(146,-169,l,{
name = hr00;
})
);
}
);
};
layerId = master01;
shapes = (
{
ref = c;
},
{
pos = (1,0);
ref = cedillacomb;
}
);
width = 528;
}
);
unicode = 231;
},
{
glyphname = ccircumflex;
kernLeft = e;
lastChange = "2023-02-10 15:15:22 +0000";
layers = (
{
background = {
shapes = (
{
closed = 1;
nodes = (
(468,507,o),
(400,545,o),
(310,545,cs),
(174,545,o),
(70,450,o),
(70,265,cs),
(70,80,o),
(171,-15,o),
(311,-15,cs),
(388,-15,o),
(457,25,o),
(498,72,c),
(455,124,l),
(425,95,o),
(374,63,o),
(315,63,cs),
(231,63,o),
(170,128,o),
(170,265,cs),
(170,402,o),
(230,467,o),
(312,467,cs),
(363,467,o),
(399,438,o),
(414,384,c),
(497,412,l,{
name = hr00;
})
);
},
{
closed = 1;
nodes = (
(286,790,l),
(135,658,l),
(172,607,l),
(299,696,l),
(426,607,l),
(463,658,l),
(312,790,l,{
name = hr00;
})
);
}
);
};
layerId = master01;
shapes = (
{
ref = c;
},
{
pos = (90,0);
ref = circumflexcomb;
}
);
width = 528;
}
);
unicode = 265;
},
{
glyphname = cdotaccent;
kernLeft = e;
lastChange = "2023-02-10 15:15:22 +0000";
layers = (
{
background = {
shapes = (
{
closed = 1;
nodes = (
(468,507,o),
(400,545,o),
(310,545,cs),
(174,545,o),
(70,450,o),
(70,265,cs),
(70,80,o),
(171,-15,o),
(311,-15,cs),
(388,-15,o),
(457,25,o),
(498,72,c),
(455,124,l),
(425,95,o),
(374,63,o),
(315,63,cs),
(231,63,o),
(170,128,o),
(170,265,cs),
(170,402,o),
(230,467,o),
(312,467,cs),
(363,467,o),
(399,438,o),
(414,384,c),
(497,412,l,{
name = hr00;
})
);
},
{
closed = 1;
nodes = (
(248,651,o),
(276,630,o),
(313,630,cs),
(351,630,o),
(379,651,o),
(379,697,cs),
(379,743,o),
(351,764,o),
(313,764,cs),
(276,764,o),
(248,743,o),
(248,697,c,{
name = hr00;
})
);
}
);
};
layerId = master01;
shapes = (
{
ref = c;
},
{
pos = (159,0);
ref = dotaccentcomb;
}
);
width = 528;
}
);
unicode = 267;
},
{
glyphname = d;
kernLeft = e;
lastChange = "2023-02-10 15:15:22 +0000";
layers = (
{
anchors = (
{
name = bottom;
pos = (316,0);
},
{
name = center;
pos = (316,265);
},
{
name = top;
pos = (316,960);
},
{
name = topright;
pos = (694,767);
}
);
background = {
shapes = (
{
closed = 1;
nodes = (
(345,-15,o),
(398,19,o),
(436,59,c),
(444,2,o),
(479,-15,o),
(524,-15,cs),
(554,-15,o),
(580,-5,o),
(601,5,c),
(585,67,l),
(575,62,o),
(562,58,o),
(551,58,cs),
(536,58,o),
(525,64,o),
(525,85,cs),
(525,750,l),
(429,750,l),
(429,504,l),
(393,528,o),
(349,545,o),
(300,545,cs),
(171,545,o),
(70,450,o),
(70,265,cs),
(70,80,o),
(151,-15,o),
(273,-15,cs,{
name = hr00;
})
);
},
{
closed = 1;
nodes = (
(221,63,o),
(170,128,o),
(170,265,cs),
(170,402,o),
(226,467,o),
(304,467,cs),
(353,467,o),
(398,448,o),
(429,425,c),
(429,121,l),
(391,86,o),
(346,63,o),
(294,63,cs)
);
}
);
};
layerId = master01;
shapes = (
{
closed = 1;
nodes = (
(345,-15,o),
(398,19,o),
(436,59,c),
(444,2,o),
(479,-15,o),
(524,-15,cs),
(554,-15,o),
(580,-5,o),
(601,5,c),
(585,67,l),
(575,62,o),
(562,58,o),
(551,58,cs),
(536,58,o),
(525,64,o),
(525,85,cs),
(525,750,l),
(429,750,l),
(429,504,l),
(393,528,o),
(349,545,o),
(300,545,cs),
(171,545,o),
(70,450,o),
(70,265,cs),
(70,80,o),
(151,-15,o),
(273,-15,cs,{
name = hr00;
})
);
},
{
closed = 1;
nodes = (
(221,63,o),
(170,128,o),
(170,265,cs),
(170,402,o),
(226,467,o),
(304,467,cs),
(353,467,o),
(398,448,o),
(429,425,c),
(429,121,l),
(391,86,o),
(346,63,o),
(294,63,cs)
);
}
);
width = 631;
}
);
unicode = 100;
},
{
glyphname = eth;
kernLeft = e;
lastChange = "2023-02-10 15:15:22 +0000";
layers = (
{
background = {
shapes = (
{
closed = 1;
nodes = (
(225,682,o),
(254,688,o),
(280,688,cs),
(407,688,o),
(460,525,o),
(460,435,c),
(431,471,o),
(380,495,o),
(318,495,cs),
(181,495,o),
(77,408,o),
(77,240,cs),
(77,72,o),
(181,-15,o),
(318,-15,cs),
(455,-15,o),
(560,64,o),
(560,311,cs),
(560,610,o),
(443,765,o),
(293,765,cs),
(243,765,o),
(201,755,o),
(168,731,c),
(192,669,l,{
name = hr00;
})
);
},
{
closed = 1;
nodes = (
(177,348,o),
(212,417,o),
(318,417,cs),
(424,417,o),
(460,348,o),
(460,240,cs),
(460,132,o),
(424,63,o),
(318,63,cs),
(212,63,o),
(177,132,o),
(177,240,cs)
);
},
{
closed = 1;
nodes = (
(598,689,l),
(568,747,l),
(286,603,l),
(316,545,l,{
name = hr00;
})
);
}
);
};
layerId = master01;
shapes = (
{
closed = 1;
nodes = (
(455,-15,o),
(560,64,o),
(560,311,cs),
(560,610,o),
(443,765,o),
(293,765,cs),
(243,765,o),
(201,755,o),
(168,731,c),
(192,669,l,{
name = hr00;
}),
(225,682,o),
(254,688,o),
(280,688,cs),
(407,688,o),
(460,525,o),
(460,435,c),
(431,471,o),
(380,495,o),
(318,495,cs),
(181,495,o),
(77,408,o),
(77,240,cs),
(77,72,o),
(181,-15,o),
(318,-15,cs)
);
},
{
closed = 1;
nodes = (
(212,63,o),
(177,132,o),
(177,240,cs),
(177,348,o),
(212,417,o),
(318,417,cs),
(424,417,o),
(460,348,o),
(460,240,cs),
(460,132,o),
(424,63,o),
(318,63,cs)
);
},
{
pos = (256,202);
ref = eslash;
}
);
width = 649;
}
);
unicode = 240;
},
{
glyphname = dcaron;
kernLeft = e;
lastChange = "2023-02-10 15:15:22 +0000";
layers = (
{
background = {
shapes = (
{
closed = 1;
nodes = (
(345,-15,o),
(398,19,o),
(436,59,c),
(444,2,o),
(479,-15,o),
(524,-15,cs),
(554,-15,o),
(580,-5,o),
(601,5,c),
(585,67,l),
(575,62,o),
(562,58,o),
(551,58,cs),
(536,58,o),
(525,64,o),
(525,85,cs),
(525,750,l),
(429,750,l),
(429,504,l),
(393,528,o),
(349,545,o),
(300,545,cs),
(171,545,o),
(70,450,o),
(70,265,cs),
(70,80,o),
(151,-15,o),
(273,-15,cs,{
name = hr00;
})
);
},
{
closed = 1;
nodes = (
(221,63,o),
(170,128,o),
(170,265,cs),
(170,402,o),
(226,467,o),
(304,467,cs),
(353,467,o),
(398,448,o),
(429,425,c),
(429,121,l),
(391,86,o),
(346,63,o),
(294,63,cs)
);
},
{
closed = 1;
nodes = (
(601,653,o),
(585,626,o),
(568,606,c),
(610,578,l),
(652,623,o),
(694,707,o),
(694,767,cs),
(694,810,o),
(668,829,o),
(632,829,cs),
(597,829,o),
(571,810,o),
(571,767,cs),
(571,725,o),
(601,719,o),
(601,678,cs,{
name = hr00;
})
);
}
);
};
layerId = master01;
shapes = (
{
ref = d;
},
{
pos = (304,0);
ref = caroncomb.alt;
}
);
width = 631;
}
);
unicode = 271;
},
{
glyphname = dcroat;
kernLeft = e;
lastChange = "2023-02-10 15:15:22 +0000";
layers = (
{
background = {
shapes = (
{
closed = 1;
nodes = (
(345,-15,o),
(398,19,o),
(436,59,c),
(444,2,o),
(479,-15,o),
(524,-15,cs),
(554,-15,o),
(580,-5,o),
(601,5,c),
(585,67,l),
(575,62,o),
(562,58,o),
(551,58,cs),
(536,58,o),
(525,64,o),
(525,85,cs),
(525,750,l),
(429,750,l),
(429,504,l),
(393,528,o),
(349,545,o),
(300,545,cs),
(171,545,o),
(70,450,o),
(70,265,cs),
(70,80,o),
(151,-15,o),
(273,-15,cs,{
name = hr00;
})
);
},
{
closed = 1;
nodes = (
(221,63,o),
(170,128,o),
(170,265,cs),
(170,402,o),
(226,467,o),
(304,467,cs),
(353,467,o),
(398,448,o),
(429,425,c),
(429,121,l),
(391,86,o),
(346,63,o),
(294,63,cs)
);
},
{
closed = 1;
nodes = (
(599,617,l),
(599,687,l),
(259,687,l),
(259,617,l,{
name = hr00;
})
);
}
);
};
layerId = master01;
shapes = (
{
closed = 1;
nodes = (
(599,617,l),
(599,687,l),
(259,687,l),
(259,617,l,{
name = hr00;
})
);
},
{
alignment = -1;
ref = d;
}
);
width = 631;
}
);
unicode = 273;
},
{
glyphname = e;
kernLeft = e;
lastChange = "2023-02-10 15:15:22 +0000";
layers = (
{
anchors = (
{
name = bottom;
pos = (296,0);
},
{
name = ogonek;
pos = (501,33);
},
{
name = top;
pos = (306,530);
}
);
background = {
shapes = (
{
closed = 1;
nodes = (
(238,63,o),
(179,119,o),
(171,237,c),
(521,237,l),
(521,307,ls),
(521,467,o),
(434,545,o),
(308,545,cs),
(173,545,o),
(70,450,o),
(70,265,cs),
(70,80,o),
(173,-15,o),
(315,-15,cs),
(400,-15,o),
(469,25,o),
(510,72,c),
(467,124,l),
(437,95,o),
(386,63,o),
(318,63,cs,{
name = hr00;
})
);
},
{
closed = 1;
nodes = (
(383,467,o),
(426,409,o),
(426,307,c),
(172,307,l),
(183,415,o),
(237,467,o),
(309,467,cs)
);
}
);
};
layerId = master01;
shapes = (
{
closed = 1;
nodes = (
(400,-15,o),
(469,25,o),
(510,72,c),
(467,124,l),
(437,95,o),
(386,63,o),
(318,63,cs,{
name = hr00;
}),
(238,63,o),
(179,119,o),
(171,237,c),
(521,237,l),
(521,307,ls),
(521,467,o),
(434,545,o),
(308,545,cs),
(173,545,o),
(70,450,o),
(70,265,cs),
(70,80,o),
(173,-15,o),
(315,-15,cs)
);
},
{
closed = 1;
nodes = (
(183,415,o),
(237,467,o),
(309,467,cs),
(383,467,o),
(426,409,o),
(426,307,c),
(172,307,l)
);
}
);
width = 591;
}
);
unicode = 101;
},
{
glyphname = eacute;
kernLeft = e;
lastChange = "2023-02-10 15:15:22 +0000";
layers = (
{
background = {
shapes = (
{
closed = 1;
nodes = (
(238,63,o),
(179,119,o),
(171,237,c),
(521,237,l),
(521,307,ls),
(521,467,o),
(434,545,o),
(308,545,cs),
(173,545,o),
(70,450,o),
(70,265,cs),
(70,80,o),
(173,-15,o),
(315,-15,cs),
(400,-15,o),
(469,25,o),
(510,72,c),
(467,124,l),
(437,95,o),
(386,63,o),
(318,63,cs,{
name = hr00;
})
);
},
{
closed = 1;
nodes = (
(383,467,o),
(426,409,o),
(426,307,c),
(172,307,l),
(183,415,o),
(237,467,o),
(309,467,cs)
);
},
{
closed = 1;
nodes = (
(220,607,l),
(435,717,l),
(394,790,l),
(188,665,l,{
name = hr00;
})
);
}
);
};
layerId = master01;
shapes = (
{
ref = e;
},
{
pos = (80,0);
ref = acutecomb;
}
);
width = 591;
}
);
unicode = 233;
},
{
glyphname = ebreve;
kernLeft = e;
lastChange = "2023-02-10 15:15:22 +0000";
layers = (
{
background = {
shapes = (
{
closed = 1;
nodes = (
(238,63,o),
(179,119,o),
(171,237,c),
(521,237,l),
(521,307,ls),
(521,467,o),
(434,545,o),
(308,545,cs),
(173,545,o),
(70,450,o),
(70,265,cs),
(70,80,o),
(173,-15,o),
(315,-15,cs),
(400,-15,o),
(469,25,o),
(510,72,c),
(467,124,l),
(437,95,o),
(386,63,o),
(318,63,cs,{
name = hr00;
})
);
},
{
closed = 1;
nodes = (
(383,467,o),
(426,409,o),
(426,307,c),
(172,307,l),
(183,415,o),
(237,467,o),
(309,467,cs)
);
},
{
closed = 1;
nodes = (
(386,749,o),
(359,693,o),
(308,693,cs),
(255,693,o),
(229,744,o),
(203,780,c),
(146,753,l),
(181,678,o),
(231,609,o),
(304,609,cs),
(379,609,o),
(429,679,o),
(464,753,c),
(407,780,l,{
name = hr00;
})
);
}
);
};
layerId = master01;
shapes = (
{
ref = e;
},
{
pos = (88,0);
ref = brevecomb;
}
);
width = 591;
}
);
unicode = 277;
},
{
glyphname = ecaron;
kernLeft = e;
lastChange = "2023-02-10 15:15:22 +0000";
layers = (
{
background = {
shapes = (
{
closed = 1;
nodes = (
(238,63,o),
(179,119,o),
(171,237,c),
(521,237,l),
(521,307,ls),
(521,467,o),
(434,545,o),
(308,545,cs),
(173,545,o),
(70,450,o),
(70,265,cs),
(70,80,o),
(173,-15,o),
(315,-15,cs),
(400,-15,o),
(469,25,o),
(510,72,c),
(467,124,l),
(437,95,o),
(386,63,o),
(318,63,cs,{
name = hr00;
})
);
},
{
closed = 1;
nodes = (
(383,467,o),
(426,409,o),
(426,307,c),
(172,307,l),
(183,415,o),
(237,467,o),
(309,467,cs)
);
},
{
closed = 1;
nodes = (
(318,604,l),
(469,736,l),
(432,787,l),
(305,698,l),
(178,787,l),
(141,736,l),
(292,604,l,{
name = hr00;
})
);
}
);
};
layerId = master01;
shapes = (
{
ref = e;
},
{
pos = (88,0);
ref = caroncomb;
}
);
width = 591;
}
);
unicode = 283;
},
{
glyphname = ecircumflex;
kernLeft = e;
lastChange = "2023-02-10 15:15:22 +0000";
layers = (
{
background = {
shapes = (
{
closed = 1;
nodes = (
(238,63,o),
(179,119,o),
(171,237,c),
(521,237,l),
(521,307,ls),
(521,467,o),
(434,545,o),
(308,545,cs),
(173,545,o),
(70,450,o),
(70,265,cs),
(70,80,o),
(173,-15,o),
(315,-15,cs),
(400,-15,o),
(469,25,o),
(510,72,c),
(467,124,l),
(437,95,o),
(386,63,o),
(318,63,cs,{
name = hr00;
})
);
},
{
closed = 1;
nodes = (
(383,467,o),
(426,409,o),
(426,307,c),
(172,307,l),
(183,415,o),
(237,467,o),
(309,467,cs)
);
},
{
closed = 1;
nodes = (
(297,790,l),
(146,658,l),
(183,607,l),
(310,696,l),
(437,607,l),
(474,658,l),
(323,790,l,{
name = hr00;
})
);
}
);
};
layerId = master01;
shapes = (
{
ref = e;
},
{
pos = (88,0);
ref = circumflexcomb;
}
);
width = 591;
}
);
unicode = 234;
},
{
glyphname = edieresis;
kernLeft = e;
lastChange = "2023-02-10 15:15:22 +0000";
layers = (
{
background = {
shapes = (
{
closed = 1;
nodes = (
(238,63,o),
(179,119,o),
(171,237,c),
(521,237,l),
(521,307,ls),
(521,467,o),
(434,545,o),
(308,545,cs),
(173,545,o),
(70,450,o),
(70,265,cs),
(70,80,o),
(173,-15,o),
(315,-15,cs),
(400,-15,o),
(469,25,o),
(510,72,c),
(467,124,l),
(437,95,o),
(386,63,o),
(318,63,cs,{
name = hr00;
})
);
},
{
closed = 1;
nodes = (
(383,467,o),
(426,409,o),
(426,307,c),
(172,307,l),
(183,415,o),
(237,467,o),
(309,467,cs)
);
},
{
closed = 1;
nodes = (
(157,657,o),
(182,638,o),
(214,638,cs),
(247,638,o),
(272,657,o),
(272,697,cs),
(272,737,o),
(247,756,o),
(214,756,cs),
(182,756,o),
(157,737,o),
(157,697,c,{
name = hr00;
})
);
},
{
closed = 1;
nodes = (
(346,657,o),
(371,638,o),
(403,638,cs),
(436,638,o),
(461,657,o),
(461,697,cs),
(461,737,o),
(436,756,o),
(403,756,cs),
(371,756,o),
(346,737,o),
(346,697,c)
);
}
);
};
layerId = master01;
shapes = (
{
ref = e;
},
{
pos = (158,0);
ref = dieresiscomb;
}
);
width = 591;
}
);
unicode = 235;
},
{
glyphname = edotaccent;
kernLeft = e;
lastChange = "2023-02-10 15:15:22 +0000";
layers = (
{
background = {
shapes = (
{
closed = 1;
nodes = (
(238,63,o),
(179,119,o),
(171,237,c),
(521,237,l),
(521,307,ls),
(521,467,o),
(434,545,o),
(308,545,cs),
(173,545,o),
(70,450,o),
(70,265,cs),
(70,80,o),
(173,-15,o),
(315,-15,cs),
(400,-15,o),
(469,25,o),
(510,72,c),
(467,124,l),
(437,95,o),
(386,63,o),
(318,63,cs,{
name = hr00;
})
);
},
{
closed = 1;
nodes = (
(383,467,o),
(426,409,o),
(426,307,c),
(172,307,l),
(183,415,o),
(237,467,o),
(309,467,cs)
);
},
{
closed = 1;
nodes = (
(240,651,o),
(268,630,o),
(305,630,cs),
(343,630,o),
(371,651,o),
(371,697,cs),
(371,743,o),
(343,764,o),
(305,764,cs),
(268,764,o),
(240,743,o),
(240,697,c,{
name = hr00;
})
);
}
);
};
layerId = master01;
shapes = (
{
ref = e;
},
{
pos = (157,0);
ref = dotaccentcomb;
}
);
width = 591;
}
);
unicode = 279;
},
{
glyphname = egrave;
kernLeft = e;
lastChange = "2023-02-10 15:15:22 +0000";
layers = (
{
background = {
shapes = (
{
closed = 1;
nodes = (
(238,63,o),
(179,119,o),
(171,237,c),
(521,237,l),
(521,307,ls),
(521,467,o),
(434,545,o),
(308,545,cs),
(173,545,o),
(70,450,o),
(70,265,cs),
(70,80,o),
(173,-15,o),
(315,-15,cs),
(400,-15,o),
(469,25,o),
(510,72,c),
(467,124,l),
(437,95,o),
(386,63,o),
(318,63,cs,{
name = hr00;
})
);
},
{
closed = 1;
nodes = (
(383,467,o),
(426,409,o),
(426,307,c),
(172,307,l),
(183,415,o),
(237,467,o),
(309,467,cs)
);
},
{
closed = 1;
nodes = (
(171,717,l),
(386,607,l),
(418,665,l),
(212,790,l,{
name = hr00;
})
);
}
);
};
layerId = master01;
shapes = (
{
ref = e;
},
{
pos = (62,0);
ref = gravecomb;
}
);
width = 591;
}
);
unicode = 232;
},
{
glyphname = emacron;
kernLeft = e;
lastChange = "2023-02-10 15:15:22 +0000";
layers = (
{
background = {
shapes = (
{
closed = 1;
nodes = (
(238,63,o),
(179,119,o),
(171,237,c),
(521,237,l),
(521,307,ls),
(521,467,o),
(434,545,o),
(308,545,cs),
(173,545,o),
(70,450,o),
(70,265,cs),
(70,80,o),
(173,-15,o),
(315,-15,cs),
(400,-15,o),
(469,25,o),
(510,72,c),
(467,124,l),
(437,95,o),
(386,63,o),
(318,63,cs,{
name = hr00;
})
);
},
{
closed = 1;
nodes = (
(383,467,o),
(426,409,o),
(426,307,c),
(172,307,l),
(183,415,o),
(237,467,o),
(309,467,cs)
);
},
{
closed = 1;
nodes = (
(450,659,l),
(450,734,l),
(161,734,l),
(161,659,l,{
name = hr00;
})
);
}
);
};
layerId = master01;
shapes = (
{
ref = e;
},
{
pos = (28,0);
ref = macroncomb;
}
);
width = 591;
}
);
unicode = 275;
},
{
glyphname = eogonek;
kernLeft = e;
lastChange = "2023-02-10 15:15:22 +0000";
layers = (
{
background = {
shapes = (
{
closed = 1;
nodes = (
(238,63,o),
(179,119,o),
(171,237,c),
(521,237,l),
(521,307,ls),
(521,467,o),
(434,545,o),
(308,545,cs),
(173,545,o),
(70,450,o),
(70,265,cs),
(70,80,o),
(173,-15,o),
(315,-15,cs),
(400,-15,o),
(469,25,o),
(510,72,c),
(467,124,l),
(437,95,o),
(386,63,o),
(318,63,cs,{
name = hr00;
})
);
},
{
closed = 1;
nodes = (
(383,467,o),
(426,409,o),
(426,307,c),
(172,307,l),
(183,415,o),
(237,467,o),
(309,467,cs)
);
},
{
closed = 1;
nodes = (
(453,-124,o),
(427,-133,o),
(403,-133,cs),
(373,-133,o),
(347,-118,o),
(347,-79,cs),
(347,-52,o),
(364,-20,o),
(403,0,c),
(387,33,l),
(305,6,o),
(265,-42,o),
(265,-95,cs),
(265,-152,o),
(309,-204,o),
(386,-204,cs),
(434,-204,o),
(474,-182,o),
(501,-163,c),
(473,-110,l,{
name = hr00;
})
);
}
);
};
layerId = master01;
shapes = (
{
ref = e;
},
{
pos = (215,0);
ref = ogonekcomb;
}
);
width = 591;
}
);
unicode = 281;
},
{
glyphname = f;
lastChange = "2023-02-10 15:08:41 +0000";
layers = (
{
anchors = (
{
name = bottom;
pos = (190,0);
},
{
name = top;
pos = (190,960);
}
);
background = {
shapes = (
{
closed = 1;
nodes = (
(131,460,l),
(131,0,l),
(227,0,l),
(227,460,l),
(357,460,l),
(357,530,l),
(227,530,l),
(227,601,ls),
(227,661,o),
(248,687,o),
(288,687,cs),
(322,687,o),
(339,669,o),
(351,637,c),
(431,664,l),
(402,742,o),
(356,765,o),
(289,765,cs),
(187,765,o),
(131,716,o),
(131,591,cs),
(131,530,l),
(55,530,l),
(55,460,l,{
name = hr00;
})
);
}
);
};
layerId = master01;
shapes = (
{
closed = 1;
nodes = (
(227,0,l),
(227,460,l),
(357,460,l),
(357,530,l),
(227,530,l),
(227,601,ls),
(227,661,o),
(248,687,o),
(288,687,cs),
(322,687,o),
(339,669,o),
(351,637,c),
(431,664,l),
(402,742,o),
(356,765,o),
(289,765,cs),
(187,765,o),
(131,716,o),
(131,591,cs),
(131,530,l),
(55,530,l),
(55,460,l,{
name = hr00;
}),
(131,460,l),
(131,0,l)
);
}
);
width = 380;
}
);
unicode = 102;
},
{
glyphname = g;
lastChange = "2023-02-10 15:08:41 +0000";
layers = (
{
anchors = (
{
name = bottom;
pos = (280,-235);
},
{
name = top;
pos = (300,530);
}
);
background = {
shapes = (
{
closed = 1;
nodes = (
(182,70,o),
(160,95,o),
(160,128,cs),
(160,149,o),
(169,171,o),
(185,186,c),
(216,170,o),
(253,162,o),
(293,162,cs),
(408,162,o),
(497,233,o),
(497,353,cs),
(497,406,o),
(479,450,o),
(450,482,c),
(492,496,o),
(519,529,o),
(519,598,c,{
name = hr01;
}),
(461,618,l),
(441,618,l),
(441,550,o),
(415,529,o),
(384,528,c),
(357,539,o),
(326,545,o),
(293,545,cs),
(177,545,o),
(90,474,o),
(90,353,cs),
(90,299,o),
(107,255,o),
(137,223,c),
(102,196,o),
(87,159,o),
(87,119,cs),
(87,81,o),
(99,50,o),
(123,28,c),
(79,4,o),
(50,-37,o),
(50,-82,cs,{
name = hr02;
}),
(50,-184,o),
(132,-235,o),
(292,-235,cs),
(451,-235,o),
(534,-174,o),
(534,-72,cs),
(534,31,o),
(453,70,o),
(362,70,cs),
(230,70,ls)
);
},
{
closed = 1;
nodes = (
(182,440,o),
(240,477,o),
(293,477,cs),
(346,477,o),
(405,440,o),
(405,353,cs),
(405,267,o),
(346,230,o),
(293,230,cs),
(240,230,o),
(182,267,o),
(182,353,cs,{
name = hr03;
})
);
},
{
closed = 1;
nodes = (
(358,-8,ls),
(397,-8,o),
(446,-18,o),
(446,-73,cs,{
name = hr04;
}),
(446,-135,o),
(396,-161,o),
(292,-161,cs),
(188,-161,o),
(138,-134,o),
(138,-77,cs),
(138,-47,o),
(156,-20,o),
(175,0,c),
(193,-5,o),
(214,-8,o),
(238,-8,c)
);
}
);
};
layerId = master01;
shapes = (
{
closed = 1;
nodes = (
(451,-235,o),
(534,-174,o),
(534,-72,cs),
(534,31,o),
(453,70,o),
(362,70,cs),
(230,70,ls),
(182,70,o),
(160,95,o),
(160,128,cs),
(160,149,o),
(169,171,o),
(185,186,c),
(216,170,o),
(253,162,o),
(293,162,cs),
(408,162,o),
(497,233,o),
(497,353,cs),
(497,406,o),
(479,450,o),
(450,482,c),
(492,496,o),
(519,529,o),
(519,598,c,{
name = hr01;
}),
(461,618,l),
(441,618,l),
(441,550,o),
(415,529,o),
(384,528,c),
(357,539,o),
(326,545,o),
(293,545,cs),
(177,545,o),
(90,474,o),
(90,353,cs),
(90,299,o),
(107,255,o),
(137,223,c),
(102,196,o),
(87,159,o),
(87,119,cs),
(87,81,o),
(99,50,o),
(123,28,c),
(79,4,o),
(50,-37,o),
(50,-82,cs,{
name = hr02;
}),
(50,-184,o),
(132,-235,o),
(292,-235,cs)
);
},
{
closed = 1;
nodes = (
(188,-161,o),
(138,-134,o),
(138,-77,cs),
(138,-47,o),
(156,-20,o),
(175,0,c),
(193,-5,o),
(214,-8,o),
(238,-8,c),
(358,-8,ls),
(397,-8,o),
(446,-18,o),
(446,-73,cs,{
name = hr04;
}),
(446,-135,o),
(396,-161,o),
(292,-161,cs)
);
},
{
closed = 1;
nodes = (
(240,230,o),
(182,267,o),
(182,353,cs,{
name = hr03;
}),
(182,440,o),
(240,477,o),
(293,477,cs),
(346,477,o),
(405,440,o),
(405,353,cs),
(405,267,o),
(346,230,o),
(293,230,cs)
);
}
);
width = 559;
}
);
unicode = 103;
},
{
glyphname = gbreve;
lastChange = "2023-02-10 15:08:41 +0000";
layers = (
{
background = {
shapes = (
{
closed = 1;
nodes = (
(182,70,o),
(160,95,o),
(160,128,cs),
(160,149,o),
(169,171,o),
(185,186,c),
(216,170,o),
(253,162,o),
(293,162,cs),
(408,162,o),
(497,233,o),
(497,353,cs),
(497,406,o),
(479,450,o),
(450,482,c),
(492,496,o),
(519,529,o),
(519,598,c,{
name = hr01;
}),
(461,618,l),
(441,618,l),
(441,550,o),
(415,529,o),
(384,528,c),
(357,539,o),
(326,545,o),
(293,545,cs),
(177,545,o),
(90,474,o),
(90,353,cs),
(90,299,o),
(107,255,o),
(137,223,c),
(102,196,o),
(87,159,o),
(87,119,cs),
(87,81,o),
(99,50,o),
(123,28,c),
(79,4,o),
(50,-37,o),
(50,-82,cs,{
name = hr02;
}),
(50,-184,o),
(132,-235,o),
(292,-235,cs),
(451,-235,o),
(534,-174,o),
(534,-72,cs),
(534,31,o),
(453,70,o),
(362,70,cs),
(230,70,ls)
);
},
{
closed = 1;
nodes = (
(182,440,o),
(240,477,o),
(293,477,cs),
(346,477,o),
(405,440,o),
(405,353,cs),
(405,267,o),
(346,230,o),
(293,230,cs),
(240,230,o),
(182,267,o),
(182,353,cs,{
name = hr03;
})
);
},
{
closed = 1;
nodes = (
(358,-8,ls),
(397,-8,o),
(446,-18,o),
(446,-73,cs,{
name = hr04;
}),
(446,-135,o),
(396,-161,o),
(292,-161,cs),
(188,-161,o),
(138,-134,o),
(138,-77,cs),
(138,-47,o),
(156,-20,o),
(175,0,c),
(193,-5,o),
(214,-8,o),
(238,-8,c)
);
},
{
closed = 1;
nodes = (
(380,749,o),
(353,693,o),
(302,693,cs),
(249,693,o),
(223,744,o),
(197,780,c),
(140,753,l),
(175,678,o),
(225,609,o),
(298,609,cs),
(373,609,o),
(423,679,o),
(458,753,c),
(401,780,l,{
name = hr00;
})
);
}
);
};
layerId = master01;
shapes = (
{
ref = g;
},
{
pos = (82,0);
ref = brevecomb;
}
);
width = 559;
}
);
unicode = 287;
},
{
glyphname = gcircumflex;
lastChange = "2023-02-10 15:02:30 +0000";
layers = (
{
background = {
shapes = (
{
closed = 1;
nodes = (
(182,70,o),
(160,95,o),
(160,128,cs),
(160,149,o),
(169,171,o),
(185,186,c),
(216,170,o),
(253,162,o),
(293,162,cs),
(408,162,o),
(497,233,o),
(497,353,cs),
(497,406,o),
(479,450,o),
(450,482,c),
(492,496,o),
(519,529,o),
(519,598,c,{
name = hr01;
}),
(461,618,l),
(441,618,l),
(441,550,o),
(415,529,o),
(384,528,c),
(357,539,o),
(326,545,o),
(293,545,cs),
(177,545,o),
(90,474,o),
(90,353,cs),
(90,299,o),
(107,255,o),
(137,223,c),
(102,196,o),
(87,159,o),
(87,119,cs),
(87,81,o),
(99,50,o),
(123,28,c),
(79,4,o),
(50,-37,o),
(50,-82,cs,{
name = hr02;
}),
(50,-184,o),
(132,-235,o),
(292,-235,cs),
(451,-235,o),
(534,-174,o),
(534,-72,cs),
(534,31,o),
(453,70,o),
(362,70,cs),
(230,70,ls)
);
},
{
closed = 1;
nodes = (
(182,440,o),
(240,477,o),
(293,477,cs),
(346,477,o),
(405,440,o),
(405,353,cs),
(405,267,o),
(346,230,o),
(293,230,cs),
(240,230,o),
(182,267,o),
(182,353,cs,{
name = hr03;
})
);
},
{
closed = 1;
nodes = (
(358,-8,ls),
(397,-8,o),
(446,-18,o),
(446,-73,cs,{
name = hr04;
}),
(446,-135,o),
(396,-161,o),
(292,-161,cs),
(188,-161,o),
(138,-134,o),
(138,-77,cs),
(138,-47,o),
(156,-20,o),
(175,0,c),
(193,-5,o),
(214,-8,o),
(238,-8,c)
);
},
{
closed = 1;
nodes = (
(286,790,l),
(135,658,l),
(172,607,l),
(299,696,l),
(426,607,l),
(463,658,l),
(312,790,l,{
name = hr00;
})
);
}
);
};
layerId = master01;
shapes = (
{
ref = g;
},
{
pos = (82,0);
ref = circumflexcomb;
}
);
width = 559;
}
);
unicode = 285;
},
{
glyphname = gcommaaccent;
lastChange = "2023-02-10 15:08:41 +0000";
layers = (
{
background = {
shapes = (
{
closed = 1;
nodes = (
(182,70,o),
(160,95,o),
(160,128,cs),
(160,149,o),
(169,171,o),
(185,186,c),
(216,170,o),
(253,162,o),
(293,162,cs),
(408,162,o),
(497,233,o),
(497,353,cs),
(497,406,o),
(479,450,o),
(450,482,c),
(492,496,o),
(519,529,o),
(519,598,c,{
name = hr01;
}),
(461,618,l),
(441,618,l),
(441,550,o),
(415,529,o),
(384,528,c),
(357,539,o),
(326,545,o),
(293,545,cs),
(177,545,o),
(90,474,o),
(90,353,cs),
(90,299,o),
(107,255,o),
(137,223,c),
(102,196,o),
(87,159,o),
(87,119,cs),
(87,81,o),
(99,50,o),
(123,28,c),
(79,4,o),
(50,-37,o),
(50,-82,cs,{
name = hr02;
}),
(50,-184,o),
(132,-235,o),
(292,-235,cs),
(451,-235,o),
(534,-174,o),
(534,-72,cs),
(534,31,o),
(453,70,o),
(362,70,cs),
(230,70,ls)
);
},
{
closed = 1;
nodes = (
(182,440,o),
(240,477,o),
(293,477,cs),
(346,477,o),
(405,440,o),
(405,353,cs),
(405,267,o),
(346,230,o),
(293,230,cs),
(240,230,o),
(182,267,o),
(182,353,cs,{
name = hr03;
})
);
},
{
closed = 1;
nodes = (
(358,-8,ls),
(397,-8,o),
(446,-18,o),
(446,-73,cs,{
name = hr04;
}),
(446,-135,o),
(396,-161,o),
(292,-161,cs),
(188,-161,o),
(138,-134,o),
(138,-77,cs),
(138,-47,o),
(156,-20,o),
(175,0,c),
(193,-5,o),
(214,-8,o),
(238,-8,c)
);
},
{
closed = 1;
nodes = (
(329,810,o),
(345,837,o),
(362,857,c),
(320,885,l),
(278,840,o),
(236,756,o),
(236,696,cs),
(236,653,o),
(262,634,o),
(298,634,cs),
(333,634,o),
(359,653,o),
(359,696,cs),
(359,738,o),
(329,744,o),
(329,785,cs,{
name = hr00;
})
);
}
);
};
layerId = master01;
shapes = (
{
ref = g;
},
{
pos = (197,0);
ref = commaturnedabovecomb;
}
);
width = 559;
}
);
unicode = 291;
},
{
glyphname = gdotaccent;
lastChange = "2023-02-10 15:08:41 +0000";
layers = (
{
background = {
shapes = (
{
closed = 1;
nodes = (
(182,70,o),
(160,95,o),
(160,128,cs),
(160,149,o),
(169,171,o),
(185,186,c),
(216,170,o),
(253,162,o),
(293,162,cs),
(408,162,o),
(497,233,o),
(497,353,cs),
(497,406,o),
(479,450,o),
(450,482,c),
(492,496,o),
(519,529,o),
(519,598,c,{
name = hr01;
}),
(461,618,l),
(441,618,l),
(441,550,o),
(415,529,o),
(384,528,c),
(357,539,o),
(326,545,o),
(293,545,cs),
(177,545,o),
(90,474,o),
(90,353,cs),
(90,299,o),
(107,255,o),
(137,223,c),
(102,196,o),
(87,159,o),
(87,119,cs),
(87,81,o),
(99,50,o),
(123,28,c),
(79,4,o),
(50,-37,o),
(50,-82,cs,{
name = hr02;
}),
(50,-184,o),
(132,-235,o),
(292,-235,cs),
(451,-235,o),
(534,-174,o),
(534,-72,cs),
(534,31,o),
(453,70,o),
(362,70,cs),
(230,70,ls)
);
},
{
closed = 1;
nodes = (
(182,440,o),
(240,477,o),
(293,477,cs),
(346,477,o),
(405,440,o),
(405,353,cs),
(405,267,o),
(346,230,o),
(293,230,cs),
(240,230,o),
(182,267,o),
(182,353,cs,{
name = hr03;
})
);
},
{
closed = 1;
nodes = (
(358,-8,ls),
(397,-8,o),
(446,-18,o),
(446,-73,cs,{
name = hr04;
}),
(446,-135,o),
(396,-161,o),
(292,-161,cs),
(188,-161,o),
(138,-134,o),
(138,-77,cs),
(138,-47,o),
(156,-20,o),
(175,0,c),
(193,-5,o),
(214,-8,o),
(238,-8,c)
);
},
{
closed = 1;
nodes = (
(234,651,o),
(262,630,o),
(299,630,cs),
(337,630,o),
(365,651,o),
(365,697,cs),
(365,743,o),
(337,764,o),
(299,764,cs),
(262,764,o),
(234,743,o),
(234,697,c,{
name = hr00;
})
);
}
);
};
layerId = master01;
shapes = (
{
ref = g;
},
{
pos = (151,0);
ref = dotaccentcomb;
}
);
width = 559;
}
);
unicode = 289;
},
{
glyphname = h;
lastChange = "2023-02-10 15:08:41 +0000";
layers = (
{
anchors = (
{
name = bottom;
pos = (308,0);
},
{
name = center;
pos = (308,480);
},
{
name = top;
pos = (146,700);
}
);
background = {
shapes = (
{
closed = 1;
nodes = (
(100,750,l),
(100,0,l),
(196,0,l),
(196,397,l),
(230,443,o),
(275,467,o),
(331,467,cs),
(398,467,o),
(430,431,o),
(430,356,cs),
(430,0,l),
(526,0,l),
(526,346,ls),
(526,490,o),
(478,545,o),
(353,545,cs),
(290,545,o),
(231,512,o),
(191,458,c),
(191,750,l,{
name = hr00;
})
);
}
);
};
layerId = master01;
shapes = (
{
closed = 1;
nodes = (
(196,0,l),
(196,397,l),
(230,443,o),
(275,467,o),
(331,467,cs),
(398,467,o),
(430,431,o),
(430,356,cs),
(430,0,l),
(526,0,l),
(526,346,ls),
(526,490,o),
(478,545,o),
(353,545,cs),
(290,545,o),
(231,512,o),
(191,458,c),
(191,750,l,{
name = hr00;
}),
(100,750,l),
(100,0,l)
);
}
);
width = 616;
}
);
unicode = 104;
},
{
glyphname = hbar;
lastChange = "2023-02-10 15:08:41 +0000";
layers = (
{
background = {
shapes = (
{
closed = 1;
nodes = (
(100,750,l),
(100,0,l),
(196,0,l),
(196,397,l),
(230,443,o),
(275,467,o),
(331,467,cs),
(398,467,o),
(430,431,o),
(430,356,cs),
(430,0,l),
(526,0,l),
(526,346,ls),
(526,490,o),
(478,545,o),
(353,545,cs),
(290,545,o),
(231,512,o),
(191,458,c),
(191,750,l,{
name = hr00;
})
);
},
{
closed = 1;
nodes = (
(361,617,l),
(361,687,l),
(21,687,l),
(21,617,l,{
name = hr00;
})
);
}
);
};
layerId = master01;
shapes = (
{
closed = 1;
nodes = (
(361,617,l),
(361,687,l),
(21,687,l),
(21,617,l,{
name = hr00;
})
);
},
{
alignment = -1;
ref = h;
}
);
width = 616;
}
);
unicode = 295;
},
{
glyphname = hcircumflex;
lastChange = "2023-02-10 15:02:20 +0000";
layers = (
{
background = {
shapes = (
{
closed = 1;
nodes = (
(100,750,l),
(100,0,l),
(196,0,l),
(196,397,l),
(230,443,o),
(275,467,o),
(331,467,cs),
(398,467,o),
(430,431,o),
(430,356,cs),
(430,0,l),
(526,0,l),
(526,346,ls),
(526,490,o),
(478,545,o),
(353,545,cs),
(290,545,o),
(231,512,o),
(191,458,c),
(191,750,l,{
name = hr00;
})
);
},
{
closed = 1;
nodes = (
(133,940,l),
(-18,808,l),
(19,757,l),
(146,846,l),
(273,757,l),
(310,808,l),
(159,940,l,{
name = hr00;
})
);
}
);
};
layerId = master01;
shapes = (
{
ref = h;
},
{
pos = (-72,0);
ref = circumflexcomb.case;
}
);
width = 616;
}
);
unicode = 293;
},
{
glyphname = i;
lastChange = "2023-02-10 15:08:41 +0000";
layers = (
{
anchors = (
{
name = bottom;
pos = (148,0);
}
);
background = {
shapes = (
{
closed = 1;
nodes = (
(100,530,l),
(100,0,l),
(196,0,l),
(196,530,l,{
name = hr00;
})
);
},
{
closed = 1;
nodes = (
(83,651,o),
(111,630,o),
(148,630,cs),
(186,630,o),
(214,651,o),
(214,697,cs),
(214,743,o),
(186,764,o),
(148,764,cs),
(111,764,o),
(83,743,o),
(83,697,c)
);
}
);
};
layerId = master01;
shapes = (
{
closed = 1;
nodes = (
(196,0,l),
(196,530,l,{
name = hr00;
}),
(100,530,l),
(100,0,l)
);
},
{
closed = 1;
nodes = (
(186,630,o),
(214,651,o),
(214,697,cs),
(214,743,o),
(186,764,o),
(148,764,cs),
(111,764,o),
(83,743,o),
(83,697,c),
(83,651,o),
(111,630,o),
(148,630,cs)
);
}
);
width = 296;
}
);
unicode = 105;
},
{
glyphname = idotless;
lastChange = "2023-02-10 15:08:41 +0000";
layers = (
{
anchors = (
{
name = bottom;
pos = (148,0);
},
{
name = ogonek;
pos = (266,10);
},
{
name = top;
pos = (148,530);
}
);
background = {
shapes = (
{
closed = 1;
nodes = (
(100,530,l),
(100,0,l),
(196,0,l),
(196,530,l,{
name = hr00;
})
);
}
);
};
layerId = master01;
shapes = (
{
closed = 1;
nodes = (
(196,0,l),
(196,530,l,{
name = hr00;
}),
(100,530,l),
(100,0,l)
);
}
);
width = 296;
}
);
unicode = 305;
},
{
glyphname = iacute;
lastChange = "2023-02-10 15:08:41 +0000";
layers = (
{
background = {
shapes = (
{
closed = 1;
nodes = (
(100,530,l),
(100,0,l),
(196,0,l),
(196,530,l,{
name = hr00;
})
);
},
{
closed = 1;
nodes = (
(73,607,l),
(288,717,l),
(247,790,l),
(41,665,l,{
name = hr00;
})
);
}
);
};
layerId = master01;
shapes = (
{
alignment = -1;
ref = idotless;
},
{
alignment = -1;
pos = (-61,0);
ref = acute;
}
);
width = 296;
}
);
unicode = 237;
},
{
glyphname = ibreve;
lastChange = "2023-02-10 14:27:43 +0000";
layers = (
{
background = {
shapes = (
{
closed = 1;
nodes = (
(100,530,l),
(100,0,l),
(196,0,l),
(196,530,l,{
name = hr00;
})
);
},
{
closed = 1;
nodes = (
(229,749,o),
(202,693,o),
(151,693,cs),
(98,693,o),
(72,744,o),
(46,780,c),
(-11,753,l),
(24,678,o),
(74,609,o),
(147,609,cs),
(222,609,o),
(272,679,o),
(307,753,c),
(250,780,l,{
name = hr00;
})
);
}
);
};
layerId = master01;
shapes = (
{
alignment = -1;
ref = idotless;
},
{
alignment = -1;
pos = (-70,0);
ref = breve;
}
);
width = 296;
}
);
unicode = 301;
},
{
glyphname = icircumflex;
lastChange = "2023-02-10 15:08:41 +0000";
layers = (
{
background = {
shapes = (
{
closed = 1;
nodes = (
(100,530,l),
(100,0,l),
(196,0,l),
(196,530,l,{
name = hr00;
})
);
},
{
closed = 1;
nodes = (
(135,790,l),
(-16,658,l),
(21,607,l),
(148,696,l),
(275,607,l),
(312,658,l),
(161,790,l,{
name = hr00;
})
);
}
);
};
layerId = master01;
shapes = (
{
alignment = -1;
ref = idotless;
},
{
alignment = -1;
pos = (-70,0);
ref = circumflex;
}
);
width = 296;
}
);
unicode = 238;
},
{
glyphname = idieresis;
lastChange = "2023-02-10 15:08:41 +0000";
layers = (
{
background = {
shapes = (
{
closed = 1;
nodes = (
(100,530,l),
(100,0,l),
(196,0,l),
(196,530,l,{
name = hr00;
})
);
},
{
closed = 1;
nodes = (
(-4,657,o),
(21,638,o),
(53,638,cs),
(86,638,o),
(111,657,o),
(111,697,cs),
(111,737,o),
(86,756,o),
(53,756,cs),
(21,756,o),
(-4,737,o),
(-4,697,c,{
name = hr00;
})
);
},
{
closed = 1;
nodes = (
(185,657,o),
(210,638,o),
(242,638,cs),
(275,638,o),
(300,657,o),
(300,697,cs),
(300,737,o),
(275,756,o),
(242,756,cs),
(210,756,o),
(185,737,o),
(185,697,c)
);
}
);
};
layerId = master01;
shapes = (
{
alignment = -1;
ref = idotless;
},
{
alignment = -1;
ref = dieresis;
}
);
width = 296;
}
);
unicode = 239;
},
{
glyphname = igrave;
lastChange = "2023-02-10 15:08:41 +0000";
layers = (
{
background = {
shapes = (
{
closed = 1;
nodes = (
(100,530,l),
(100,0,l),
(196,0,l),
(196,530,l,{
name = hr00;
})
);
},
{
closed = 1;
nodes = (
(24,717,l),
(239,607,l),
(271,665,l),
(65,790,l,{
name = hr00;
})
);
}
);
};
layerId = master01;
shapes = (
{
alignment = -1;
ref = idotless;
},
{
alignment = -1;
pos = (-96,0);
ref = grave;
}
);
width = 296;
}
);
unicode = 236;
},
{
glyphname = ij;
lastChange = "2023-02-10 15:08:41 +0000";
layers = (
{
background = {
shapes = (
{
closed = 1;
nodes = (
(100,530,l),
(100,0,l),
(196,0,l),
(196,530,l,{
name = hr00;
})
);
},
{
closed = 1;
nodes = (
(83,651,o),
(111,630,o),
(148,630,cs),
(186,630,o),
(214,651,o),
(214,697,cs),
(214,743,o),
(186,764,o),
(148,764,cs),
(111,764,o),
(83,743,o),
(83,697,c)
);
},
{
closed = 1;
nodes = (
(385,651,o),
(410,632,o),
(444,632,cs),
(479,632,o),
(504,651,o),
(504,693,cs),
(504,735,o),
(479,754,o),
(444,754,cs),
(410,754,o),
(385,735,o),
(385,693,c,{
name = hr00;
})
);
},
{
closed = 1;
nodes = (
(396,530,l),
(396,-71,ls),
(396,-131,o),
(378,-157,o),
(345,-157,cs),
(316,-157,o),
(302,-139,o),
(292,-107,c),
(212,-134,l),
(238,-212,o),
(280,-235,o),
(340,-235,cs),
(436,-235,o),
(492,-186,o),
(492,-61,cs),
(492,530,l)
);
}
);
};
layerId = master01;
shapes = (
{
ref = i;
},
{
pos = (296,0);
ref = j;
}
);
width = 592;
}
);
unicode = 307;
},
{
glyphname = imacron;
lastChange = "2023-02-10 15:08:41 +0000";
layers = (
{
background = {
shapes = (
{
closed = 1;
nodes = (
(100,530,l),
(100,0,l),
(196,0,l),
(196,530,l,{
name = hr00;
})
);
},
{
closed = 1;
nodes = (
(293,659,l),
(293,734,l),
(4,734,l),
(4,659,l,{
name = hr00;
})
);
}
);
};
layerId = master01;
shapes = (
{
alignment = -1;
ref = idotless;
},
{
alignment = -1;
pos = (-129,0);
ref = macron;
}
);
width = 296;
}
);
unicode = 299;
},
{
glyphname = iogonek;
lastChange = "2023-02-10 15:08:41 +0000";
layers = (
{
background = {
shapes = (
{
closed = 1;
nodes = (
(100,530,l),
(100,0,l),
(196,0,l),
(196,530,l,{
name = hr00;
})
);
},
{
closed = 1;
nodes = (
(83,651,o),
(111,630,o),
(148,630,cs),
(186,630,o),
(214,651,o),
(214,697,cs),
(214,743,o),
(186,764,o),
(148,764,cs),
(111,764,o),
(83,743,o),
(83,697,c)
);
},
{
closed = 1;
nodes = (
(233,-124,o),
(207,-133,o),
(183,-133,cs),
(153,-133,o),
(127,-118,o),
(127,-79,cs),
(127,-52,o),
(144,-20,o),
(183,0,c),
(167,33,l),
(85,6,o),
(45,-42,o),
(45,-95,cs),
(45,-152,o),
(89,-204,o),
(166,-204,cs),
(214,-204,o),
(254,-182,o),
(281,-163,c),
(253,-110,l,{
name = hr00;
})
);
}
);
};
layerId = master01;
shapes = (
{
alignment = -1;
ref = i;
},
{
alignment = -1;
pos = (-5,0);
ref = ogonek;
}
);
width = 296;
}
);
unicode = 303;
},
{
glyphname = itilde;
lastChange = "2023-02-10 14:27:43 +0000";
layers = (
{
background = {
shapes = (
{
closed = 1;
nodes = (
(100,530,l),
(100,0,l),
(196,0,l),
(196,530,l,{
name = hr00;
})
);
},
{
closed = 1;
nodes = (
(251,726,o),
(235,720,o),
(216,720,cs),
(165,720,o),
(134,754,o),
(80,754,cs,{
name = hr01;
}),
(44,754,o),
(1,730,o),
(-24,672,c),
(33,644,l),
(45,667,o),
(61,673,o),
(80,673,cs),
(131,673,o),
(163,639,o),
(216,639,cs,{
name = hr02;
}),
(253,639,o),
(296,663,o),
(321,721,c),
(264,749,l)
);
}
);
};
layerId = master01;
shapes = (
{
alignment = -1;
ref = idotless;
},
{
alignment = -1;
pos = (-129,0);
ref = tilde;
}
);
width = 296;
}
);
unicode = 297;
},
{
glyphname = j;
lastChange = "2023-02-10 15:08:41 +0000";
layers = (
{
background = {
shapes = (
{
closed = 1;
nodes = (
(89,651,o),
(114,632,o),
(148,632,cs),
(183,632,o),
(208,651,o),
(208,693,cs),
(208,735,o),
(183,754,o),
(148,754,cs),
(114,754,o),
(89,735,o),
(89,693,c,{
name = hr00;
})
);
},
{
closed = 1;
nodes = (
(100,530,l),
(100,-71,ls),
(100,-131,o),
(82,-157,o),
(49,-157,cs),
(20,-157,o),
(6,-139,o),
(-4,-107,c),
(-84,-134,l),
(-58,-212,o),
(-16,-235,o),
(44,-235,cs),
(140,-235,o),
(196,-186,o),
(196,-61,cs),
(196,530,l)
);
}
);
};
layerId = master01;
shapes = (
{
closed = 1;
nodes = (
(140,-235,o),
(196,-186,o),
(196,-61,cs),
(196,530,l),
(100,530,l),
(100,-71,ls),
(100,-131,o),
(82,-157,o),
(49,-157,cs),
(20,-157,o),
(6,-139,o),
(-4,-107,c),
(-84,-134,l),
(-58,-212,o),
(-16,-235,o),
(44,-235,cs)
);
},
{
closed = 1;
nodes = (
(183,632,o),
(208,651,o),
(208,693,cs),
(208,735,o),
(183,754,o),
(148,754,cs),
(114,754,o),
(89,735,o),
(89,693,c,{
name = hr00;
}),
(89,651,o),
(114,632,o),
(148,632,cs)
);
}
);
width = 296;
}
);
unicode = 106;
},
{
glyphname = jdotless;
lastChange = "2023-02-10 15:08:41 +0000";
layers = (
{
anchors = (
{
name = bottom;
pos = (148,-235);
},
{
name = top;
pos = (148,530);
}
);
background = {
shapes = (
{
closed = 1;
nodes = (
(100,530,l),
(100,-71,ls),
(100,-131,o),
(82,-157,o),
(49,-157,cs),
(20,-157,o),
(6,-139,o),
(-4,-107,c),
(-84,-134,l),
(-58,-212,o),
(-16,-235,o),
(44,-235,cs),
(140,-235,o),
(196,-186,o),
(196,-61,cs),
(196,530,l,{
name = hr00;
})
);
}
);
};
layerId = master01;
shapes = (
{
closed = 1;
nodes = (
(140,-235,o),
(196,-186,o),
(196,-61,cs),
(196,530,l,{
name = hr00;
}),
(100,530,l),
(100,-71,ls),
(100,-131,o),
(82,-157,o),
(49,-157,cs),
(20,-157,o),
(6,-139,o),
(-4,-107,c),
(-84,-134,l),
(-58,-212,o),
(-16,-235,o),
(44,-235,cs)
);
}
);
width = 296;
}
);
unicode = 567;
},
{
glyphname = jcircumflex;
lastChange = "2023-02-10 14:27:43 +0000";
layers = (
{
background = {
shapes = (
{
closed = 1;
nodes = (
(100,530,l),
(100,-71,ls),
(100,-131,o),
(82,-157,o),
(49,-157,cs),
(20,-157,o),
(6,-139,o),
(-4,-107,c),
(-84,-134,l),
(-58,-212,o),
(-16,-235,o),
(44,-235,cs),
(140,-235,o),
(196,-186,o),
(196,-61,cs),
(196,530,l,{
name = hr00;
})
);
},
{
closed = 1;
nodes = (
(135,790,l),
(-16,658,l),
(21,607,l),
(148,696,l),
(275,607,l),
(312,658,l),
(161,790,l,{
name = hr00;
})
);
}
);
};
layerId = master01;
shapes = (
{
alignment = -1;
ref = jdotless;
},
{
alignment = -1;
pos = (-70,0);
ref = circumflex;
}
);
width = 296;
}
);
unicode = 309;
},
{
glyphname = k;
lastChange = "2023-02-10 15:08:41 +0000";
layers = (
{
anchors = (
{
name = bottom;
pos = (281,0);
},
{
name = top;
pos = (149,750);
}
);
background = {
shapes = (
{
closed = 1;
nodes = (
(502,0,l),
(274,300,l),
(482,530,l),
(377,530,l),
(196,328,l),
(196,750,l),
(100,750,l),
(100,0,l),
(196,0,l),
(196,213,l),
(219,238,l),
(397,0,l,{
name = hr00;
})
);
}
);
};
layerId = master01;
shapes = (
{
closed = 1;
nodes = (
(196,0,l),
(196,213,l),
(219,238,l),
(397,0,l,{
name = hr00;
}),
(502,0,l),
(274,300,l),
(482,530,l),
(377,530,l),
(196,328,l),
(196,750,l),
(100,750,l),
(100,0,l)
);
}
);
width = 522;
}
);
unicode = 107;
},
{
glyphname = kcommaaccent;
lastChange = "2023-02-10 15:08:41 +0000";
layers = (
{
background = {
shapes = (
{
closed = 1;
nodes = (
(502,0,l),
(274,300,l),
(482,530,l),
(377,530,l),
(196,328,l),
(196,750,l),
(100,750,l),
(100,0,l),
(196,0,l),
(196,213,l),
(219,238,l),
(397,0,l,{
name = hr00;
})
);
},
{
closed = 1;
nodes = (
(251,-226,o),
(235,-253,o),
(218,-273,c),
(260,-301,l),
(302,-256,o),
(344,-172,o),
(344,-112,cs),
(344,-69,o),
(318,-50,o),
(282,-50,cs),
(247,-50,o),
(221,-69,o),
(221,-112,cs),
(221,-154,o),
(251,-160,o),
(251,-201,cs,{
name = hr00;
})
);
}
);
};
layerId = master01;
shapes = (
{
ref = k;
},
{
pos = (146,0);
ref = commaaccentcomb;
}
);
width = 522;
}
);
unicode = 311;
},
{
glyphname = kgreenlandic;
lastChange = "2023-02-10 14:55:41 +0000";
layers = (
{
anchors = (
{
name = bottom;
pos = (271,0);
},
{
name = top;
pos = (271,530);
}
);
background = {
shapes = (
{
closed = 1;
nodes = (
(100,530,l),
(100,0,l),
(196,0,l),
(196,190,l),
(239,238,l),
(417,0,l),
(522,0,l),
(294,300,l),
(502,530,l),
(397,530,l),
(196,305,l),
(196,530,l,{
name = hr00;
})
);
}
);
};
layerId = master01;
shapes = (
{
closed = 1;
nodes = (
(196,0,l),
(196,190,l),
(239,238,l),
(417,0,l),
(522,0,l),
(294,300,l),
(502,530,l),
(397,530,l),
(196,305,l),
(196,530,l,{
name = hr00;
}),
(100,530,l),
(100,0,l)
);
}
);
width = 542;
}
);
unicode = 312;
},
{
glyphname = l;
lastChange = "2023-02-10 15:08:41 +0000";
layers = (
{
anchors = (
{
name = bottom;
pos = (148,0);
},
{
name = center;
pos = (148,480);
},
{
name = top;
pos = (160,700);
},
{
name = topright;
pos = (360,768);
}
);
background = {
shapes = (
{
closed = 1;
nodes = (
(100,750,l),
(100,88,ls),
(100,7,o),
(143,-15,o),
(195,-15,cs),
(225,-15,o),
(251,-5,o),
(272,5,c),
(256,67,l),
(246,62,o),
(231,58,o),
(220,58,cs),
(205,58,o),
(196,64,o),
(196,85,cs),
(196,750,l,{
name = hr00;
})
);
}
);
};
layerId = master01;
shapes = (
{
closed = 1;
nodes = (
(225,-15,o),
(251,-5,o),
(272,5,c),
(256,67,l),
(246,62,o),
(231,58,o),
(220,58,cs),
(205,58,o),
(196,64,o),
(196,85,cs),
(196,750,l,{
name = hr00;
}),
(100,750,l),
(100,88,ls),
(100,7,o),
(143,-15,o),
(195,-15,cs)
);
}
);
width = 296;
}
);
unicode = 108;
},
{
glyphname = lacute;
lastChange = "2023-02-10 15:08:41 +0000";
layers = (
{
background = {
shapes = (
{
closed = 1;
nodes = (
(100,750,l),
(100,88,ls),
(100,7,o),
(143,-15,o),
(195,-15,cs),
(225,-15,o),
(251,-5,o),
(272,5,c),
(256,67,l),
(246,62,o),
(231,58,o),
(220,58,cs),
(205,58,o),
(196,64,o),
(196,85,cs),
(196,750,l,{
name = hr00;
})
);
},
{
closed = 1;
nodes = (
(65,757,l),
(280,867,l),
(239,940,l),
(33,815,l,{
name = hr00;
})
);
}
);
};
layerId = master01;
shapes = (
{
ref = l;
},
{
pos = (-66,0);
ref = acutecomb.case;
}
);
width = 296;
}
);
unicode = 314;
},
{
glyphname = lcaron;
lastChange = "2023-02-10 15:08:41 +0000";
layers = (
{
background = {
shapes = (
{
closed = 1;
nodes = (
(100,750,l),
(100,88,ls),
(100,7,o),
(143,-15,o),
(195,-15,cs),
(225,-15,o),
(251,-5,o),
(272,5,c),
(256,67,l),
(246,62,o),
(231,58,o),
(220,58,cs),
(205,58,o),
(196,64,o),
(196,85,cs),
(196,750,l,{
name = hr00;
})
);
},
{
closed = 1;
nodes = (
(267,653,o),
(251,626,o),
(234,606,c),
(276,578,l),
(318,623,o),
(360,707,o),
(360,767,cs),
(360,810,o),
(334,829,o),
(298,829,cs),
(263,829,o),
(237,810,o),
(237,767,cs),
(237,725,o),
(267,719,o),
(267,678,cs,{
name = hr00;
})
);
}
);
};
layerId = master01;
shapes = (
{
ref = l;
},
{
pos = (-30,1);
ref = caroncomb.alt;
}
);
width = 296;
}
);
unicode = 318;
},
{
glyphname = lcommaaccent;
lastChange = "2023-02-10 15:08:41 +0000";
layers = (
{
background = {
shapes = (
{
closed = 1;
nodes = (
(100,750,l),
(100,88,ls),
(100,7,o),
(143,-15,o),
(195,-15,cs),
(225,-15,o),
(251,-5,o),
(272,5,c),
(256,67,l),
(246,62,o),
(231,58,o),
(220,58,cs),
(205,58,o),
(196,64,o),
(196,85,cs),
(196,750,l,{
name = hr00;
})
);
},
{
closed = 1;
nodes = (
(118,-226,o),
(102,-253,o),
(85,-273,c),
(127,-301,l),
(169,-256,o),
(211,-172,o),
(211,-112,cs),
(211,-69,o),
(185,-50,o),
(149,-50,cs),
(114,-50,o),
(88,-69,o),
(88,-112,cs),
(88,-154,o),
(118,-160,o),
(118,-201,cs,{
name = hr00;
})
);
}
);
};
layerId = master01;
shapes = (
{
ref = l;
},
{
pos = (13,0);
ref = commaaccentcomb;
}
);
width = 296;
}
);
unicode = 316;
},
{
glyphname = ldot;
lastChange = "2023-02-10 15:04:22 +0000";
layers = (
{
background = {
shapes = (
{
closed = 1;
nodes = (
(100,750,l),
(100,88,ls),
(100,7,o),
(143,-15,o),
(195,-15,cs),
(225,-15,o),
(251,-5,o),
(272,5,c),
(256,67,l),
(246,62,o),
(231,58,o),
(220,58,cs),
(205,58,o),
(196,64,o),
(196,85,cs),
(196,750,l,{
name = hr00;
})
);
},
{
closed = 1;
nodes = (
(231,334,o),
(259,313,o),
(297,313,cs),
(336,313,o),
(364,334,o),
(364,381,cs),
(364,428,o),
(336,449,o),
(297,449,cs),
(259,449,o),
(231,428,o),
(231,381,cs,{
name = hr00;
})
);
}
);
};
layerId = master01;
shapes = (
{
alignment = -1;
ref = l;
},
{
alignment = -1;
pos = (131,80);
ref = periodcentered;
}
);
width = 306;
}
);
unicode = 320;
},
{
glyphname = lslash;
lastChange = "2023-02-10 15:08:41 +0000";
layers = (
{
background = {
shapes = (
{
closed = 1;
nodes = (
(100,750,l),
(100,88,ls),
(100,7,o),
(143,-15,o),
(195,-15,cs),
(225,-15,o),
(251,-5,o),
(272,5,c),
(256,67,l),
(246,62,o),
(231,58,o),
(220,58,cs),
(205,58,o),
(196,64,o),
(196,85,cs),
(196,750,l,{
name = hr00;
})
);
},
{
closed = 1;
nodes = (
(304,487,l),
(274,545,l),
(-8,401,l),
(22,343,l,{
name = hr00;
})
);
}
);
};
layerId = master01;
shapes = (
{
closed = 1;
nodes = (
(304,487,l),
(274,545,l),
(-8,401,l),
(22,343,l,{
name = hr00;
})
);
},
{
alignment = -1;
ref = l;
}
);
width = 296;
}
);
unicode = 322;
},
{
glyphname = m;
lastChange = "2023-02-10 15:08:41 +0000";
layers = (
{
anchors = (
{
name = bottom;
pos = (458,0);
},
{
name = top;
pos = (458,530);
}
);
background = {
shapes = (
{
closed = 1;
nodes = (
(100,0,l),
(196,0,l),
(196,408,l),
(233,444,o),
(276,467,o),
(320,467,cs,{
name = hr01;
}),
(385,467,o),
(415,430,o),
(415,356,cs),
(415,0,l),
(511,0,l),
(511,346,ls),
(511,368,o),
(510,387,o),
(507,405,c),
(545,443,o),
(589,467,o),
(635,467,cs),
(700,467,o),
(730,430,o),
(730,356,cs),
(730,0,l),
(826,0,l),
(826,346,ls),
(826,490,o),
(778,545,o),
(657,545,cs),
(589,545,o),
(533,504,o),
(494,460,c),
(471,520,o),
(423,545,o),
(342,545,cs),
(278,545,o),
(224,508,o),
(186,468,c),
(181,530,l,{
name = hr02;
}),
(100,530,l)
);
}
);
};
layerId = master01;
shapes = (
{
closed = 1;
nodes = (
(196,0,l),
(196,408,l),
(233,444,o),
(276,467,o),
(320,467,cs,{
name = hr01;
}),
(385,467,o),
(415,430,o),
(415,356,cs),
(415,0,l),
(511,0,l),
(511,346,ls),
(511,368,o),
(510,387,o),
(507,405,c),
(545,443,o),
(589,467,o),
(635,467,cs),
(700,467,o),
(730,430,o),
(730,356,cs),
(730,0,l),
(826,0,l),
(826,346,ls),
(826,490,o),
(778,545,o),
(657,545,cs),
(589,545,o),
(533,504,o),
(494,460,c),
(471,520,o),
(423,545,o),
(342,545,cs),
(278,545,o),
(224,508,o),
(186,468,c),
(181,530,l,{
name = hr02;
}),
(100,530,l),
(100,0,l)
);
}
);
width = 916;
}
);
unicode = 109;
},
{
glyphname = n;
lastChange = "2023-02-10 15:08:41 +0000";
layers = (
{
anchors = (
{
name = bottom;
pos = (308,0);
},
{
name = top;
pos = (309,530);
}
);
background = {
shapes = (
{
closed = 1;
nodes = (
(100,0,l),
(196,0,l),
(196,407,l),
(236,444,o),
(282,467,o),
(329,467,cs,{
name = hr01;
}),
(398,467,o),
(430,430,o),
(430,356,cs),
(430,0,l),
(526,0,l),
(526,346,ls),
(526,490,o),
(478,545,o),
(353,545,cs),
(284,545,o),
(227,507,o),
(186,466,c),
(181,530,l,{
name = hr02;
}),
(100,530,l)
);
}
);
};
layerId = master01;
shapes = (
{
closed = 1;
nodes = (
(196,0,l),
(196,407,l),
(236,444,o),
(282,467,o),
(329,467,cs,{
name = hr01;
}),
(398,467,o),
(430,430,o),
(430,356,cs),
(430,0,l),
(526,0,l),
(526,346,ls),
(526,490,o),
(478,545,o),
(353,545,cs),
(284,545,o),
(227,507,o),
(186,466,c),
(181,530,l,{
name = hr02;
}),
(100,530,l),
(100,0,l)
);
}
);
width = 616;
}
);
unicode = 110;
},
{
glyphname = nacute;
lastChange = "2023-02-10 15:08:41 +0000";
layers = (
{
background = {
shapes = (
{
closed = 1;
nodes = (
(100,0,l),
(196,0,l),
(196,407,l),
(236,444,o),
(282,467,o),
(329,467,cs,{
name = hr01;
}),
(398,467,o),
(430,430,o),
(430,356,cs),
(430,0,l),
(526,0,l),
(526,346,ls),
(526,490,o),
(478,545,o),
(353,545,cs),
(284,545,o),
(227,507,o),
(186,466,c),
(181,530,l,{
name = hr02;
}),
(100,530,l)
);
},
{
closed = 1;
nodes = (
(246,607,l),
(461,717,l),
(420,790,l),
(214,665,l,{
name = hr00;
})
);
}
);
};
layerId = master01;
shapes = (
{
ref = n;
},
{
pos = (83,0);
ref = acutecomb;
}
);
width = 616;
}
);
unicode = 324;
},
{
glyphname = napostrophe;
lastChange = "2023-02-10 15:04:50 +0000";
layers = (
{
background = {
shapes = (
{
closed = 1;
nodes = (
(100,0,l),
(196,0,l),
(196,407,l),
(236,444,o),
(282,467,o),
(329,467,cs,{
name = hr01;
}),
(398,467,o),
(430,430,o),
(430,356,cs),
(430,0,l),
(526,0,l),
(526,346,ls),
(526,490,o),
(478,545,o),
(353,545,cs),
(284,545,o),
(227,507,o),
(186,466,c),
(181,530,l,{
name = hr02;
}),
(100,530,l)
);
},
{
closed = 1;
nodes = (
(33,653,o),
(17,626,o),
(0,606,c),
(42,578,l),
(84,623,o),
(126,707,o),
(126,767,cs),
(126,810,o),
(100,829,o),
(64,829,cs),
(29,829,o),
(3,810,o),
(3,767,cs),
(3,725,o),
(33,719,o),
(33,678,cs,{
name = hr00;
})
);
}
);
};
layerId = master01;
shapes = (
{
closed = 1;
nodes = (
(84,623,o),
(126,707,o),
(126,767,cs),
(126,810,o),
(100,829,o),
(64,829,cs),
(29,829,o),
(3,810,o),
(3,767,cs),
(3,725,o),
(33,719,o),
(33,678,cs,{
name = hr00;
}),
(33,653,o),
(17,626,o),
(0,606,c),
(42,578,l)
);
},
{
alignment = -1;
ref = n;
}
);
width = 616;
}
);
unicode = 329;
},
{
glyphname = ncaron;
lastChange = "2023-02-10 15:08:41 +0000";
layers = (
{
background = {
shapes = (
{
closed = 1;
nodes = (
(100,0,l),
(196,0,l),
(196,407,l),
(236,444,o),
(282,467,o),
(329,467,cs,{
name = hr01;
}),
(398,467,o),
(430,430,o),
(430,356,cs),
(430,0,l),
(526,0,l),
(526,346,ls),
(526,490,o),
(478,545,o),
(353,545,cs),
(284,545,o),
(227,507,o),
(186,466,c),
(181,530,l,{
name = hr02;
}),
(100,530,l)
);
},
{
closed = 1;
nodes = (
(321,604,l),
(472,736,l),
(435,787,l),
(308,698,l),
(181,787,l),
(144,736,l),
(295,604,l,{
name = hr00;
})
);
}
);
};
layerId = master01;
shapes = (
{
ref = n;
},
{
pos = (91,0);
ref = caroncomb;
}
);
width = 616;
}
);
unicode = 328;
},
{
glyphname = ncommaaccent;
lastChange = "2023-02-10 15:08:41 +0000";
layers = (
{
background = {
shapes = (
{
closed = 1;
nodes = (
(100,0,l),
(196,0,l),
(196,407,l),
(236,444,o),
(282,467,o),
(329,467,cs,{
name = hr01;
}),
(398,467,o),
(430,430,o),
(430,356,cs),
(430,0,l),
(526,0,l),
(526,346,ls),
(526,490,o),
(478,545,o),
(353,545,cs),
(284,545,o),
(227,507,o),
(186,466,c),
(181,530,l,{
name = hr02;
}),
(100,530,l)
);
},
{
closed = 1;
nodes = (
(278,-226,o),
(262,-253,o),
(245,-273,c),
(287,-301,l),
(329,-256,o),
(371,-172,o),
(371,-112,cs),
(371,-69,o),
(345,-50,o),
(309,-50,cs),
(274,-50,o),
(248,-69,o),
(248,-112,cs),
(248,-154,o),
(278,-160,o),
(278,-201,cs,{
name = hr00;
})
);
}
);
};
layerId = master01;
shapes = (
{
ref = n;
},
{
pos = (173,0);
ref = commaaccentcomb;
}
);
width = 616;
}
);
unicode = 326;
},
{
glyphname = ntilde;
lastChange = "2023-02-10 15:08:41 +0000";
layers = (
{
background = {
shapes = (
{
closed = 1;
nodes = (
(100,0,l),
(196,0,l),
(196,407,l),
(236,444,o),
(282,467,o),
(329,467,cs,{
name = hr01;
}),
(398,467,o),
(430,430,o),
(430,356,cs),
(430,0,l),
(526,0,l),
(526,346,ls),
(526,490,o),
(478,545,o),
(353,545,cs),
(284,545,o),
(227,507,o),
(186,466,c),
(181,530,l,{
name = hr02;
}),
(100,530,l)
);
},
{
closed = 1;
nodes = (
(410,726,o),
(394,720,o),
(375,720,cs),
(324,720,o),
(293,754,o),
(239,754,cs,{
name = hr01;
}),
(203,754,o),
(160,730,o),
(135,672,c),
(192,644,l),
(204,667,o),
(220,673,o),
(239,673,cs),
(290,673,o),
(322,639,o),
(375,639,cs,{
name = hr02;
}),
(412,639,o),
(455,663,o),
(480,721,c),
(423,749,l)
);
}
);
};
layerId = master01;
shapes = (
{
ref = n;
},
{
pos = (31,0);
ref = tildecomb;
}
);
width = 616;
}
);
unicode = 241;
},
{
glyphname = eng;
lastChange = "2023-02-10 15:08:41 +0000";
layers = (
{
anchors = (
{
name = bottom;
pos = (308,0);
},
{
name = top;
pos = (308,530);
}
);
background = {
shapes = (
{
closed = 1;
nodes = (
(100,0,l),
(196,0,l),
(196,407,l),
(236,444,o),
(282,467,o),
(329,467,cs,{
name = hr01;
}),
(398,467,o),
(430,430,o),
(430,356,cs),
(430,-71,ls),
(430,-131,o),
(412,-157,o),
(379,-157,cs),
(350,-157,o),
(336,-139,o),
(326,-107,c),
(246,-134,l),
(272,-212,o),
(314,-235,o),
(374,-235,cs),
(470,-235,o),
(526,-186,o),
(526,-61,cs),
(526,346,ls),
(526,490,o),
(478,545,o),
(353,545,cs),
(284,545,o),
(227,507,o),
(186,466,c),
(181,530,l,{
name = hr02;
}),
(100,530,l)
);
}
);
};
layerId = master01;
shapes = (
{
closed = 1;
nodes = (
(470,-235,o),
(526,-186,o),
(526,-61,cs),
(526,346,ls),
(526,490,o),
(478,545,o),
(353,545,cs),
(284,545,o),
(227,507,o),
(186,466,c),
(181,530,l,{
name = hr02;
}),
(100,530,l),
(100,0,l),
(196,0,l),
(196,407,l),
(236,444,o),
(282,467,o),
(329,467,cs,{
name = hr01;
}),
(398,467,o),
(430,430,o),
(430,356,cs),
(430,-71,ls),
(430,-131,o),
(412,-157,o),
(379,-157,cs),
(350,-157,o),
(336,-139,o),
(326,-107,c),
(246,-134,l),
(272,-212,o),
(314,-235,o),
(374,-235,cs)
);
}
);
width = 616;
}
);
unicode = 331;
},
{
glyphname = o;
kernLeft = e;
lastChange = "2023-02-10 15:15:22 +0000";
layers = (
{
anchors = (
{
name = bottom;
pos = (312,0);
},
{
name = center;
pos = (312,265);
},
{
name = ogonek;
pos = (561,10);
},
{
name = top;
pos = (312,530);
},
{
name = topright;
pos = (603,530);
}
);
background = {
shapes = (
{
closed = 1;
nodes = (
(70,80,o),
(174,-15,o),
(311,-15,cs),
(448,-15,o),
(553,80,o),
(553,265,cs),
(553,450,o),
(448,545,o),
(311,545,cs),
(174,545,o),
(70,450,o),
(70,265,cs,{
name = hr00;
})
);
},
{
closed = 1;
nodes = (
(170,402,o),
(229,467,o),
(311,467,cs),
(394,467,o),
(453,402,o),
(453,265,cs),
(453,128,o),
(394,63,o),
(311,63,cs),
(229,63,o),
(170,128,o),
(170,265,cs)
);
}
);
};
layerId = master01;
shapes = (
{
closed = 1;
nodes = (
(448,-15,o),
(553,80,o),
(553,265,cs),
(553,450,o),
(448,545,o),
(311,545,cs),
(174,545,o),
(70,450,o),
(70,265,cs,{
name = hr00;
}),
(70,80,o),
(174,-15,o),
(311,-15,cs)
);
},
{
closed = 1;
nodes = (
(229,63,o),
(170,128,o),
(170,265,cs),
(170,402,o),
(229,467,o),
(311,467,cs),
(394,467,o),
(453,402,o),
(453,265,cs),
(453,128,o),
(394,63,o),
(311,63,cs)
);
}
);
width = 623;
}
);
unicode = 111;
},
{
glyphname = oacute;
kernLeft = e;
lastChange = "2023-02-10 15:15:22 +0000";
layers = (
{
background = {
shapes = (
{
closed = 1;
nodes = (
(70,80,o),
(174,-15,o),
(311,-15,cs),
(448,-15,o),
(553,80,o),
(553,265,cs),
(553,450,o),
(448,545,o),
(311,545,cs),
(174,545,o),
(70,450,o),
(70,265,cs,{
name = hr00;
})
);
},
{
closed = 1;
nodes = (
(170,402,o),
(229,467,o),
(311,467,cs),
(394,467,o),
(453,402,o),
(453,265,cs),
(453,128,o),
(394,63,o),
(311,63,cs),
(229,63,o),
(170,128,o),
(170,265,cs)
);
},
{
closed = 1;
nodes = (
(236,607,l),
(451,717,l),
(410,790,l),
(204,665,l,{
name = hr00;
})
);
}
);
};
layerId = master01;
shapes = (
{
ref = o;
},
{
pos = (86,0);
ref = acutecomb;
}
);
width = 623;
}
);
unicode = 243;
},
{
glyphname = obreve;
kernLeft = e;
lastChange = "2023-02-10 15:15:22 +0000";
layers = (
{
background = {
shapes = (
{
closed = 1;
nodes = (
(70,80,o),
(174,-15,o),
(311,-15,cs),
(448,-15,o),
(553,80,o),
(553,265,cs),
(553,450,o),
(448,545,o),
(311,545,cs),
(174,545,o),
(70,450,o),
(70,265,cs,{
name = hr00;
})
);
},
{
closed = 1;
nodes = (
(170,402,o),
(229,467,o),
(311,467,cs),
(394,467,o),
(453,402,o),
(453,265,cs),
(453,128,o),
(394,63,o),
(311,63,cs),
(229,63,o),
(170,128,o),
(170,265,cs)
);
},
{
closed = 1;
nodes = (
(392,749,o),
(365,693,o),
(314,693,cs),
(261,693,o),
(235,744,o),
(209,780,c),
(152,753,l),
(187,678,o),
(237,609,o),
(310,609,cs),
(385,609,o),
(435,679,o),
(470,753,c),
(413,780,l,{
name = hr00;
})
);
}
);
};
layerId = master01;
shapes = (
{
ref = o;
},
{
pos = (94,0);
ref = brevecomb;
}
);
width = 623;
}
);
unicode = 335;
},
{
glyphname = ocircumflex;
kernLeft = e;
lastChange = "2023-02-10 15:15:22 +0000";
layers = (
{
background = {
shapes = (
{
closed = 1;
nodes = (
(70,80,o),
(174,-15,o),
(311,-15,cs),
(448,-15,o),
(553,80,o),
(553,265,cs),
(553,450,o),
(448,545,o),
(311,545,cs),
(174,545,o),
(70,450,o),
(70,265,cs,{
name = hr00;
})
);
},
{
closed = 1;
nodes = (
(170,402,o),
(229,467,o),
(311,467,cs),
(394,467,o),
(453,402,o),
(453,265,cs),
(453,128,o),
(394,63,o),
(311,63,cs),
(229,63,o),
(170,128,o),
(170,265,cs)
);
},
{
closed = 1;
nodes = (
(298,790,l),
(147,658,l),
(184,607,l),
(311,696,l),
(438,607,l),
(475,658,l),
(324,790,l,{
name = hr00;
})
);
}
);
};
layerId = master01;
shapes = (
{
ref = o;
},
{
pos = (94,0);
ref = circumflexcomb;
}
);
width = 623;
}
);
unicode = 244;
},
{
glyphname = odieresis;
kernLeft = e;
lastChange = "2023-02-10 15:15:22 +0000";
layers = (
{
background = {
shapes = (
{
closed = 1;
nodes = (
(70,80,o),
(174,-15,o),
(311,-15,cs),
(448,-15,o),
(553,80,o),
(553,265,cs),
(553,450,o),
(448,545,o),
(311,545,cs),
(174,545,o),
(70,450,o),
(70,265,cs,{
name = hr00;
})
);
},
{
closed = 1;
nodes = (
(170,402,o),
(229,467,o),
(311,467,cs),
(394,467,o),
(453,402,o),
(453,265,cs),
(453,128,o),
(394,63,o),
(311,63,cs),
(229,63,o),
(170,128,o),
(170,265,cs)
);
},
{
closed = 1;
nodes = (
(159,657,o),
(184,638,o),
(216,638,cs),
(249,638,o),
(274,657,o),
(274,697,cs),
(274,737,o),
(249,756,o),
(216,756,cs),
(184,756,o),
(159,737,o),
(159,697,c,{
name = hr00;
})
);
},
{
closed = 1;
nodes = (
(348,657,o),
(373,638,o),
(405,638,cs),
(438,638,o),
(463,657,o),
(463,697,cs),
(463,737,o),
(438,756,o),
(405,756,cs),
(373,756,o),
(348,737,o),
(348,697,c)
);
}
);
};
layerId = master01;
shapes = (
{
ref = o;
},
{
pos = (164,0);
ref = dieresiscomb;
}
);
width = 623;
}
);
unicode = 246;
},
{
glyphname = ograve;
kernLeft = e;
lastChange = "2023-02-10 15:15:22 +0000";
layers = (
{
background = {
shapes = (
{
closed = 1;
nodes = (
(70,80,o),
(174,-15,o),
(311,-15,cs),
(448,-15,o),
(553,80,o),
(553,265,cs),
(553,450,o),
(448,545,o),
(311,545,cs),
(174,545,o),
(70,450,o),
(70,265,cs,{
name = hr00;
})
);
},
{
closed = 1;
nodes = (
(170,402,o),
(229,467,o),
(311,467,cs),
(394,467,o),
(453,402,o),
(453,265,cs),
(453,128,o),
(394,63,o),
(311,63,cs),
(229,63,o),
(170,128,o),
(170,265,cs)
);
},
{
closed = 1;
nodes = (
(187,717,l),
(402,607,l),
(434,665,l),
(228,790,l,{
name = hr00;
})
);
}
);
};
layerId = master01;
shapes = (
{
ref = o;
},
{
pos = (68,0);
ref = gravecomb;
}
);
width = 623;
}
);
unicode = 242;
},
{
glyphname = ohungarumlaut;
kernLeft = e;
lastChange = "2023-02-10 15:15:22 +0000";
layers = (
{
background = {
shapes = (
{
closed = 1;
nodes = (
(70,80,o),
(174,-15,o),
(311,-15,cs),
(448,-15,o),
(553,80,o),
(553,265,cs),
(553,450,o),
(448,545,o),
(311,545,cs),
(174,545,o),
(70,450,o),
(70,265,cs,{
name = hr00;
})
);
},
{
closed = 1;
nodes = (
(170,402,o),
(229,467,o),
(311,467,cs),
(394,467,o),
(453,402,o),
(453,265,cs),
(453,128,o),
(394,63,o),
(311,63,cs),
(229,63,o),
(170,128,o),
(170,265,cs)
);
},
{
closed = 1;
nodes = (
(173,607,l),
(348,717,l),
(298,790,l),
(136,658,l,{
name = hr00;
})
);
},
{
closed = 1;
nodes = (
(392,607,l),
(567,717,l),
(517,790,l),
(355,658,l)
);
}
);
};
layerId = master01;
shapes = (
{
ref = o;
},
{
pos = (136,0);
ref = hungarumlautcomb;
}
);
width = 623;
}
);
unicode = 337;
},
{
glyphname = omacron;
kernLeft = e;
lastChange = "2023-02-10 15:15:22 +0000";
layers = (
{
background = {
shapes = (
{
closed = 1;
nodes = (
(70,80,o),
(174,-15,o),
(311,-15,cs),
(448,-15,o),
(553,80,o),
(553,265,cs),
(553,450,o),
(448,545,o),
(311,545,cs),
(174,545,o),
(70,450,o),
(70,265,cs,{
name = hr00;
})
);
},
{
closed = 1;
nodes = (
(170,402,o),
(229,467,o),
(311,467,cs),
(394,467,o),
(453,402,o),
(453,265,cs),
(453,128,o),
(394,63,o),
(311,63,cs),
(229,63,o),
(170,128,o),
(170,265,cs)
);
},
{
closed = 1;
nodes = (
(456,659,l),
(456,734,l),
(167,734,l),
(167,659,l,{
name = hr00;
})
);
}
);
};
layerId = master01;
shapes = (
{
ref = o;
},
{
pos = (34,0);
ref = macroncomb;
}
);
width = 623;
}
);
unicode = 333;
},
{
glyphname = oslash;
kernLeft = e;
lastChange = "2023-02-10 15:15:22 +0000";
layers = (
{
background = {
shapes = (
{
closed = 1;
nodes = (
(70,80,o),
(174,-15,o),
(311,-15,cs),
(448,-15,o),
(553,80,o),
(553,265,cs),
(553,450,o),
(448,545,o),
(311,545,cs),
(174,545,o),
(70,450,o),
(70,265,cs,{
name = hr00;
})
);
},
{
closed = 1;
nodes = (
(170,402,o),
(229,467,o),
(311,467,cs),
(394,467,o),
(453,402,o),
(453,265,cs),
(453,128,o),
(394,63,o),
(311,63,cs),
(229,63,o),
(170,128,o),
(170,265,cs)
);
},
{
closed = 1;
nodes = (
(406,609,l),
(150,-80,l),
(215,-80,l),
(472,609,l,{
name = hr00;
})
);
}
);
};
layerId = master01;
shapes = (
{
closed = 1;
nodes = (
(215,-80,l),
(472,609,l,{
name = hr00;
}),
(406,609,l),
(150,-80,l)
);
},
{
alignment = -1;
ref = o;
}
);
width = 623;
}
);
unicode = 248;
},
{
glyphname = oslashacute;
kernLeft = e;
lastChange = "2023-02-10 15:15:22 +0000";
layers = (
{
background = {
shapes = (
{
closed = 1;
nodes = (
(241,607,l),
(456,717,l),
(415,790,l),
(209,665,l,{
name = hr00;
})
);
},
{
closed = 1;
nodes = (
(70,80,o),
(174,-15,o),
(311,-15,cs),
(448,-15,o),
(553,80,o),
(553,265,cs),
(553,450,o),
(448,545,o),
(311,545,cs),
(174,545,o),
(70,450,o),
(70,265,cs,{
name = hr00;
})
);
},
{
closed = 1;
nodes = (
(170,402,o),
(229,467,o),
(311,467,cs),
(394,467,o),
(453,402,o),
(453,265,cs),
(453,128,o),
(394,63,o),
(311,63,cs),
(229,63,o),
(170,128,o),
(170,265,cs)
);
},
{
closed = 1;
nodes = (
(406,609,l),
(150,-80,l),
(215,-80,l),
(472,609,l,{
name = hr00;
})
);
}
);
};
layerId = master01;
shapes = (
{
ref = oslash;
},
{
pos = (86,0);
ref = acutecomb;
}
);
width = 623;
}
);
unicode = 511;
},
{
glyphname = otilde;
kernLeft = e;
lastChange = "2023-02-10 15:15:22 +0000";
layers = (
{
background = {
shapes = (
{
closed = 1;
nodes = (
(70,80,o),
(174,-15,o),
(311,-15,cs),
(448,-15,o),
(553,80,o),
(553,265,cs),
(553,450,o),
(448,545,o),
(311,545,cs),
(174,545,o),
(70,450,o),
(70,265,cs,{
name = hr00;
})
);
},
{
closed = 1;
nodes = (
(170,402,o),
(229,467,o),
(311,467,cs),
(394,467,o),
(453,402,o),
(453,265,cs),
(453,128,o),
(394,63,o),
(311,63,cs),
(229,63,o),
(170,128,o),
(170,265,cs)
);
},
{
closed = 1;
nodes = (
(414,726,o),
(398,720,o),
(379,720,cs),
(328,720,o),
(297,754,o),
(243,754,cs,{
name = hr01;
}),
(207,754,o),
(164,730,o),
(139,672,c),
(196,644,l),
(208,667,o),
(224,673,o),
(243,673,cs),
(294,673,o),
(326,639,o),
(379,639,cs,{
name = hr02;
}),
(416,639,o),
(459,663,o),
(484,721,c),
(427,749,l)
);
}
);
};
layerId = master01;
shapes = (
{
ref = o;
},
{
pos = (34,0);
ref = tildecomb;
}
);
width = 623;
}
);
unicode = 245;
},
{
glyphname = oe;
kernLeft = e;
lastChange = "2023-02-10 15:15:22 +0000";
layers = (
{
background = {
shapes = (
{
closed = 1;
nodes = (
(70,80,o),
(174,-15,o),
(311,-15,cs),
(448,-15,o),
(553,80,o),
(553,265,cs),
(553,450,o),
(448,545,o),
(311,545,cs),
(174,545,o),
(70,450,o),
(70,265,cs,{
name = hr00;
})
);
},
{
closed = 1;
nodes = (
(170,402,o),
(229,467,o),
(311,467,cs),
(394,467,o),
(453,402,o),
(453,265,cs),
(453,128,o),
(394,63,o),
(311,63,cs),
(229,63,o),
(170,128,o),
(170,265,cs)
);
},
{
closed = 1;
nodes = (
(621,63,o),
(562,119,o),
(554,237,c),
(904,237,l),
(904,307,ls),
(904,467,o),
(817,545,o),
(691,545,cs),
(556,545,o),
(453,450,o),
(453,265,cs),
(453,80,o),
(556,-15,o),
(698,-15,cs),
(783,-15,o),
(852,25,o),
(893,72,c),
(850,124,l),
(820,95,o),
(769,63,o),
(701,63,cs,{
name = hr00;
})
);
},
{
closed = 1;
nodes = (
(766,467,o),
(809,409,o),
(809,307,c),
(555,307,l),
(566,415,o),
(620,467,o),
(692,467,cs)
);
}
);
};
layerId = master01;
shapes = (
{
alignment = -1;
ref = o;
},
{
alignment = -1;
pos = (383,0);
ref = e;
}
);
width = 974;
}
);
unicode = 339;
},
{
glyphname = p;
lastChange = "2023-02-10 15:08:41 +0000";
layers = (
{
anchors = (
{
name = bottom;
pos = (313,0);
},
{
name = top;
pos = (313,530);
}
);
background = {
shapes = (
{
closed = 1;
nodes = (
(196,-235,l),
(196,26,l),
(232,1,o),
(276,-15,o),
(325,-15,cs),
(454,-15,o),
(555,80,o),
(555,265,cs),
(555,450,o),
(474,545,o),
(352,545,cs),
(278,545,o),
(224,508,o),
(186,468,c),
(181,530,l,{
name = hr01;
}),
(100,530,l),
(100,-235,l)
);
},
{
closed = 1;
nodes = (
(404,467,o),
(455,402,o),
(455,265,cs),
(455,128,o),
(399,63,o),
(321,63,cs),
(271,63,o),
(226,81,o),
(196,105,c),
(196,408,l),
(233,444,o),
(278,467,o),
(331,467,cs,{
name = hr02;
})
);
}
);
};
layerId = master01;
shapes = (
{
closed = 1;
nodes = (
(196,-235,l),
(196,26,l),
(232,1,o),
(276,-15,o),
(325,-15,cs),
(454,-15,o),
(555,80,o),
(555,265,cs),
(555,450,o),
(474,545,o),
(352,545,cs),
(278,545,o),
(224,508,o),
(186,468,c),
(181,530,l,{
name = hr01;
}),
(100,530,l),
(100,-235,l)
);
},
{
closed = 1;
nodes = (
(271,63,o),
(226,81,o),
(196,105,c),
(196,408,l),
(233,444,o),
(278,467,o),
(331,467,cs,{
name = hr02;
}),
(404,467,o),
(455,402,o),
(455,265,cs),
(455,128,o),
(399,63,o),
(321,63,cs)
);
}
);
width = 625;
}
);
unicode = 112;
},
{
glyphname = thorn;
lastChange = "2023-02-10 15:08:41 +0000";
layers = (
{
anchors = (
{
name = bottom;
pos = (313,0);
},
{
name = top;
pos = (313,530);
}
);
background = {
shapes = (
{
closed = 1;
nodes = (
(284,545,o),
(233,514,o),
(196,478,c),
(196,750,l),
(100,750,l),
(100,-221,l),
(196,-221,l),
(196,26,l),
(232,1,o),
(276,-15,o),
(325,-15,cs),
(454,-15,o),
(555,80,o),
(555,265,cs),
(555,450,o),
(474,545,o),
(352,545,cs,{
name = hr00;
})
);
},
{
closed = 1;
nodes = (
(404,467,o),
(455,402,o),
(455,265,cs),
(455,128,o),
(399,63,o),
(321,63,cs),
(271,63,o),
(226,81,o),
(196,105,c),
(196,408,l),
(233,444,o),
(278,467,o),
(331,467,cs)
);
}
);
};
layerId = master01;
shapes = (
{
closed = 1;
nodes = (
(196,-221,l),
(196,26,l),
(232,1,o),
(276,-15,o),
(325,-15,cs),
(454,-15,o),
(555,80,o),
(555,265,cs),
(555,450,o),
(474,545,o),
(352,545,cs,{
name = hr00;
}),
(284,545,o),
(233,514,o),
(196,478,c),
(196,750,l),
(100,750,l),
(100,-221,l)
);
},
{
closed = 1;
nodes = (
(271,63,o),
(226,81,o),
(196,105,c),
(196,408,l),
(233,444,o),
(278,467,o),
(331,467,cs),
(404,467,o),
(455,402,o),
(455,265,cs),
(455,128,o),
(399,63,o),
(321,63,cs)
);
}
);
width = 625;
}
);
unicode = 254;
},
{
glyphname = q;
kernLeft = e;
lastChange = "2023-02-10 15:15:22 +0000";
layers = (
{
anchors = (
{
name = bottom;
pos = (313,0);
},
{
name = top;
pos = (313,530);
}
);
background = {
shapes = (
{
closed = 1;
nodes = (
(341,-15,o),
(392,15,o),
(429,52,c),
(429,-235,l),
(525,-235,l),
(525,545,l),
(479,545,l),
(451,487,l),
(412,520,o),
(359,545,o),
(300,545,cs),
(171,545,o),
(70,450,o),
(70,265,cs),
(70,80,o),
(151,-15,o),
(273,-15,cs,{
name = hr00;
})
);
},
{
closed = 1;
nodes = (
(221,63,o),
(170,128,o),
(170,265,cs),
(170,402,o),
(226,467,o),
(304,467,cs),
(353,467,o),
(398,448,o),
(429,425,c),
(429,121,l),
(391,86,o),
(346,63,o),
(294,63,cs)
);
}
);
};
layerId = master01;
shapes = (
{
closed = 1;
nodes = (
(525,-235,l),
(525,545,l),
(479,545,l),
(451,487,l),
(412,520,o),
(359,545,o),
(300,545,cs),
(171,545,o),
(70,450,o),
(70,265,cs),
(70,80,o),
(151,-15,o),
(273,-15,cs,{
name = hr00;
}),
(341,-15,o),
(392,15,o),
(429,52,c),
(429,-235,l)
);
},
{
closed = 1;
nodes = (
(221,63,o),
(170,128,o),
(170,265,cs),
(170,402,o),
(226,467,o),
(304,467,cs),
(353,467,o),
(398,448,o),
(429,425,c),
(429,121,l),
(391,86,o),
(346,63,o),
(294,63,cs)
);
}
);
width = 625;
}
);
unicode = 113;
},
{
glyphname = r;
lastChange = "2023-02-10 15:08:41 +0000";
layers = (
{
anchors = (
{
name = bottom;
pos = (151,0);
},
{
name = top;
pos = (223,530);
}
);
background = {
shapes = (
{
closed = 1;
nodes = (
(100,0,l),
(196,0,l),
(196,403,l),
(231,439,o),
(282,461,o),
(344,462,c,{
name = hr01;
}),
(356,473,l),
(351,545,l),
(287,543,o),
(227,511,o),
(186,465,c),
(181,530,l,{
name = hr02;
}),
(100,530,l)
);
}
);
};
layerId = master01;
shapes = (
{
closed = 1;
nodes = (
(196,0,l),
(196,403,l),
(231,439,o),
(282,461,o),
(344,462,c,{
name = hr01;
}),
(356,473,l),
(351,545,l),
(287,543,o),
(227,511,o),
(186,465,c),
(181,530,l,{
name = hr02;
}),
(100,530,l),
(100,0,l)
);
}
);
width = 365;
}
);
unicode = 114;
},
{
glyphname = racute;
lastChange = "2023-02-10 15:08:41 +0000";
layers = (
{
background = {
shapes = (
{
closed = 1;
nodes = (
(100,0,l),
(196,0,l),
(196,403,l),
(231,439,o),
(282,461,o),
(344,462,c,{
name = hr01;
}),
(356,473,l),
(351,545,l),
(287,543,o),
(227,511,o),
(186,465,c),
(181,530,l,{
name = hr02;
}),
(100,530,l)
);
},
{
closed = 1;
nodes = (
(131,607,l),
(346,717,l),
(305,790,l),
(99,665,l,{
name = hr00;
})
);
}
);
};
layerId = master01;
shapes = (
{
ref = r;
},
{
pos = (-3,0);
ref = acutecomb;
}
);
width = 365;
}
);
unicode = 341;
},
{
glyphname = rcaron;
lastChange = "2023-02-10 15:08:41 +0000";
layers = (
{
background = {
shapes = (
{
closed = 1;
nodes = (
(100,0,l),
(196,0,l),
(196,403,l),
(231,439,o),
(282,461,o),
(344,462,c,{
name = hr01;
}),
(356,473,l),
(351,545,l),
(287,543,o),
(227,511,o),
(186,465,c),
(181,530,l,{
name = hr02;
}),
(100,530,l)
);
},
{
closed = 1;
nodes = (
(236,604,l),
(387,736,l),
(350,787,l),
(223,698,l),
(96,787,l),
(59,736,l),
(210,604,l,{
name = hr00;
})
);
}
);
};
layerId = master01;
shapes = (
{
ref = r;
},
{
pos = (5,0);
ref = caroncomb;
}
);
width = 365;
}
);
unicode = 345;
},
{
glyphname = rcommaaccent;
lastChange = "2023-02-10 15:08:41 +0000";
layers = (
{
background = {
shapes = (
{
closed = 1;
nodes = (
(100,0,l),
(196,0,l),
(196,403,l),
(231,439,o),
(282,461,o),
(344,462,c,{
name = hr01;
}),
(356,473,l),
(351,545,l),
(287,543,o),
(227,511,o),
(186,465,c),
(181,530,l,{
name = hr02;
}),
(100,530,l)
);
},
{
closed = 1;
nodes = (
(122,-226,o),
(106,-253,o),
(89,-273,c),
(131,-301,l),
(173,-256,o),
(215,-172,o),
(215,-112,cs),
(215,-69,o),
(189,-50,o),
(153,-50,cs),
(118,-50,o),
(92,-69,o),
(92,-112,cs),
(92,-154,o),
(122,-160,o),
(122,-201,cs,{
name = hr00;
})
);
}
);
};
layerId = master01;
shapes = (
{
ref = r;
},
{
pos = (16,0);
ref = commaaccentcomb;
}
);
width = 365;
}
);
unicode = 343;
},
{
glyphname = s;
kernLeft = e;
lastChange = "2023-02-10 15:15:31 +0000";
layers = (
{
anchors = (
{
name = bottom;
pos = (243,0);
},
{
name = top;
pos = (253,530);
}
);
background = {
shapes = (
{
closed = 1;
nodes = (
(307,472,o),
(340,438,o),
(355,384,c),
(438,412,l),
(412,507,o),
(349,545,o),
(258,545,cs),
(119,545,o),
(74,462,o),
(74,401,cs),
(74,213,o),
(343,229,o),
(343,126,cs),
(343,80,o),
(302,58,o),
(257,58,cs),
(204,58,o),
(152,78,o),
(139,166,c),
(56,138,l),
(78,43,o),
(136,-15,o),
(250,-15,cs),
(365,-15,o),
(435,44,o),
(435,133,cs),
(435,312,o),
(166,291,o),
(166,403,cs),
(166,449,o),
(205,472,o),
(256,472,cs,{
name = hr00;
})
);
}
);
};
layerId = master01;
shapes = (
{
closed = 1;
nodes = (
(365,-15,o),
(435,44,o),
(435,133,cs),
(435,312,o),
(166,291,o),
(166,403,cs),
(166,449,o),
(205,472,o),
(256,472,cs,{
name = hr00;
}),
(307,472,o),
(340,438,o),
(355,384,c),
(438,412,l),
(412,507,o),
(349,545,o),
(258,545,cs),
(119,545,o),
(74,462,o),
(74,401,cs),
(74,213,o),
(343,229,o),
(343,126,cs),
(343,80,o),
(302,58,o),
(257,58,cs),
(204,58,o),
(152,78,o),
(139,166,c),
(56,138,l),
(78,43,o),
(136,-15,o),
(250,-15,cs)
);
}
);
width = 486;
}
);
unicode = 115;
},
{
glyphname = sacute;
kernLeft = e;
lastChange = "2023-02-10 15:15:31 +0000";
layers = (
{
background = {
shapes = (
{
closed = 1;
nodes = (
(307,472,o),
(340,438,o),
(355,384,c),
(438,412,l),
(412,507,o),
(349,545,o),
(258,545,cs),
(119,545,o),
(74,462,o),
(74,401,cs),
(74,213,o),
(343,229,o),
(343,126,cs),
(343,80,o),
(302,58,o),
(257,58,cs),
(204,58,o),
(152,78,o),
(139,166,c),
(56,138,l),
(78,43,o),
(136,-15,o),
(250,-15,cs),
(365,-15,o),
(435,44,o),
(435,133,cs),
(435,312,o),
(166,291,o),
(166,403,cs),
(166,449,o),
(205,472,o),
(256,472,cs,{
name = hr00;
})
);
},
{
closed = 1;
nodes = (
(161,607,l),
(376,717,l),
(335,790,l),
(129,665,l,{
name = hr00;
})
);
}
);
};
layerId = master01;
shapes = (
{
ref = s;
},
{
pos = (27,0);
ref = acutecomb;
}
);
width = 486;
}
);
unicode = 347;
},
{
glyphname = scaron;
kernLeft = e;
lastChange = "2023-02-10 15:15:31 +0000";
layers = (
{
background = {
shapes = (
{
closed = 1;
nodes = (
(299,472,o),
(332,438,o),
(347,384,c),
(430,412,l),
(404,507,o),
(341,545,o),
(250,545,cs),
(111,545,o),
(66,462,o),
(66,401,cs),
(66,213,o),
(335,229,o),
(335,126,cs),
(335,80,o),
(294,58,o),
(249,58,cs),
(196,58,o),
(144,78,o),
(131,166,c),
(48,138,l),
(70,43,o),
(128,-15,o),
(242,-15,cs),
(357,-15,o),
(427,44,o),
(427,133,cs),
(427,312,o),
(158,291,o),
(158,403,cs),
(158,449,o),
(197,472,o),
(248,472,cs,{
name = hr00;
})
);
},
{
closed = 1;
nodes = (
(266,604,l),
(417,736,l),
(380,787,l),
(253,698,l),
(126,787,l),
(89,736,l),
(240,604,l,{
name = hr00;
})
);
}
);
};
layerId = master01;
shapes = (
{
ref = s;
},
{
pos = (35,0);
ref = caroncomb;
}
);
width = 486;
}
);
unicode = 353;
},
{
glyphname = scedilla;
kernLeft = e;
lastChange = "2023-02-10 15:15:31 +0000";
layers = (
{
background = {
shapes = (
{
closed = 1;
nodes = (
(307,472,o),
(340,438,o),
(355,384,c),
(438,412,l),
(412,507,o),
(349,545,o),
(258,545,cs),
(119,545,o),
(74,462,o),
(74,401,cs),
(74,213,o),
(343,229,o),
(343,126,cs),
(343,80,o),
(302,58,o),
(257,58,cs),
(204,58,o),
(152,78,o),
(139,166,c),
(56,138,l),
(78,43,o),
(136,-15,o),
(250,-15,cs),
(365,-15,o),
(435,44,o),
(435,133,cs),
(435,312,o),
(166,291,o),
(166,403,cs),
(166,449,o),
(205,472,o),
(256,472,cs,{
name = hr00;
})
);
},
{
closed = 1;
nodes = (
(132,-188,o),
(172,-210,o),
(220,-210,cs),
(297,-210,o),
(341,-158,o),
(341,-101,cs),
(341,-48,o),
(301,0,o),
(219,27,c),
(203,-6,l),
(242,-26,o),
(259,-58,o),
(259,-85,cs),
(259,-124,o),
(233,-139,o),
(203,-139,cs),
(179,-139,o),
(153,-130,o),
(133,-116,c),
(105,-169,l,{
name = hr00;
})
);
}
);
};
layerId = master01;
shapes = (
{
ref = s;
},
{
pos = (-20,0);
ref = cedillacomb;
}
);
width = 486;
}
);
unicode = 351;
},
{
glyphname = scircumflex;
kernLeft = e;
lastChange = "2023-02-10 15:15:31 +0000";
layers = (
{
background = {
shapes = (
{
closed = 1;
nodes = (
(307,472,o),
(340,438,o),
(355,384,c),
(438,412,l),
(412,507,o),
(349,545,o),
(258,545,cs),
(119,545,o),
(74,462,o),
(74,401,cs),
(74,213,o),
(343,229,o),
(343,126,cs),
(343,80,o),
(302,58,o),
(257,58,cs),
(204,58,o),
(152,78,o),
(139,166,c),
(56,138,l),
(78,43,o),
(136,-15,o),
(250,-15,cs),
(365,-15,o),
(435,44,o),
(435,133,cs),
(435,312,o),
(166,291,o),
(166,403,cs),
(166,449,o),
(205,472,o),
(256,472,cs,{
name = hr00;
})
);
},
{
closed = 1;
nodes = (
(240,790,l),
(89,658,l),
(126,607,l),
(253,696,l),
(380,607,l),
(417,658,l),
(266,790,l,{
name = hr00;
})
);
}
);
};
layerId = master01;
shapes = (
{
ref = s;
},
{
pos = (35,0);
ref = circumflexcomb;
}
);
width = 486;
}
);
unicode = 349;
},
{
glyphname = scommaaccent;
kernLeft = e;
lastChange = "2023-02-10 15:15:31 +0000";
layers = (
{
background = {
shapes = (
{
closed = 1;
nodes = (
(307,472,o),
(340,438,o),
(355,384,c),
(438,412,l),
(412,507,o),
(349,545,o),
(258,545,cs),
(119,545,o),
(74,462,o),
(74,401,cs),
(74,213,o),
(343,229,o),
(343,126,cs),
(343,80,o),
(302,58,o),
(257,58,cs),
(204,58,o),
(152,78,o),
(139,166,c),
(56,138,l),
(78,43,o),
(136,-15,o),
(250,-15,cs),
(365,-15,o),
(435,44,o),
(435,133,cs),
(435,312,o),
(166,291,o),
(166,403,cs),
(166,449,o),
(205,472,o),
(256,472,cs,{
name = hr00;
})
);
},
{
closed = 1;
nodes = (
(213,-226,o),
(197,-253,o),
(180,-273,c),
(222,-301,l),
(264,-256,o),
(306,-172,o),
(306,-112,cs),
(306,-69,o),
(280,-50,o),
(244,-50,cs),
(209,-50,o),
(183,-69,o),
(183,-112,cs),
(183,-154,o),
(213,-160,o),
(213,-201,cs,{
name = hr00;
})
);
}
);
};
layerId = master01;
shapes = (
{
ref = s;
},
{
pos = (108,0);
ref = commaaccentcomb;
}
);
width = 486;
}
);
unicode = 537;
},
{
glyphname = germandbls;
lastChange = "2023-02-10 15:08:41 +0000";
layers = (
{
anchors = (
{
name = bottom;
pos = (332,0);
},
{
name = top;
pos = (332,960);
}
);
background = {
shapes = (
{
closed = 1;
nodes = (
(131,460,l),
(131,0,l),
(227,0,l),
(227,559,ls),
(227,661,o),
(278,687,o),
(336,687,cs),
(399,687,o),
(444,644,o),
(444,587,cs),
(444,484,o),
(306,485,o),
(306,378,cs),
(306,239,o),
(534,309,o),
(534,155,cs,{
name = hr01;
}),
(534,101,o),
(490,63,o),
(437,63,cs),
(373,63,o),
(349,100,o),
(339,146,c),
(257,118,l),
(279,23,o),
(342,-15,o),
(439,-15,cs),
(570,-15,o),
(634,82,o),
(634,163,cs),
(634,366,o),
(396,339,o),
(396,385,cs),
(396,431,o),
(539,460,o),
(539,591,cs,{
name = hr02;
}),
(539,674,o),
(493,765,o),
(329,765,cs),
(187,765,o),
(131,666,o),
(131,541,cs),
(131,530,l),
(55,530,l),
(55,460,l)
);
}
);
};
layerId = master01;
shapes = (
{
closed = 1;
nodes = (
(570,-15,o),
(634,82,o),
(634,163,cs),
(634,366,o),
(396,339,o),
(396,385,cs),
(396,431,o),
(539,460,o),
(539,591,cs,{
name = hr02;
}),
(539,674,o),
(493,765,o),
(329,765,cs),
(187,765,o),
(131,666,o),
(131,541,cs),
(131,530,l),
(55,530,l),
(55,460,l),
(131,460,l),
(131,0,l),
(227,0,l),
(227,559,ls),
(227,661,o),
(278,687,o),
(336,687,cs),
(399,687,o),
(444,644,o),
(444,587,cs),
(444,484,o),
(306,485,o),
(306,378,cs),
(306,239,o),
(534,309,o),
(534,155,cs,{
name = hr01;
}),
(534,101,o),
(490,63,o),
(437,63,cs),
(373,63,o),
(349,100,o),
(339,146,c),
(257,118,l),
(279,23,o),
(342,-15,o),
(439,-15,cs)
);
}
);
width = 664;
}
);
unicode = 223;
},
{
glyphname = t;
lastChange = "2023-02-10 15:08:41 +0000";
layers = (
{
anchors = (
{
name = bottom;
pos = (196,10);
},
{
name = center;
pos = (199,265);
},
{
name = top;
pos = (199,530);
},
{
name = topright;
pos = (389,768);
}
);
background = {
shapes = (
{
closed = 1;
nodes = (
(131,460,l),
(131,124,ls),
(131,34,o),
(169,-15,o),
(239,-15,cs),
(283,-15,o),
(337,4,o),
(377,34,c),
(351,94,l),
(320,75,o),
(295,66,o),
(274,66,cs),
(242,66,o),
(227,82,o),
(227,114,cs),
(227,460,l),
(367,460,l),
(367,530,l),
(227,530,l),
(227,660,l),
(207,660,l),
(131,640,l),
(131,530,l),
(55,530,l),
(55,460,l,{
name = hr00;
})
);
}
);
};
layerId = master01;
shapes = (
{
closed = 1;
nodes = (
(283,-15,o),
(337,4,o),
(377,34,c),
(351,94,l),
(320,75,o),
(295,66,o),
(274,66,cs),
(242,66,o),
(227,82,o),
(227,114,cs),
(227,460,l),
(367,460,l),
(367,530,l),
(227,530,l),
(227,660,l),
(207,660,l),
(131,640,l),
(131,530,l),
(55,530,l),
(55,460,l,{
name = hr00;
}),
(131,460,l),
(131,124,ls),
(131,34,o),
(169,-15,o),
(239,-15,cs)
);
}
);
width = 397;
}
);
unicode = 116;
},
{
glyphname = tbar;
lastChange = "2023-02-10 15:05:32 +0000";
layers = (
{
background = {
shapes = (
{
closed = 1;
nodes = (
(131,460,l),
(131,124,ls),
(131,34,o),
(169,-15,o),
(239,-15,cs),
(283,-15,o),
(337,4,o),
(377,34,c),
(351,94,l),
(320,75,o),
(295,66,o),
(274,66,cs),
(242,66,o),
(227,82,o),
(227,114,cs),
(227,460,l),
(367,460,l),
(367,530,l),
(227,530,l),
(227,660,l),
(207,660,l),
(131,640,l),
(131,530,l),
(55,530,l),
(55,460,l,{
name = hr00;
})
);
},
{
closed = 1;
nodes = (
(316,266,l),
(316,336,l),
(44,336,l),
(44,266,l,{
name = hr00;
})
);
}
);
};
layerId = master01;
shapes = (
{
alignment = -1;
ref = t;
},
{
closed = 1;
nodes = (
(316,266,l),
(316,336,l),
(44,336,l),
(44,266,l,{
name = hr00;
})
);
}
);
width = 397;
}
);
unicode = 359;
},
{
glyphname = tcaron;
lastChange = "2023-02-10 15:08:41 +0000";
layers = (
{
background = {
shapes = (
{
closed = 1;
nodes = (
(131,460,l),
(131,124,ls),
(131,34,o),
(169,-15,o),
(239,-15,cs),
(283,-15,o),
(337,4,o),
(377,34,c),
(351,94,l),
(320,75,o),
(295,66,o),
(274,66,cs),
(242,66,o),
(227,82,o),
(227,114,cs),
(227,460,l),
(367,460,l),
(367,530,l),
(227,530,l),
(227,660,l),
(207,660,l),
(131,640,l),
(131,530,l),
(55,530,l),
(55,460,l,{
name = hr00;
})
);
},
{
closed = 1;
nodes = (
(296,653,o),
(280,626,o),
(263,606,c),
(305,578,l),
(347,623,o),
(389,707,o),
(389,767,cs),
(389,810,o),
(363,829,o),
(327,829,cs),
(292,829,o),
(266,810,o),
(266,767,cs),
(266,725,o),
(296,719,o),
(296,678,cs,{
name = hr00;
})
);
}
);
};
layerId = master01;
shapes = (
{
ref = t;
},
{
pos = (-1,1);
ref = caroncomb.alt;
}
);
width = 397;
}
);
unicode = 357;
},
{
glyphname = tcedilla;
lastChange = "2023-02-10 15:06:25 +0000";
layers = (
{
background = {
shapes = (
{
closed = 1;
nodes = (
(131,460,l),
(131,124,ls),
(131,34,o),
(169,-15,o),
(239,-15,cs),
(283,-15,o),
(337,4,o),
(377,34,c),
(351,94,l),
(320,75,o),
(295,66,o),
(274,66,cs),
(242,66,o),
(227,82,o),
(227,114,cs),
(227,460,l),
(367,460,l),
(367,530,l),
(227,530,l),
(227,660,l),
(207,660,l),
(131,640,l),
(131,530,l),
(55,530,l),
(55,460,l,{
name = hr00;
})
);
},
{
closed = 1;
nodes = (
(105,-178,o),
(145,-200,o),
(193,-200,cs),
(270,-200,o),
(314,-148,o),
(314,-91,cs),
(314,-38,o),
(274,10,o),
(192,37,c),
(176,4,l),
(215,-16,o),
(232,-48,o),
(232,-75,cs),
(232,-114,o),
(206,-129,o),
(176,-129,cs),
(152,-129,o),
(126,-120,o),
(106,-106,c),
(78,-159,l,{
name = hr00;
})
);
}
);
};
layerId = master01;
shapes = (
{
ref = t;
},
{
pos = (-67,10);
ref = cedillacomb;
}
);
width = 397;
}
);
unicode = 355;
},
{
glyphname = tcommaaccent;
lastChange = "2023-02-10 15:08:41 +0000";
layers = (
{
background = {
shapes = (
{
closed = 1;
nodes = (
(131,460,l),
(131,124,ls),
(131,34,o),
(169,-15,o),
(239,-15,cs),
(283,-15,o),
(337,4,o),
(377,34,c),
(351,94,l),
(320,75,o),
(295,66,o),
(274,66,cs),
(242,66,o),
(227,82,o),
(227,114,cs),
(227,460,l),
(367,460,l),
(367,530,l),
(227,530,l),
(227,660,l),
(207,660,l),
(131,640,l),
(131,530,l),
(55,530,l),
(55,460,l,{
name = hr00;
})
);
},
{
closed = 1;
nodes = (
(168,-226,o),
(152,-253,o),
(135,-273,c),
(177,-301,l),
(219,-256,o),
(261,-172,o),
(261,-112,cs),
(261,-69,o),
(235,-50,o),
(199,-50,cs),
(164,-50,o),
(138,-69,o),
(138,-112,cs),
(138,-154,o),
(168,-160,o),
(168,-201,cs,{
name = hr00;
})
);
}
);
};
layerId = master01;
shapes = (
{
ref = t;
},
{
pos = (61,10);
ref = commaaccentcomb;
}
);
width = 397;
}
);
unicode = 539;
},
{
glyphname = u;
lastChange = "2023-02-10 15:08:41 +0000";
layers = (
{
anchors = (
{
name = bottom;
pos = (309,0);
},
{
name = ogonek;
pos = (674,33);
},
{
name = top;
pos = (309,530);
},
{
name = topright;
pos = (597,530);
}
);
background = {
shapes = (
{
closed = 1;
nodes = (
(415,530,l),
(415,122,l),
(375,86,o),
(327,63,o),
(269,63,cs),
(210,63,o),
(186,99,o),
(186,170,cs),
(186,530,l),
(90,530,l),
(90,171,ls),
(90,50,o),
(136,-15,o),
(241,-15,cs),
(320,-15,o),
(380,21,o),
(421,61,c),
(429,2,o),
(464,-15,o),
(510,-15,cs),
(540,-15,o),
(566,-5,o),
(587,5,c),
(571,67,l),
(561,62,o),
(548,58,o),
(537,58,cs),
(522,58,o),
(511,64,o),
(511,85,cs),
(511,530,l,{
name = hr00;
})
);
}
);
};
layerId = master01;
shapes = (
{
closed = 1;
nodes = (
(320,-15,o),
(380,21,o),
(421,61,c),
(429,2,o),
(464,-15,o),
(510,-15,cs),
(540,-15,o),
(566,-5,o),
(587,5,c),
(571,67,l),
(561,62,o),
(548,58,o),
(537,58,cs),
(522,58,o),
(511,64,o),
(511,85,cs),
(511,530,l,{
name = hr00;
}),
(415,530,l),
(415,122,l),
(375,86,o),
(327,63,o),
(269,63,cs),
(210,63,o),
(186,99,o),
(186,170,cs),
(186,530,l),
(90,530,l),
(90,171,ls),
(90,50,o),
(136,-15,o),
(241,-15,cs)
);
}
);
width = 617;
}
);
unicode = 117;
},
{
glyphname = uacute;
lastChange = "2023-02-10 15:08:41 +0000";
layers = (
{
background = {
shapes = (
{
closed = 1;
nodes = (
(415,530,l),
(415,122,l),
(375,86,o),
(327,63,o),
(269,63,cs),
(210,63,o),
(186,99,o),
(186,170,cs),
(186,530,l),
(90,530,l),
(90,171,ls),
(90,50,o),
(136,-15,o),
(241,-15,cs),
(320,-15,o),
(380,21,o),
(421,61,c),
(429,2,o),
(464,-15,o),
(510,-15,cs),
(540,-15,o),
(566,-5,o),
(587,5,c),
(571,67,l),
(561,62,o),
(548,58,o),
(537,58,cs),
(522,58,o),
(511,64,o),
(511,85,cs),
(511,530,l,{
name = hr00;
})
);
},
{
closed = 1;
nodes = (
(233,607,l),
(448,717,l),
(407,790,l),
(201,665,l,{
name = hr00;
})
);
}
);
};
layerId = master01;
shapes = (
{
ref = u;
},
{
pos = (83,0);
ref = acutecomb;
}
);
width = 617;
}
);
unicode = 250;
},
